<svg width="990" height="168" viewBox="0 0 990 168" fill="none" xmlns="http://www.w3.org/2000/svg">
<g filter="url(#filter0_i_20_725)">
<path d="M13.6149 166.84C9.93492 166.84 6.94492 165.997 4.64492 164.31C2.49826 162.623 1.19492 160.4 0.734922 157.64C0.274922 154.727 0.811589 151.507 2.34492 147.98L63.0649 13.43C65.0583 8.98333 67.4349 5.83999 70.1949 3.99999C73.1083 2.00665 76.4049 1.00999 80.0849 1.00999C83.6116 1.00999 86.7549 2.00665 89.5149 3.99999C92.4283 5.83999 94.8816 8.98333 96.8749 13.43L157.825 147.98C159.512 151.507 160.125 154.727 159.665 157.64C159.205 160.553 157.902 162.853 155.755 164.54C153.608 166.073 150.772 166.84 147.245 166.84C142.952 166.84 139.578 165.843 137.125 163.85C134.825 161.703 132.755 158.483 130.915 154.19L115.965 119.46L128.385 127.51H31.3249L43.7449 119.46L29.0249 154.19C27.0316 158.637 24.9616 161.857 22.8149 163.85C20.6683 165.843 17.6016 166.84 13.6149 166.84ZM79.6249 34.82L47.4249 111.41L41.4449 104.05H118.265L112.515 111.41L80.0849 34.82H79.6249ZM198.107 165C193.354 165 189.674 163.697 187.067 161.09C184.461 158.33 183.157 154.573 183.157 149.82V17.11C183.157 12.2033 184.384 8.52333 186.837 6.06999C189.444 3.46333 193.124 2.16 197.877 2.16C202.631 2.16 206.234 3.46333 208.687 6.06999C211.294 8.52333 212.597 12.2033 212.597 17.11V139.93H279.297C283.437 139.93 286.581 141.003 288.727 143.15C291.027 145.297 292.177 148.363 292.177 152.35C292.177 156.337 291.027 159.48 288.727 161.78C286.581 163.927 283.437 165 279.297 165H198.107ZM327.948 165C322.888 165 318.978 163.697 316.218 161.09C313.611 158.33 312.308 154.42 312.308 149.36V18.49C312.308 13.43 313.611 9.59666 316.218 6.98999C318.978 4.22999 322.888 2.84999 327.948 2.84999H410.058C413.891 2.84999 416.804 3.84666 418.798 5.83999C420.944 7.83333 422.018 10.67 422.018 14.35C422.018 18.1833 420.944 21.1733 418.798 23.32C416.804 25.3133 413.891 26.31 410.058 26.31H340.598V70.93H404.998C408.984 70.93 411.974 71.9267 413.968 73.92C415.961 75.9133 416.958 78.8267 416.958 82.66C416.958 86.4933 415.961 89.4067 413.968 91.4C411.974 93.3933 408.984 94.39 404.998 94.39H340.598V141.54H410.058C413.891 141.54 416.804 142.537 418.798 144.53C420.944 146.523 422.018 149.437 422.018 153.27C422.018 157.103 420.944 160.017 418.798 162.01C416.804 164.003 413.891 165 410.058 165H327.948ZM527.289 167.3C509.349 167.3 494.169 163.927 481.749 157.18C469.483 150.433 460.129 140.85 453.689 128.43C447.249 116.01 444.029 101.29 444.029 84.27C444.029 71.39 445.869 59.8133 449.549 49.54C453.383 39.2667 458.826 30.5267 465.879 23.32C473.086 15.96 481.826 10.3633 492.099 6.53C502.373 2.54333 514.026 0.549992 527.059 0.549992C535.646 0.549992 544.233 1.62333 552.819 3.76999C561.559 5.76333 569.763 9.21333 577.429 14.12C580.036 15.8067 581.723 17.8767 582.489 20.33C583.409 22.7833 583.563 25.3133 582.949 27.92C582.336 30.3733 581.186 32.52 579.499 34.36C577.813 36.2 575.666 37.35 573.059 37.81C570.606 38.27 567.846 37.6567 564.779 35.97C558.953 32.5967 553.049 30.1433 547.069 28.61C541.089 27.0767 534.419 26.31 527.059 26.31C515.713 26.31 506.129 28.61 498.309 33.21C490.489 37.6567 484.586 44.1733 480.599 52.76C476.766 61.3467 474.849 71.85 474.849 84.27C474.849 103.13 479.373 117.467 488.419 127.28C497.466 137.093 510.883 142 528.669 142C534.803 142 541.013 141.387 547.299 140.16C553.586 138.933 559.719 137.247 565.699 135.1L559.949 148.21V99.22H534.649C530.816 99.22 527.826 98.2233 525.679 96.23C523.686 94.2367 522.689 91.5533 522.689 88.18C522.689 84.6533 523.686 81.97 525.679 80.13C527.826 78.29 530.816 77.37 534.649 77.37H572.599C576.433 77.37 579.346 78.4433 581.339 80.59C583.486 82.5833 584.559 85.4967 584.559 89.33V145.22C584.559 148.593 583.869 151.43 582.489 153.73C581.263 156.03 579.193 157.717 576.279 158.79C569.533 161.243 561.789 163.313 553.049 165C544.309 166.533 535.723 167.3 527.289 167.3ZM633.395 166.84C628.642 166.84 624.962 165.537 622.355 162.93C619.902 160.17 618.675 156.413 618.675 151.66V17.8C618.675 12.8933 619.978 9.21332 622.585 6.75999C625.192 4.15332 628.872 2.84999 633.625 2.84999H689.055C706.842 2.84999 720.565 7.14332 730.225 15.73C739.885 24.1633 744.715 36.0467 744.715 51.38C744.715 61.3467 742.492 69.9333 738.045 77.14C733.752 84.3467 727.465 89.8667 719.185 93.7C710.905 97.5333 700.862 99.45 689.055 99.45L691.125 96H698.715C705.002 96 710.445 97.5333 715.045 100.6C719.798 103.667 723.938 108.497 727.465 115.09L744.715 147.06C746.555 150.28 747.398 153.423 747.245 156.49C747.092 159.557 745.942 162.087 743.795 164.08C741.648 165.92 738.505 166.84 734.365 166.84C730.225 166.84 726.852 165.997 724.245 164.31C721.638 162.47 719.338 159.71 717.345 156.03L694.115 113.25C691.355 108.037 688.058 104.587 684.225 102.9C680.545 101.06 675.792 100.14 669.965 100.14H648.115V151.66C648.115 156.413 646.888 160.17 644.435 162.93C641.982 165.537 638.302 166.84 633.395 166.84ZM648.115 78.29H683.995C694.575 78.29 702.548 76.1433 707.915 71.85C713.435 67.4033 716.195 60.81 716.195 52.07C716.195 43.4833 713.435 37.0433 707.915 32.75C702.548 28.3033 694.575 26.08 683.995 26.08H648.115V78.29ZM791.071 166.84C786.317 166.84 782.637 165.537 780.031 162.93C777.577 160.17 776.351 156.413 776.351 151.66V16.19C776.351 11.2833 777.577 7.52666 780.031 4.91999C782.637 2.31332 786.317 1.00999 791.071 1.00999C795.824 1.00999 799.427 2.31332 801.881 4.91999C804.487 7.52666 805.791 11.2833 805.791 16.19V151.66C805.791 156.413 804.564 160.17 802.111 162.93C799.657 165.537 795.977 166.84 791.071 166.84ZM842.873 166.84C839.193 166.84 836.203 165.997 833.903 164.31C831.756 162.623 830.453 160.4 829.993 157.64C829.533 154.727 830.069 151.507 831.603 147.98L892.323 13.43C894.316 8.98333 896.693 5.83999 899.453 3.99999C902.366 2.00665 905.663 1.00999 909.343 1.00999C912.869 1.00999 916.013 2.00665 918.773 3.99999C921.686 5.83999 924.139 8.98333 926.133 13.43L987.083 147.98C988.769 151.507 989.383 154.727 988.923 157.64C988.463 160.553 987.159 162.853 985.013 164.54C982.866 166.073 980.029 166.84 976.503 166.84C972.209 166.84 968.836 165.843 966.383 163.85C964.083 161.703 962.013 158.483 960.173 154.19L945.223 119.46L957.643 127.51H860.583L873.003 119.46L858.283 154.19C856.289 158.637 854.219 161.857 852.073 163.85C849.926 165.843 846.859 166.84 842.873 166.84ZM908.883 34.82L876.683 111.41L870.703 104.05H947.523L941.773 111.41L909.343 34.82H908.883Z" fill="black" fill-opacity="0.06"/>
</g>
<defs>
<filter id="filter0_i_20_725" x="0.0449219" y="0.549995" width="989.568" height="170.75" filterUnits="userSpaceOnUse" color-interpolation-filters="sRGB">
<feFlood flood-opacity="0" result="BackgroundImageFix"/>
<feBlend mode="normal" in="SourceGraphic" in2="BackgroundImageFix" result="shape"/>
<feColorMatrix in="SourceAlpha" type="matrix" values="0 0 0 0 0 0 0 0 0 0 0 0 0 0 0 0 0 0 127 0" result="hardAlpha"/>
<feOffset dy="4"/>
<feGaussianBlur stdDeviation="2"/>
<feComposite in2="hardAlpha" operator="arithmetic" k2="-1" k3="1"/>
<feColorMatrix type="matrix" values="0 0 0 0 0 0 0 0 0 0 0 0 0 0 0 0 0 0 0.25 0"/>
<feBlend mode="normal" in2="shape" result="effect1_innerShadow_20_725"/>
</filter>
</defs>
</svg>
