<svg id="visual" viewBox="0 0 360 1027" width="360" height="1027" xmlns="http://www.w3.org/2000/svg" xmlns:xlink="http://www.w3.org/1999/xlink" version="1.1"><path d="M0 83L20 83L20 104L40 104L40 114L60 114L60 93L80 93L80 104L100 104L100 83L120 83L120 104L140 104L140 93L160 93L160 93L180 93L180 83L200 83L200 104L220 104L220 83L240 83L240 73L260 73L260 93L280 93L280 83L300 83L300 83L320 83L320 104L340 104L340 83L360 83L360 104L360 0L360 0L340 0L340 0L320 0L320 0L300 0L300 0L280 0L280 0L260 0L260 0L240 0L240 0L220 0L220 0L200 0L200 0L180 0L180 0L160 0L160 0L140 0L140 0L120 0L120 0L100 0L100 0L80 0L80 0L60 0L60 0L40 0L40 0L20 0L20 0L0 0Z" fill="#fa7268"></path><path d="M0 289L20 289L20 258L40 258L40 330L60 330L60 299L80 299L80 299L100 299L100 299L120 299L120 299L140 299L140 278L160 278L160 247L180 247L180 247L200 247L200 278L220 278L220 258L240 258L240 247L260 247L260 330L280 330L280 268L300 268L300 299L320 299L320 289L340 289L340 258L360 258L360 330L360 102L360 81L340 81L340 102L320 102L320 81L300 81L300 81L280 81L280 91L260 91L260 71L240 71L240 81L220 81L220 102L200 102L200 81L180 81L180 91L160 91L160 91L140 91L140 102L120 102L120 81L100 81L100 102L80 102L80 91L60 91L60 112L40 112L40 102L20 102L20 81L0 81Z" fill="#fc7764"></path><path d="M0 319L20 319L20 299L40 299L40 371L60 371L60 330L80 330L80 330L100 330L100 330L120 330L120 340L140 340L140 319L160 319L160 289L180 289L180 289L200 289L200 309L220 309L220 289L240 289L240 289L260 289L260 360L280 360L280 299L300 299L300 330L320 330L320 330L340 330L340 289L360 289L360 371L360 328L360 256L340 256L340 287L320 287L320 297L300 297L300 266L280 266L280 328L260 328L260 245L240 245L240 256L220 256L220 276L200 276L200 245L180 245L180 245L160 245L160 276L140 276L140 297L120 297L120 297L100 297L100 297L80 297L80 297L60 297L60 328L40 328L40 256L20 256L20 287L0 287Z" fill="#fd7c60"></path><path d="M0 381L20 381L20 350L40 350L40 422L60 422L60 381L80 381L80 391L100 391L100 391L120 391L120 412L140 412L140 371L160 371L160 350L180 350L180 340L200 340L200 371L220 371L220 340L240 340L240 350L260 350L260 412L280 412L280 350L300 350L300 391L320 391L320 391L340 391L340 350L360 350L360 422L360 369L360 287L340 287L340 328L320 328L320 328L300 328L300 297L280 297L280 358L260 358L260 287L240 287L240 287L220 287L220 307L200 307L200 287L180 287L180 287L160 287L160 317L140 317L140 338L120 338L120 328L100 328L100 328L80 328L80 328L60 328L60 369L40 369L40 297L20 297L20 317L0 317Z" fill="#fe815c"></path><path d="M0 422L20 422L20 402L40 402L40 463L60 463L60 422L80 422L80 432L100 432L100 432L120 432L120 453L140 453L140 412L160 412L160 391L180 391L180 391L200 391L200 412L220 412L220 381L240 381L240 391L260 391L260 453L280 453L280 391L300 391L300 432L320 432L320 443L340 443L340 402L360 402L360 473L360 420L360 348L340 348L340 389L320 389L320 389L300 389L300 348L280 348L280 410L260 410L260 348L240 348L240 338L220 338L220 369L200 369L200 338L180 338L180 348L160 348L160 369L140 369L140 410L120 410L120 389L100 389L100 389L80 389L80 379L60 379L60 420L40 420L40 348L20 348L20 379L0 379Z" fill="#ff8658"></path><path d="M0 463L20 463L20 432L40 432L40 494L60 494L60 463L80 463L80 473L100 473L100 463L120 463L120 484L140 484L140 443L160 443L160 422L180 422L180 432L200 432L200 443L220 443L220 412L240 412L240 432L260 432L260 484L280 484L280 422L300 422L300 473L320 473L320 484L340 484L340 443L360 443L360 515L360 471L360 400L340 400L340 441L320 441L320 430L300 430L300 389L280 389L280 451L260 451L260 389L240 389L240 379L220 379L220 410L200 410L200 389L180 389L180 389L160 389L160 410L140 410L140 451L120 451L120 430L100 430L100 430L80 430L80 420L60 420L60 461L40 461L40 400L20 400L20 420L0 420Z" fill="#ff8b55"></path><path d="M0 669L20 669L20 679L40 679L40 689L60 689L60 710L80 710L80 669L100 669L100 679L120 679L120 710L140 710L140 689L160 689L160 658L180 658L180 669L200 669L200 638L220 638L220 679L240 679L240 658L260 658L260 669L280 669L280 658L300 658L300 669L320 669L320 648L340 648L340 679L360 679L360 710L360 513L360 441L340 441L340 482L320 482L320 471L300 471L300 420L280 420L280 482L260 482L260 430L240 430L240 410L220 410L220 441L200 441L200 430L180 430L180 420L160 420L160 441L140 441L140 482L120 482L120 461L100 461L100 471L80 471L80 461L60 461L60 492L40 492L40 430L20 430L20 461L0 461Z" fill="#ff9151"></path><path d="M0 720L20 720L20 730L40 730L40 740L60 740L60 761L80 761L80 710L100 710L100 720L120 720L120 751L140 751L140 740L160 740L160 699L180 699L180 720L200 720L200 679L220 679L220 720L240 720L240 710L260 710L260 720L280 720L280 699L300 699L300 720L320 720L320 699L340 699L340 720L360 720L360 751L360 708L360 677L340 677L340 646L320 646L320 667L300 667L300 656L280 656L280 667L260 667L260 656L240 656L240 677L220 677L220 636L200 636L200 667L180 667L180 656L160 656L160 687L140 687L140 708L120 708L120 677L100 677L100 667L80 667L80 708L60 708L60 687L40 687L40 677L20 677L20 667L0 667Z" fill="#ff964e"></path><path d="M0 802L20 802L20 802L40 802L40 802L60 802L60 823L80 823L80 792L100 792L100 802L120 802L120 833L140 833L140 823L160 823L160 792L180 792L180 792L200 792L200 771L220 771L220 802L240 802L240 792L260 792L260 802L280 802L280 782L300 782L300 792L320 792L320 782L340 782L340 782L360 782L360 812L360 749L360 718L340 718L340 697L320 697L320 718L300 718L300 697L280 697L280 718L260 718L260 708L240 708L240 718L220 718L220 677L200 677L200 718L180 718L180 697L160 697L160 738L140 738L140 749L120 749L120 718L100 718L100 708L80 708L80 759L60 759L60 738L40 738L40 728L20 728L20 718L0 718Z" fill="#ff9c4b"></path><path d="M0 874L20 874L20 874L40 874L40 853L60 853L60 884L80 884L80 864L100 864L100 874L120 874L120 884L140 884L140 884L160 884L160 853L180 853L180 864L200 864L200 843L220 843L220 884L240 884L240 853L260 853L260 884L280 884L280 853L300 853L300 853L320 853L320 833L340 833L340 833L360 833L360 884L360 810L360 780L340 780L340 780L320 780L320 790L300 790L300 780L280 780L280 800L260 800L260 790L240 790L240 800L220 800L220 769L200 769L200 790L180 790L180 790L160 790L160 821L140 821L140 831L120 831L120 800L100 800L100 790L80 790L80 821L60 821L60 800L40 800L40 800L20 800L20 800L0 800Z" fill="#ffa248"></path><path d="M0 977L20 977L20 987L40 987L40 966L60 966L60 987L80 987L80 966L100 966L100 977L120 977L120 987L140 987L140 987L160 987L160 977L180 977L180 966L200 966L200 966L220 966L220 987L240 987L240 977L260 977L260 987L280 987L280 987L300 987L300 987L320 987L320 966L340 966L340 966L360 966L360 987L360 882L360 831L340 831L340 831L320 831L320 851L300 851L300 851L280 851L280 882L260 882L260 851L240 851L240 882L220 882L220 841L200 841L200 862L180 862L180 851L160 851L160 882L140 882L140 882L120 882L120 872L100 872L100 862L80 862L80 882L60 882L60 851L40 851L40 872L20 872L20 872L0 872Z" fill="#ffa845"></path><path d="M0 1028L20 1028L20 1028L40 1028L40 1028L60 1028L60 1028L80 1028L80 1028L100 1028L100 1028L120 1028L120 1028L140 1028L140 1028L160 1028L160 1028L180 1028L180 1028L200 1028L200 1028L220 1028L220 1028L240 1028L240 1028L260 1028L260 1028L280 1028L280 1028L300 1028L300 1028L320 1028L320 1028L340 1028L340 1028L360 1028L360 1028L360 985L360 964L340 964L340 964L320 964L320 985L300 985L300 985L280 985L280 985L260 985L260 975L240 975L240 985L220 985L220 964L200 964L200 964L180 964L180 975L160 975L160 985L140 985L140 985L120 985L120 975L100 975L100 964L80 964L80 985L60 985L60 964L40 964L40 985L20 985L20 975L0 975Z" fill="#ffae42"></path></svg>