<svg width="1096" height="2907" viewBox="0 0 1096 2907" fill="none" xmlns="http://www.w3.org/2000/svg">
<g clip-path="url(#clip0_88_2)">
<path d="M0 762H60.9948V810H121.99H182.984H243.979H304.021H365.016V762H426.01H487.005V810H548H608.995H669.99V786H730.984H791.979H852.021V810H913.016V762H974.01V810H1035.01H1096V762V468H1035.01H974.01H913.016H852.021H791.979H730.984H669.99H608.995H548H487.005H426.01H365.016H304.021H243.979H182.984H121.99H60.9948H0V762Z" fill="#FFAE42"/>
<path d="M0 1006H60.9948V1054H121.99V1079H182.984H243.979V1030H304.021V1079H365.016V981H426.01V1030H487.005V1079H548V1054H608.995H669.99V1030H730.984H791.979V1054H852.021H913.016V1006H974.01V1030H1035.01V1079H1096V1006V760V808H1035.01H974.01V760H913.016V808H852.021V784H791.979H730.984H669.99V808H608.995H548H487.005V760H426.01H365.016V808H304.021H243.979H182.984H121.99H60.9948V760H0V1006Z" fill="#FFA646"/>
<path d="M0 1225H60.9948V1249H121.99V1274H182.984H243.979V1249H304.021V1298H365.016V1201H426.01V1225H487.005V1274H548V1249H608.995V1274H669.99V1225H730.984H791.979V1274H852.021V1249H913.016V1225H974.01V1249H1035.01V1274H1096V1225V1004V1077H1035.01V1028H974.01V1004H913.016V1052H852.021H791.979V1028H730.984H669.99V1052H608.995H548V1077H487.005V1028H426.01V979H365.016V1077H304.021V1028H243.979V1077H182.984H121.99V1052H60.9948V1004H0V1225Z" fill="#FF9E4A"/>
<path d="M0 1762H60.9948V1835H121.99V1859H182.984V1762H243.979V1835H304.021V1810H365.016H426.01V1737H487.005V1859H548V1762H608.995V1859H669.99V1786H730.984V1835H791.979V1859H852.021V1762H913.016V1786H974.01V1810H1035.01V1835H1096V1223V1272H1035.01V1247H974.01V1223H913.016V1247H852.021V1272H791.979V1223H730.984H669.99V1272H608.995V1247H548V1272H487.005V1223H426.01V1199H365.016V1296H304.021V1247H243.979V1272H182.984H121.99V1247H60.9948V1223H0V1762Z" fill="#FF964E"/>
<path d="M0 1908H60.9948V1981H121.99V2006H182.984V1932H243.979V2006H304.021V1981H365.016H426.01V1908H487.005V2006H548V1932H608.995V2006H669.99V1957H730.984V1981H791.979V2006H852.021V1908H913.016V1932H974.01V1981H1035.01V2006H1096V1981V1833H1035.01V1808H974.01V1784H913.016V1760H852.021V1857H791.979V1833H730.984V1784H669.99V1857H608.995V1760H548V1857H487.005V1735H426.01V1808H365.016H304.021V1833H243.979V1760H182.984V1857H121.99V1833H60.9948V1760H0V1908Z" fill="#FF8E53"/>
<path d="M0 2030H60.9948V2103H121.99V2128H182.984V2054H243.979V2128H304.021V2103H365.016H426.01V2030H487.005V2128H548V2054H608.995V2128H669.99V2079H730.984V2103H791.979V2128H852.021V2030H913.016V2054H974.01V2103H1035.01V2128H1096V2103V1979V2004H1035.01V1979H974.01V1930H913.016V1906H852.021V2004H791.979V1979H730.984V1955H669.99V2004H608.995V1930H548V2004H487.005V1906H426.01V1979H365.016H304.021V2004H243.979V1930H182.984V2004H121.99V1979H60.9948V1906H0V2030Z" fill="#FF8758"/>
<path d="M0 2201H60.9948V2274H121.99V2298H182.984V2249H243.979V2323H304.021V2274H365.016V2298H426.01V2225H487.005V2298H548V2225H608.995V2298H669.99V2274H730.984H791.979V2298H852.021V2201H913.016V2249H974.01V2274H1035.01V2323H1096V2274V2101V2126H1035.01V2101H974.01V2052H913.016V2028H852.021V2126H791.979V2101H730.984V2077H669.99V2126H608.995V2052H548V2126H487.005V2028H426.01V2101H365.016H304.021V2126H243.979V2052H182.984V2126H121.99V2101H60.9948V2028H0V2201Z" fill="#FE7F5D"/>
<path d="M0 2762H60.9948H121.99H182.984H243.979H304.021H365.016H426.01H487.005H548H608.995H669.99H730.984H791.979H852.021H913.016H974.01H1035.01H1096V2272V2321H1035.01V2272H974.01V2247H913.016V2199H852.021V2296H791.979V2272H730.984H669.99V2296H608.995V2223H548V2296H487.005V2223H426.01V2296H365.016V2272H304.021V2321H243.979V2247H182.984V2296H121.99V2272H60.9948V2199H0V2762Z" fill="#FC7962"/>
<path d="M0 2908H60.9948H121.99H182.984H243.979H304.021H365.016H426.01H487.005H548H608.995H669.99H730.984H791.979H852.021H913.016H974.01H1035.01H1096V2760H1035.01H974.01H913.016H852.021H791.979H730.984H669.99H608.995H548H487.005H426.01H365.016H304.021H243.979H182.984H121.99H60.9948H0V2908Z" fill="#FA7268"/>
</g>
<g clip-path="url(#clip1_88_2)">
<path d="M0 367.263L26.03 370.106C52.1742 372.948 104.234 378.633 156.408 393.187C208.582 407.855 260.642 431.278 312.817 437.532C364.991 443.786 417.051 432.87 469.453 432.074C521.742 431.278 574.258 440.829 626.547 435.713C678.949 430.596 731.009 410.811 783.183 409.674C835.357 408.537 887.417 426.048 939.592 430.937C991.766 435.826 1043.83 428.322 1069.97 424.456L1096 420.704V615.137H1069.97C1043.83 615.137 991.766 615.137 939.592 615.137C887.417 615.137 835.357 615.137 783.183 615.137C731.009 615.137 678.949 615.137 626.547 615.137C574.258 615.137 521.742 615.137 469.453 615.137C417.051 615.137 364.991 615.137 312.817 615.137C260.642 615.137 208.582 615.137 156.408 615.137C104.234 615.137 52.1742 615.137 26.03 615.137H0V367.263Z" fill="#FFDEBF"/>
<path d="M0 488.926L26.03 476.419C52.1742 463.911 104.234 438.896 156.408 429.573C208.582 420.363 260.642 426.73 312.817 435.258C364.991 443.786 417.051 454.474 469.453 458.567C521.742 462.774 574.258 460.5 626.547 461.864C678.949 463.115 731.009 468.118 783.183 467.095C835.357 466.185 887.417 459.363 939.592 453.337C991.766 447.197 1043.83 441.966 1069.97 439.237L1096 436.622V615.137H1069.97C1043.83 615.137 991.766 615.137 939.592 615.137C887.417 615.137 835.357 615.137 783.183 615.137C731.009 615.137 678.949 615.137 626.547 615.137C574.258 615.137 521.742 615.137 469.453 615.137C417.051 615.137 364.991 615.137 312.817 615.137C260.642 615.137 208.582 615.137 156.408 615.137C104.234 615.137 52.1742 615.137 26.03 615.137H0V488.926Z" fill="#FFD2A1"/>
<path d="M0 459.363L26.03 459.931C52.1742 460.5 104.234 461.637 156.408 472.098C208.582 482.445 260.642 502.229 312.817 503.707C364.991 505.186 417.051 488.585 469.453 480.057C521.742 471.529 574.258 471.074 626.547 472.666C678.949 474.144 731.009 477.555 783.183 475.623C835.357 473.803 887.417 466.526 939.592 464.252C991.766 461.978 1043.83 464.707 1069.97 465.958L1096 467.322V615.137H1069.97C1043.83 615.137 991.766 615.137 939.592 615.137C887.417 615.137 835.357 615.137 783.183 615.137C731.009 615.137 678.949 615.137 626.547 615.137C574.258 615.137 521.742 615.137 469.453 615.137C417.051 615.137 364.991 615.137 312.817 615.137C260.642 615.137 208.582 615.137 156.408 615.137C104.234 615.137 52.1742 615.137 26.03 615.137H0V459.363Z" fill="#FFC683"/>
<path d="M0 520.763L26.03 522.81C52.1742 524.97 104.234 529.063 156.408 529.291C208.582 529.518 260.642 525.652 312.817 527.358C364.991 529.063 417.051 536.34 469.453 534.635C521.742 532.929 574.258 522.241 626.547 515.646C678.949 509.051 731.009 506.323 783.183 511.894C835.357 517.352 887.417 530.996 939.592 537.25C991.766 543.504 1043.83 542.367 1069.97 541.798L1096 541.23V615.137H1069.97C1043.83 615.137 991.766 615.137 939.592 615.137C887.417 615.137 835.357 615.137 783.183 615.137C731.009 615.137 678.949 615.137 626.547 615.137C574.258 615.137 521.742 615.137 469.453 615.137C417.051 615.137 364.991 615.137 312.817 615.137C260.642 615.137 208.582 615.137 156.408 615.137C104.234 615.137 52.1742 615.137 26.03 615.137H0V520.763Z" fill="#FFBA64"/>
<path d="M0 560.559L26.03 559.991C52.1742 559.422 104.234 558.285 156.408 555.443C208.582 552.6 260.642 548.052 312.817 550.667C364.991 553.396 417.051 563.174 469.453 567.381C521.742 571.588 574.258 569.997 626.547 564.311C678.949 558.626 731.009 548.848 783.183 543.845C835.357 538.956 887.417 538.956 939.592 542.367C991.766 545.778 1043.83 552.6 1069.97 556.011L1096 559.422V615.137H1069.97C1043.83 615.137 991.766 615.137 939.592 615.137C887.417 615.137 835.357 615.137 783.183 615.137C731.009 615.137 678.949 615.137 626.547 615.137C574.258 615.137 521.742 615.137 469.453 615.137C417.051 615.137 364.991 615.137 312.817 615.137C260.642 615.137 208.582 615.137 156.408 615.137C104.234 615.137 52.1742 615.137 26.03 615.137H0V560.559Z" fill="#FFAE42"/>
</g>
<defs>
<clipPath id="clip0_88_2">
<rect width="1096" height="2439" fill="white" transform="translate(0 468)"/>
</clipPath>
<clipPath id="clip1_88_2">
<rect width="1096" height="614" fill="white"/>
</clipPath>
</defs>
</svg>
