<svg width="432" height="324" viewBox="0 0 432 324" fill="none" xmlns="http://www.w3.org/2000/svg">
<g filter="url(#filter0_i_172_116)">
<path d="M283.5 175.5C283.5 193.402 276.388 210.571 263.73 223.23C251.071 235.888 233.902 243 216 243C198.098 243 180.929 235.888 168.27 223.23C155.612 210.571 148.5 193.402 148.5 175.5C148.5 157.598 155.612 140.429 168.27 127.77C180.929 115.112 198.098 108 216 108C233.902 108 251.071 115.112 263.73 127.77C276.388 140.429 283.5 157.598 283.5 175.5V175.5Z" fill="black" fill-opacity="0.03"/>
<path d="M54 54C39.6783 54 25.9432 59.6893 15.8162 69.8162C5.68927 79.9432 0 93.6783 0 108L0 270C0 284.322 5.68927 298.057 15.8162 308.184C25.9432 318.311 39.6783 324 54 324H378C392.322 324 406.057 318.311 416.184 308.184C426.311 298.057 432 284.322 432 270V108C432 93.6783 426.311 79.9432 416.184 69.8162C406.057 59.6893 392.322 54 378 54H346.356C332.035 53.9969 318.303 48.3057 308.178 38.178L285.822 15.822C275.697 5.69433 261.965 0.00305842 247.644 0H184.356C170.035 0.00305842 156.303 5.69433 146.178 15.822L123.822 38.178C113.697 48.3057 99.9645 53.9969 85.644 54H54ZM67.5 108C63.9196 108 60.4858 106.578 57.9541 104.046C55.4223 101.514 54 98.0804 54 94.5C54 90.9196 55.4223 87.4858 57.9541 84.9541C60.4858 82.4223 63.9196 81 67.5 81C71.0804 81 74.5142 82.4223 77.0459 84.9541C79.5777 87.4858 81 90.9196 81 94.5C81 98.0804 79.5777 101.514 77.0459 104.046C74.5142 106.578 71.0804 108 67.5 108ZM310.5 175.5C310.5 200.563 300.544 224.599 282.822 242.322C265.099 260.044 241.063 270 216 270C190.937 270 166.901 260.044 149.178 242.322C131.456 224.599 121.5 200.563 121.5 175.5C121.5 150.437 131.456 126.401 149.178 108.678C166.901 90.9562 190.937 81 216 81C241.063 81 265.099 90.9562 282.822 108.678C300.544 126.401 310.5 150.437 310.5 175.5V175.5Z" fill="black" fill-opacity="0.03"/>
</g>
<defs>
<filter id="filter0_i_172_116" x="0" y="0" width="432" height="328" filterUnits="userSpaceOnUse" color-interpolation-filters="sRGB">
<feFlood flood-opacity="0" result="BackgroundImageFix"/>
<feBlend mode="normal" in="SourceGraphic" in2="BackgroundImageFix" result="shape"/>
<feColorMatrix in="SourceAlpha" type="matrix" values="0 0 0 0 0 0 0 0 0 0 0 0 0 0 0 0 0 0 127 0" result="hardAlpha"/>
<feOffset dy="4"/>
<feGaussianBlur stdDeviation="2"/>
<feComposite in2="hardAlpha" operator="arithmetic" k2="-1" k3="1"/>
<feColorMatrix type="matrix" values="0 0 0 0 0 0 0 0 0 0 0 0 0 0 0 0 0 0 0.1 0"/>
<feBlend mode="normal" in2="shape" result="effect1_innerShadow_172_116"/>
</filter>
</defs>
</svg>
