<svg width="1116" height="1341" viewBox="0 0 1116 1341" fill="none" xmlns="http://www.w3.org/2000/svg">
<circle cx="1022.55" cy="238.57" r="8.72727" transform="rotate(24.62 1022.55 238.57)" fill="#FA7268" fill-opacity="0.1"/>
<circle cx="1008.36" cy="269.55" r="8.72727" transform="rotate(24.62 1008.36 269.55)" fill="#FA7268" fill-opacity="0.1"/>
<circle cx="994.16" cy="300.53" r="8.72727" transform="rotate(24.62 994.16 300.53)" fill="#FA7268" fill-opacity="0.1"/>
<circle cx="979.963" cy="331.509" r="8.72727" transform="rotate(24.62 979.963 331.509)" fill="#FA7268" fill-opacity="0.1"/>
<circle cx="965.766" cy="362.489" r="8.72727" transform="rotate(24.62 965.766 362.489)" fill="#FA7268" fill-opacity="0.1"/>
<circle cx="951.57" cy="393.469" r="8.72727" transform="rotate(24.62 951.57 393.469)" fill="#FA7268" fill-opacity="0.1"/>
<circle cx="1049" cy="250.689" r="8.72727" transform="rotate(24.62 1049 250.689)" fill="#FA7268" fill-opacity="0.1"/>
<circle cx="1034.8" cy="281.669" r="8.72727" transform="rotate(24.62 1034.8 281.669)" fill="#FA7268" fill-opacity="0.1"/>
<circle cx="1020.61" cy="312.649" r="8.72727" transform="rotate(24.62 1020.61 312.649)" fill="#FA7268" fill-opacity="0.1"/>
<circle cx="1006.41" cy="343.629" r="8.72727" transform="rotate(24.62 1006.41 343.629)" fill="#FA7268" fill-opacity="0.1"/>
<circle cx="992.213" cy="374.608" r="8.72727" transform="rotate(24.62 992.213 374.608)" fill="#FA7268" fill-opacity="0.1"/>
<circle cx="978.016" cy="405.588" r="8.72727" transform="rotate(24.62 978.016 405.588)" fill="#FA7268" fill-opacity="0.1"/>
<circle cx="1075.45" cy="262.808" r="8.72727" transform="rotate(24.62 1075.45 262.808)" fill="#FA7268" fill-opacity="0.1"/>
<circle cx="1061.25" cy="293.788" r="8.72727" transform="rotate(24.62 1061.25 293.788)" fill="#FA7268" fill-opacity="0.1"/>
<circle cx="1047.05" cy="324.768" r="8.72727" transform="rotate(24.62 1047.05 324.768)" fill="#FA7268" fill-opacity="0.1"/>
<circle cx="1032.86" cy="355.748" r="8.72727" transform="rotate(24.62 1032.86 355.748)" fill="#FA7268" fill-opacity="0.1"/>
<circle cx="1018.66" cy="386.728" r="8.72727" transform="rotate(24.62 1018.66 386.728)" fill="#FA7268" fill-opacity="0.1"/>
<circle cx="1004.46" cy="417.708" r="8.72727" transform="rotate(24.62 1004.46 417.708)" fill="#FA7268" fill-opacity="0.1"/>
<circle cx="1101.89" cy="274.927" r="8.72727" transform="rotate(24.62 1101.89 274.927)" fill="#FA7268" fill-opacity="0.1"/>
<circle cx="1087.7" cy="305.907" r="8.72727" transform="rotate(24.62 1087.7 305.907)" fill="#FA7268" fill-opacity="0.1"/>
<circle cx="1073.5" cy="336.887" r="8.72727" transform="rotate(24.62 1073.5 336.887)" fill="#FA7268" fill-opacity="0.1"/>
<circle cx="1059.3" cy="367.867" r="8.72727" transform="rotate(24.62 1059.3 367.867)" fill="#FA7268" fill-opacity="0.1"/>
<circle cx="1045.11" cy="398.847" r="8.72727" transform="rotate(24.62 1045.11 398.847)" fill="#FA7268" fill-opacity="0.1"/>
<circle cx="1030.91" cy="429.827" r="8.72727" transform="rotate(24.62 1030.91 429.827)" fill="#FA7268" fill-opacity="0.1"/>
<circle cx="1114.14" cy="318.026" r="8.72727" transform="rotate(24.62 1114.14 318.026)" fill="#FA7268" fill-opacity="0.1"/>
<circle cx="1099.95" cy="349.006" r="8.72727" transform="rotate(24.62 1099.95 349.006)" fill="#FA7268" fill-opacity="0.1"/>
<circle cx="1085.75" cy="379.986" r="8.72727" transform="rotate(24.62 1085.75 379.986)" fill="#FA7268" fill-opacity="0.1"/>
<circle cx="1071.55" cy="410.966" r="8.72727" transform="rotate(24.62 1071.55 410.966)" fill="#FA7268" fill-opacity="0.1"/>
<circle cx="1057.35" cy="441.946" r="8.72727" transform="rotate(24.62 1057.35 441.946)" fill="#FA7268" fill-opacity="0.1"/>
<circle cx="1126.39" cy="361.126" r="8.72727" transform="rotate(24.62 1126.39 361.126)" fill="#FA7268" fill-opacity="0.1"/>
<circle cx="1112.19" cy="392.106" r="8.72727" transform="rotate(24.62 1112.19 392.106)" fill="#FA7268" fill-opacity="0.1"/>
<circle cx="1098" cy="423.085" r="8.72727" transform="rotate(24.62 1098 423.085)" fill="#FA7268" fill-opacity="0.1"/>
<circle cx="1083.8" cy="454.065" r="8.72727" transform="rotate(24.62 1083.8 454.065)" fill="#FA7268" fill-opacity="0.1"/>
<circle cx="1124.44" cy="435.205" r="8.72727" transform="rotate(24.62 1124.44 435.205)" fill="#FA7268" fill-opacity="0.1"/>
<circle cx="1110.25" cy="466.185" r="8.72727" transform="rotate(24.62 1110.25 466.185)" fill="#FA7268" fill-opacity="0.1"/>
<g clip-path="url(#clip0_191_104)">
<path d="M49 460L75 454.8C101 449.7 153 439.3 205 440.5C257 441.7 309 454.3 361 451.3C413 448.3 465 429.7 516.8 426.8C568.7 424 620.3 437 672.2 447.5C724 458 776 466 828 464.2C880 462.3 932 450.7 984 442.7C1036 434.7 1088 430.3 1114 428.2L1140 426V615H1114C1088 615 1036 615 984 615C932 615 880 615 828 615C776 615 724 615 672.2 615C620.3 615 568.7 615 516.8 615C465 615 413 615 361 615C309 615 257 615 205 615C153 615 101 615 75 615H49L49 460Z" fill="#FFDEBF"/>
<path d="M49 460L75 465.7C101 471.3 153 482.7 205 482.3C257 482 309 470 361 469C413 468 465 478 516.8 483.5C568.7 489 620.3 490 672.2 487.8C724 485.7 776 480.3 828 479C880 477.7 932 480.3 984 473.8C1036 467.3 1088 451.7 1114 443.8L1140 436V615H1114C1088 615 1036 615 984 615C932 615 880 615 828 615C776 615 724 615 672.2 615C620.3 615 568.7 615 516.8 615C465 615 413 615 361 615C309 615 257 615 205 615C153 615 101 615 75 615H49L49 460Z" fill="#FED0AD"/>
<path d="M49 464L75 469.7C101 475.3 153 486.7 205 486.5C257 486.3 309 474.7 361 477.2C413 479.7 465 496.3 516.8 502.7C568.7 509 620.3 505 672.2 502.5C724 500 776 499 828 496.8C880 494.7 932 491.3 984 493.2C1036 495 1088 502 1114 505.5L1140 509V615H1114C1088 615 1036 615 984 615C932 615 880 615 828 615C776 615 724 615 672.2 615C620.3 615 568.7 615 516.8 615C465 615 413 615 361 615C309 615 257 615 205 615C153 615 101 615 75 615H49L49 464Z" fill="#FEC29C"/>
<path d="M49 507L75 507.5C101 508 153 509 205 506.2C257 503.3 309 496.7 361 493.3C413 490 465 490 516.8 490.3C568.7 490.7 620.3 491.3 672.2 493.5C724 495.7 776 499.3 828 504.5C880 509.7 932 516.3 984 516.5C1036 516.7 1088 510.3 1114 507.2L1140 504V615H1114C1088 615 1036 615 984 615C932 615 880 615 828 615C776 615 724 615 672.2 615C620.3 615 568.7 615 516.8 615C465 615 413 615 361 615C309 615 257 615 205 615C153 615 101 615 75 615H49L49 507Z" fill="#FDB48E"/>
<path d="M49 543L75 540.3C101 537.7 153 532.3 205 525.5C257 518.7 309 510.3 361 508.7C413 507 465 512 516.8 517.7C568.7 523.3 620.3 529.7 672.2 532C724 534.3 776 532.7 828 532.7C880 532.7 932 534.3 984 531.3C1036 528.3 1088 520.7 1114 516.8L1140 513V615H1114C1088 615 1036 615 984 615C932 615 880 615 828 615C776 615 724 615 672.2 615C620.3 615 568.7 615 516.8 615C465 615 413 615 361 615C309 615 257 615 205 615C153 615 101 615 75 615H49L49 543Z" fill="#FDA481"/>
<path d="M49 531L75 532.2C101 533.3 153 535.7 205 540.3C257 545 309 552 361 556C413 560 465 561 516.8 559C568.7 557 620.3 552 672.2 548.2C724 544.3 776 541.7 828 541C880 540.3 932 541.7 984 544.8C1036 548 1088 553 1114 555.5L1140 558V615H1114C1088 615 1036 615 984 615C932 615 880 615 828 615C776 615 724 615 672.2 615C620.3 615 568.7 615 516.8 615C465 615 413 615 361 615C309 615 257 615 205 615C153 615 101 615 75 615H49L49 531Z" fill="#FC9576"/>
<path d="M49 549L75 552.2C101 555.3 153 561.7 205 565.3C257 569 309 570 361 570.7C413 571.3 465 571.7 516.8 569.3C568.7 567 620.3 562 672.2 562C724 562 776 567 828 568.3C880 569.7 932 567.3 984 564.2C1036 561 1088 557 1114 555L1140 553V615H1114C1088 615 1036 615 984 615C932 615 880 615 828 615C776 615 724 615 672.2 615C620.3 615 568.7 615 516.8 615C465 615 413 615 361 615C309 615 257 615 205 615C153 615 101 615 75 615H49L49 549Z" fill="#FB846E"/>
<path d="M49 593L75 591C101 589 153 585 205 583.8C257 582.7 309 584.3 361 586.5C413 588.7 465 591.3 516.8 592.3C568.7 593.3 620.3 592.7 672.2 591.5C724 590.3 776 588.7 828 589.3C880 590 932 593 984 591C1036 589 1088 582 1114 578.5L1140 575V615H1114C1088 615 1036 615 984 615C932 615 880 615 828 615C776 615 724 615 672.2 615C620.3 615 568.7 615 516.8 615C465 615 413 615 361 615C309 615 257 615 205 615C153 615 101 615 75 615H49V593Z" fill="#FA7268"/>
</g>
<rect x="1156" y="823" width="1126" height="222" transform="rotate(-180 1156 823)" fill="#FA7268"/>
<rect x="12" y="586" width="1120" height="757" fill="url(#paint0_linear_191_104)"/>
<g style="mix-blend-mode:soft-light" filter="url(#filter0_ddd_191_104)">
<path fill-rule="evenodd" clip-rule="evenodd" d="M243.213 994C294.766 994.1 340.677 1021.48 377.956 1057.11C416.279 1093.74 456.815 1139.3 450.308 1191.93C444.077 1242.32 390.684 1269.15 348.287 1297.06C316.559 1317.95 280.304 1320.08 243.213 1328.25C186.771 1340.69 127.38 1387.77 78.8251 1356.41C29.0751 1324.28 26.4246 1250.9 32.1532 1191.93C37.351 1138.42 68.748 1093.35 107.95 1056.59C145.629 1021.25 191.572 993.901 243.213 994Z" fill="url(#paint1_linear_191_104)" shape-rendering="crispEdges"/>
</g>
<g style="mix-blend-mode:soft-light" filter="url(#filter1_ddd_191_104)">
<path fill-rule="evenodd" clip-rule="evenodd" d="M954.213 767C1005.77 767.1 1051.68 794.479 1088.96 830.108C1127.28 866.735 1167.81 912.303 1161.31 964.929C1155.08 1015.32 1101.68 1042.15 1059.29 1070.06C1027.56 1090.95 991.304 1093.08 954.213 1101.25C897.771 1113.69 838.38 1160.77 789.825 1129.41C740.075 1097.28 737.425 1023.9 743.153 964.929C748.351 911.421 779.748 866.352 818.95 829.588C856.629 794.254 902.572 766.901 954.213 767Z" fill="url(#paint2_linear_191_104)" shape-rendering="crispEdges"/>
</g>
<defs>
<filter id="filter0_ddd_191_104" x="0" y="968" width="481" height="433" filterUnits="userSpaceOnUse" color-interpolation-filters="sRGB">
<feFlood flood-opacity="0" result="BackgroundImageFix"/>
<feColorMatrix in="SourceAlpha" type="matrix" values="0 0 0 0 0 0 0 0 0 0 0 0 0 0 0 0 0 0 127 0" result="hardAlpha"/>
<feOffset dy="4"/>
<feGaussianBlur stdDeviation="15"/>
<feComposite in2="hardAlpha" operator="out"/>
<feColorMatrix type="matrix" values="0 0 0 0 0 0 0 0 0 0 0 0 0 0 0 0 0 0 0.25 0"/>
<feBlend mode="normal" in2="BackgroundImageFix" result="effect1_dropShadow_191_104"/>
<feColorMatrix in="SourceAlpha" type="matrix" values="0 0 0 0 0 0 0 0 0 0 0 0 0 0 0 0 0 0 127 0" result="hardAlpha"/>
<feOffset dy="4"/>
<feGaussianBlur stdDeviation="15"/>
<feComposite in2="hardAlpha" operator="out"/>
<feColorMatrix type="matrix" values="0 0 0 0 0 0 0 0 0 0 0 0 0 0 0 0 0 0 0.25 0"/>
<feBlend mode="normal" in2="effect1_dropShadow_191_104" result="effect2_dropShadow_191_104"/>
<feColorMatrix in="SourceAlpha" type="matrix" values="0 0 0 0 0 0 0 0 0 0 0 0 0 0 0 0 0 0 127 0" result="hardAlpha"/>
<feOffset dy="4"/>
<feGaussianBlur stdDeviation="15"/>
<feComposite in2="hardAlpha" operator="out"/>
<feColorMatrix type="matrix" values="0 0 0 0 0 0 0 0 0 0 0 0 0 0 0 0 0 0 0.25 0"/>
<feBlend mode="normal" in2="effect2_dropShadow_191_104" result="effect3_dropShadow_191_104"/>
<feBlend mode="normal" in="SourceGraphic" in2="effect3_dropShadow_191_104" result="shape"/>
</filter>
<filter id="filter1_ddd_191_104" x="711" y="741" width="481" height="433" filterUnits="userSpaceOnUse" color-interpolation-filters="sRGB">
<feFlood flood-opacity="0" result="BackgroundImageFix"/>
<feColorMatrix in="SourceAlpha" type="matrix" values="0 0 0 0 0 0 0 0 0 0 0 0 0 0 0 0 0 0 127 0" result="hardAlpha"/>
<feOffset dy="4"/>
<feGaussianBlur stdDeviation="15"/>
<feComposite in2="hardAlpha" operator="out"/>
<feColorMatrix type="matrix" values="0 0 0 0 0 0 0 0 0 0 0 0 0 0 0 0 0 0 0.25 0"/>
<feBlend mode="normal" in2="BackgroundImageFix" result="effect1_dropShadow_191_104"/>
<feColorMatrix in="SourceAlpha" type="matrix" values="0 0 0 0 0 0 0 0 0 0 0 0 0 0 0 0 0 0 127 0" result="hardAlpha"/>
<feOffset dy="4"/>
<feGaussianBlur stdDeviation="15"/>
<feComposite in2="hardAlpha" operator="out"/>
<feColorMatrix type="matrix" values="0 0 0 0 0 0 0 0 0 0 0 0 0 0 0 0 0 0 0.25 0"/>
<feBlend mode="normal" in2="effect1_dropShadow_191_104" result="effect2_dropShadow_191_104"/>
<feColorMatrix in="SourceAlpha" type="matrix" values="0 0 0 0 0 0 0 0 0 0 0 0 0 0 0 0 0 0 127 0" result="hardAlpha"/>
<feOffset dy="4"/>
<feGaussianBlur stdDeviation="15"/>
<feComposite in2="hardAlpha" operator="out"/>
<feColorMatrix type="matrix" values="0 0 0 0 0 0 0 0 0 0 0 0 0 0 0 0 0 0 0.25 0"/>
<feBlend mode="normal" in2="effect2_dropShadow_191_104" result="effect3_dropShadow_191_104"/>
<feBlend mode="normal" in="SourceGraphic" in2="effect3_dropShadow_191_104" result="shape"/>
</filter>
<linearGradient id="paint0_linear_191_104" x1="572" y1="586" x2="572" y2="1343" gradientUnits="userSpaceOnUse">
<stop stop-color="#FA7268"/>
<stop offset="1" stop-color="#FFAE42"/>
</linearGradient>
<linearGradient id="paint1_linear_191_104" x1="240.5" y1="994" x2="240.5" y2="1367" gradientUnits="userSpaceOnUse">
<stop stop-color="#FF8658"/>
<stop offset="1" stop-color="#C4C4C4" stop-opacity="0"/>
</linearGradient>
<linearGradient id="paint2_linear_191_104" x1="951.5" y1="767" x2="951.5" y2="1140" gradientUnits="userSpaceOnUse">
<stop stop-color="#FF8658"/>
<stop offset="1" stop-color="#C4C4C4" stop-opacity="0"/>
</linearGradient>
<clipPath id="clip0_191_104">
<rect width="1091" height="614" fill="white" transform="translate(49)"/>
</clipPath>
</defs>
</svg>
