<svg width="64" height="64" viewBox="0 0 64 64" fill="none" xmlns="http://www.w3.org/2000/svg">
<g filter="url(#filter0_i_151_56)">
<path d="M23.6667 31.1675C26.43 31.1675 28.6667 28.5574 28.6667 25.334C28.6667 22.1106 26.43 19.5005 23.6667 19.5005C20.9033 19.5005 18.6667 22.1139 18.6667 25.334C18.6667 28.5541 20.9067 31.1675 23.6667 31.1675ZM32 0C23.5131 0 15.3737 3.37151 9.37258 9.37283C3.37142 15.3741 0 23.5137 0 32.0008C0.000218781 36.2032 0.82814 40.3645 2.43649 44.2469C4.04485 48.1293 6.40213 51.657 9.37376 54.6283C12.3454 57.5997 15.8732 59.9567 19.7557 61.5647C23.6382 63.1727 27.7994 64.0002 32.0017 64C36.204 63.9998 40.3651 63.1718 44.2474 61.5634C48.1297 59.9551 51.6573 57.5977 54.6286 54.626C57.5999 51.6543 59.9568 48.1264 61.5648 44.2438C63.1727 40.3612 64.0002 36.1999 64 31.9975C64 14.327 49.67 0 32 0ZM32 57.3315C28.6732 57.3315 25.3789 56.6762 22.3054 55.4031C19.2318 54.1299 16.439 52.2638 14.0866 49.9113C11.7342 47.5589 9.86817 44.7661 8.59505 41.6924C7.32193 38.6187 6.66667 35.3244 6.66667 31.9975C6.66667 28.6706 7.32193 25.3763 8.59505 22.3026C9.86817 19.2289 11.7342 16.4361 14.0866 14.0837C16.439 11.7312 19.2318 9.86509 22.3054 8.59194C25.3789 7.31879 28.6732 6.66351 32 6.66351C38.7188 6.66351 45.1624 9.33262 49.9134 14.0837C54.6643 18.8347 57.3333 25.2785 57.3333 31.9975C57.3333 38.7165 54.6643 45.1603 49.9134 49.9113C45.1624 54.6624 38.7188 57.3315 32 57.3315ZM46.47 36.4543C45.8817 36.1575 45.2005 36.1029 44.5724 36.3023C43.9444 36.5017 43.4194 36.9392 43.11 37.521C42.9967 37.7377 40.2133 42.8311 32.0033 42.8311C23.8333 42.8311 21.0333 37.7877 20.8933 37.5243C20.5936 36.9324 20.0711 36.4838 19.4407 36.2772C18.8102 36.0706 18.1235 36.1229 17.5317 36.4226C16.9398 36.7223 16.4912 37.2449 16.2846 37.8753C16.078 38.5058 16.1303 39.1925 16.43 39.7844C16.5967 40.1144 20.59 47.8312 32.0033 47.8312C43.42 47.8312 47.4067 40.111 47.57 39.781C47.8637 39.1937 47.9129 38.514 47.7067 37.8906C47.5006 37.2671 47.0559 36.7507 46.47 36.4543ZM36.1667 27.8341H44.5C45.163 27.8341 45.7989 27.5707 46.2678 27.1018C46.7366 26.633 47 25.9971 47 25.334C47 24.6709 46.7366 24.035 46.2678 23.5662C45.7989 23.0973 45.163 22.8339 44.5 22.8339H36.1667C35.5036 22.8339 34.8677 23.0973 34.3989 23.5662C33.9301 24.035 33.6667 24.6709 33.6667 25.334C33.6667 25.9971 33.9301 26.633 34.3989 27.1018C34.8677 27.5707 35.5036 27.8341 36.1667 27.8341Z" fill="black" fill-opacity="0.06"/>
</g>
<defs>
<filter id="filter0_i_151_56" x="0" y="0" width="64" height="68" filterUnits="userSpaceOnUse" color-interpolation-filters="sRGB">
<feFlood flood-opacity="0" result="BackgroundImageFix"/>
<feBlend mode="normal" in="SourceGraphic" in2="BackgroundImageFix" result="shape"/>
<feColorMatrix in="SourceAlpha" type="matrix" values="0 0 0 0 0 0 0 0 0 0 0 0 0 0 0 0 0 0 127 0" result="hardAlpha"/>
<feOffset dy="4"/>
<feGaussianBlur stdDeviation="2"/>
<feComposite in2="hardAlpha" operator="arithmetic" k2="-1" k3="1"/>
<feColorMatrix type="matrix" values="0 0 0 0 0 0 0 0 0 0 0 0 0 0 0 0 0 0 0.25 0"/>
<feBlend mode="normal" in2="shape" result="effect1_innerShadow_151_56"/>
</filter>
</defs>
</svg>
