<svg width="64" height="64" viewBox="0 0 64 64" fill="none" xmlns="http://www.w3.org/2000/svg">
<g filter="url(#filter0_i_151_58)">
<path d="M32.0017 0C14.3259 0 1.73636e-07 14.3259 1.73636e-07 31.9983C-0.000437624 36.201 0.827011 40.3625 2.43509 44.2454C4.04317 48.1282 6.40038 51.6562 9.3721 54.6279C12.3438 57.5996 15.8718 59.9568 19.7546 61.5649C23.6375 63.173 27.799 64.0004 32.0017 64C49.6707 64 64 49.6741 64 31.9983C63.9967 14.3259 49.6674 0 32.0017 0ZM31.9983 57.327C28.6717 57.327 25.3776 56.6718 22.3042 55.3987C19.2308 54.1257 16.4382 52.2597 14.0859 49.9074C11.7336 47.5551 9.86766 44.7626 8.5946 41.6891C7.32155 38.6157 6.66632 35.3216 6.66632 31.995C6.66632 28.6684 7.32155 25.3743 8.5946 22.3009C9.86766 19.2274 11.7336 16.4349 14.0859 14.0826C16.4382 11.7303 19.2308 9.86432 22.3042 8.59127C25.3776 7.31822 28.6717 6.66299 31.9983 6.66299C38.7168 6.66299 45.1601 9.33189 49.9108 14.0826C54.6614 18.8332 57.3303 25.2765 57.3303 31.995C57.3303 38.7135 54.6614 45.1568 49.9108 49.9074C45.1601 54.6581 38.7168 57.327 31.9983 57.327ZM40.3346 31.165C43.0944 31.165 45.3343 28.5552 45.3343 25.332C45.3343 22.1088 43.0944 19.499 40.3346 19.499C37.5747 19.499 35.3348 22.1088 35.3348 25.332C35.3348 28.5552 37.5714 31.165 40.3346 31.165ZM23.6688 31.165C26.4286 31.165 28.6685 28.5552 28.6685 25.332C28.6685 22.1088 26.4286 19.499 23.6688 19.499C20.9089 19.499 18.669 22.1088 18.669 25.332C18.669 28.5552 20.9056 31.165 23.6688 31.165ZM32.005 36.1648C20.5923 36.1648 16.5991 43.881 16.4325 44.211C16.1355 44.8042 16.0862 45.4911 16.2956 46.1205C16.505 46.75 16.9559 47.2705 17.5491 47.5675C18.1423 47.8645 18.8291 47.9138 19.4586 47.7044C20.0881 47.495 20.6085 47.0441 20.9056 46.4509C20.9322 46.3943 23.6454 41.1645 32.005 41.1645C40.2146 41.1645 42.9978 46.2543 43.0978 46.4476C43.2428 46.7439 43.4451 47.0086 43.693 47.2263C43.9408 47.4441 44.2293 47.6106 44.5418 47.7164C44.8544 47.8221 45.1847 47.8649 45.5139 47.8424C45.843 47.8198 46.1644 47.7323 46.4596 47.585C46.7548 47.4376 47.0179 47.2333 47.2337 46.9837C47.4496 46.7342 47.6139 46.4444 47.7172 46.1311C47.8205 45.8177 47.8607 45.4871 47.8356 45.1581C47.8105 44.8291 47.7205 44.5084 47.5709 44.2144C47.4075 43.8844 43.4177 36.1648 32.005 36.1648Z" fill="black" fill-opacity="0.06"/>
</g>
<defs>
<filter id="filter0_i_151_58" x="0" y="0" width="64" height="68" filterUnits="userSpaceOnUse" color-interpolation-filters="sRGB">
<feFlood flood-opacity="0" result="BackgroundImageFix"/>
<feBlend mode="normal" in="SourceGraphic" in2="BackgroundImageFix" result="shape"/>
<feColorMatrix in="SourceAlpha" type="matrix" values="0 0 0 0 0 0 0 0 0 0 0 0 0 0 0 0 0 0 127 0" result="hardAlpha"/>
<feOffset dy="4"/>
<feGaussianBlur stdDeviation="2"/>
<feComposite in2="hardAlpha" operator="arithmetic" k2="-1" k3="1"/>
<feColorMatrix type="matrix" values="0 0 0 0 0 0 0 0 0 0 0 0 0 0 0 0 0 0 0.25 0"/>
<feBlend mode="normal" in2="shape" result="effect1_innerShadow_151_58"/>
</filter>
</defs>
</svg>
