<svg width="40" height="40" viewBox="0 0 40 40" fill="none" xmlns="http://www.w3.org/2000/svg">
<path d="M39.5053 16.9601L35.0342 15.6268C34.7251 14.5485 34.3 13.5069 33.7663 12.5201L35.9551 8.42683C36.0373 8.27232 36.0673 8.09547 36.0409 7.92254C36.0144 7.7496 35.9329 7.58979 35.8083 7.46683L32.6185 4.26685C32.4955 4.14241 32.3355 4.06093 32.1624 4.03451C31.9893 4.00809 31.8123 4.03813 31.6576 4.12018L27.587 6.29351C26.5895 5.73439 25.5331 5.28723 24.4372 4.96018L23.1026 0.546868C23.0461 0.384224 22.9395 0.243668 22.798 0.145433C22.6565 0.0471969 22.4874 -0.00365231 22.3151 0.000204224H17.8041C17.6308 0.00101032 17.4622 0.05705 17.323 0.160168C17.1838 0.263285 17.0811 0.4081 17.03 0.573535L15.6953 4.97351C14.5903 5.29881 13.5249 5.74601 12.5189 6.30684L8.51499 4.14685C8.36033 4.0648 8.18331 4.03476 8.0102 4.06118C7.8371 4.0876 7.67713 4.16908 7.55405 4.29352L4.31088 7.4535C4.18632 7.57646 4.10476 7.73627 4.07831 7.9092C4.05187 8.08214 4.08194 8.25899 4.16407 8.4135L6.32618 12.4135C5.76571 13.4143 5.31809 14.4741 4.99154 15.5735L0.573894 16.9068C0.408296 16.9579 0.26334 17.0604 0.160121 17.1995C0.0569017 17.3386 0.000806887 17.507 0 17.6801V22.1868C0.000806887 22.3599 0.0569017 22.5283 0.160121 22.6674C0.26334 22.8064 0.408296 22.909 0.573894 22.9601L5.01824 24.2934C5.34835 25.3745 5.7959 26.4162 6.35287 27.4001L4.16407 31.5867C4.08194 31.7412 4.05187 31.9181 4.07831 32.091C4.10476 32.2639 4.18632 32.4237 4.31088 32.5467L7.50066 35.7334C7.62374 35.8578 7.78371 35.9393 7.95682 35.9657C8.12992 35.9921 8.30694 35.9621 8.4616 35.88L12.5856 33.68C13.5612 34.2059 14.5903 34.6261 15.6553 34.9334L16.9899 39.4267C17.0411 39.5921 17.1437 39.7369 17.283 39.84C17.4222 39.9432 17.5907 39.9992 17.764 40H22.2751C22.4484 39.9992 22.6169 39.9432 22.7562 39.84C22.8954 39.7369 22.9981 39.5921 23.0492 39.4267L24.3838 34.92C25.4398 34.6112 26.4598 34.191 27.4268 33.6667L31.5775 35.88C31.7322 35.9621 31.9092 35.9921 32.0823 35.9657C32.2554 35.9393 32.4154 35.8578 32.5385 35.7334L35.7282 32.5467C35.8528 32.4237 35.9344 32.2639 35.9608 32.091C35.9873 31.9181 35.9572 31.7412 35.8751 31.5867L33.6596 27.4534C34.1899 26.4837 34.6149 25.4601 34.9275 24.4001L39.4252 23.0668C39.5908 23.0157 39.7357 22.9131 39.839 22.774C39.9422 22.6349 39.9983 22.4666 39.9991 22.2934V17.7468C40.007 17.581 39.9639 17.4167 39.8756 17.2761C39.7873 17.1355 39.6581 17.0252 39.5053 16.9601ZM20.0596 27.3334C18.6078 27.3334 17.1886 26.9033 15.9814 26.0975C14.7743 25.2917 13.8334 24.1464 13.2779 22.8064C12.7223 21.4664 12.5769 19.992 12.8601 18.5694C13.1434 17.1469 13.8425 15.8403 14.8691 14.8147C15.8957 13.7891 17.2036 13.0907 18.6275 12.8077C20.0515 12.5248 21.5274 12.67 22.8687 13.225C24.21 13.7801 25.3564 14.72 26.163 15.9259C26.9696 17.1319 27.4001 18.5497 27.4001 20.0001C27.4001 21.945 26.6267 23.8103 25.2501 25.1855C23.8735 26.5608 22.0064 27.3334 20.0596 27.3334Z" fill="#FA7268"/>
</svg>
