<svg width="202" height="200" viewBox="0 0 202 200" fill="none" xmlns="http://www.w3.org/2000/svg">
<circle cx="65.7848" cy="9.21955" r="6.95454" transform="rotate(24.62 65.7848 9.21955)" fill="#FA7268" fill-opacity="0.1"/>
<circle cx="54.4718" cy="33.9067" r="6.95454" transform="rotate(24.62 54.4718 33.9067)" fill="#FA7268" fill-opacity="0.1"/>
<circle cx="43.1587" cy="58.5938" r="6.95454" transform="rotate(24.62 43.1587 58.5938)" fill="#FA7268" fill-opacity="0.1"/>
<circle cx="31.8457" cy="83.2809" r="6.95454" transform="rotate(24.62 31.8457 83.2809)" fill="#FA7268" fill-opacity="0.1"/>
<circle cx="20.5326" cy="107.968" r="6.95454" transform="rotate(24.62 20.5326 107.968)" fill="#FA7268" fill-opacity="0.1"/>
<circle cx="9.21957" cy="132.655" r="6.95454" transform="rotate(24.62 9.21957 132.655)" fill="#FA7268" fill-opacity="0.1"/>
<circle cx="86.8592" cy="18.877" r="6.95454" transform="rotate(24.62 86.8592 18.877)" fill="#FA7268" fill-opacity="0.1"/>
<circle cx="75.5461" cy="43.5641" r="6.95454" transform="rotate(24.62 75.5461 43.5641)" fill="#FA7268" fill-opacity="0.1"/>
<circle cx="64.2331" cy="68.2512" r="6.95454" transform="rotate(24.62 64.2331 68.2512)" fill="#FA7268" fill-opacity="0.1"/>
<circle cx="52.92" cy="92.9383" r="6.95454" transform="rotate(24.62 52.92 92.9383)" fill="#FA7268" fill-opacity="0.1"/>
<circle cx="41.607" cy="117.625" r="6.95454" transform="rotate(24.62 41.607 117.625)" fill="#FA7268" fill-opacity="0.1"/>
<circle cx="30.2939" cy="142.313" r="6.95454" transform="rotate(24.62 30.2939 142.313)" fill="#FA7268" fill-opacity="0.1"/>
<circle cx="107.934" cy="28.5345" r="6.95454" transform="rotate(24.62 107.934 28.5345)" fill="#FA7268" fill-opacity="0.1"/>
<circle cx="96.6205" cy="53.2216" r="6.95454" transform="rotate(24.62 96.6205 53.2216)" fill="#FA7268" fill-opacity="0.1"/>
<circle cx="85.3074" cy="77.9087" r="6.95454" transform="rotate(24.62 85.3074 77.9087)" fill="#FA7268" fill-opacity="0.1"/>
<circle cx="73.9944" cy="102.596" r="6.95454" transform="rotate(24.62 73.9944 102.596)" fill="#FA7268" fill-opacity="0.1"/>
<circle cx="62.6814" cy="127.283" r="6.95454" transform="rotate(24.62 62.6814 127.283)" fill="#FA7268" fill-opacity="0.1"/>
<circle cx="51.3683" cy="151.97" r="6.95454" transform="rotate(24.62 51.3683 151.97)" fill="#FA7268" fill-opacity="0.1"/>
<circle cx="129.008" cy="38.192" r="6.95454" transform="rotate(24.62 129.008 38.192)" fill="#FA7268" fill-opacity="0.1"/>
<circle cx="117.695" cy="62.8791" r="6.95454" transform="rotate(24.62 117.695 62.8791)" fill="#FA7268" fill-opacity="0.1"/>
<circle cx="106.382" cy="87.5662" r="6.95454" transform="rotate(24.62 106.382 87.5662)" fill="#FA7268" fill-opacity="0.1"/>
<circle cx="95.0687" cy="112.253" r="6.95454" transform="rotate(24.62 95.0687 112.253)" fill="#FA7268" fill-opacity="0.1"/>
<circle cx="83.7557" cy="136.94" r="6.95454" transform="rotate(24.62 83.7557 136.94)" fill="#FA7268" fill-opacity="0.1"/>
<circle cx="72.4427" cy="161.628" r="6.95454" transform="rotate(24.62 72.4427 161.628)" fill="#FA7268" fill-opacity="0.1"/>
<circle cx="150.082" cy="47.8495" r="6.95454" transform="rotate(24.62 150.082 47.8495)" fill="#FA7268" fill-opacity="0.1"/>
<circle cx="138.769" cy="72.5366" r="6.95454" transform="rotate(24.62 138.769 72.5366)" fill="#FA7268" fill-opacity="0.1"/>
<circle cx="127.456" cy="97.2237" r="6.95454" transform="rotate(24.62 127.456 97.2237)" fill="#FA7268" fill-opacity="0.1"/>
<circle cx="116.143" cy="121.911" r="6.95454" transform="rotate(24.62 116.143 121.911)" fill="#FA7268" fill-opacity="0.1"/>
<circle cx="104.83" cy="146.598" r="6.95454" transform="rotate(24.62 104.83 146.598)" fill="#FA7268" fill-opacity="0.1"/>
<circle cx="93.517" cy="171.285" r="6.95454" transform="rotate(24.62 93.517 171.285)" fill="#FA7268" fill-opacity="0.1"/>
<circle cx="171.157" cy="57.5069" r="6.95454" transform="rotate(24.62 171.157 57.5069)" fill="#FA7268" fill-opacity="0.1"/>
<circle cx="159.844" cy="82.194" r="6.95454" transform="rotate(24.62 159.844 82.194)" fill="#FA7268" fill-opacity="0.1"/>
<circle cx="148.531" cy="106.881" r="6.95454" transform="rotate(24.62 148.531 106.881)" fill="#FA7268" fill-opacity="0.1"/>
<circle cx="137.217" cy="131.568" r="6.95454" transform="rotate(24.62 137.217 131.568)" fill="#FA7268" fill-opacity="0.1"/>
<circle cx="125.904" cy="156.255" r="6.95454" transform="rotate(24.62 125.904 156.255)" fill="#FA7268" fill-opacity="0.1"/>
<circle cx="114.591" cy="180.942" r="6.95454" transform="rotate(24.62 114.591 180.942)" fill="#FA7268" fill-opacity="0.1"/>
<circle cx="192.231" cy="67.1644" r="6.95454" transform="rotate(24.62 192.231 67.1644)" fill="#FA7268" fill-opacity="0.1"/>
<circle cx="180.918" cy="91.8515" r="6.95454" transform="rotate(24.62 180.918 91.8515)" fill="#FA7268" fill-opacity="0.1"/>
<circle cx="169.605" cy="116.539" r="6.95454" transform="rotate(24.62 169.605 116.539)" fill="#FA7268" fill-opacity="0.1"/>
<circle cx="158.292" cy="141.226" r="6.95454" transform="rotate(24.62 158.292 141.226)" fill="#FA7268" fill-opacity="0.1"/>
<circle cx="146.979" cy="165.913" r="6.95454" transform="rotate(24.62 146.979 165.913)" fill="#FA7268" fill-opacity="0.1"/>
<circle cx="135.666" cy="190.6" r="6.95454" transform="rotate(24.62 135.666 190.6)" fill="#FA7268" fill-opacity="0.1"/>
</svg>
