<svg width="189" height="118" viewBox="0 0 189 118" fill="none" xmlns="http://www.w3.org/2000/svg">
<path d="M3 20.8782C3 20.8782 30.2533 33.5808 47.7159 33.5808C64.9603 33.5808 91.8729 20.8782 91.8729 20.8782C91.8729 20.8782 111.772 5.00001 136.03 5C160.288 4.99999 186 20.8782 186 20.8782" stroke="#FA7268" stroke-opacity="0.1" stroke-width="10"/>
<path d="M3 47.0306C3 47.0306 30.2533 59.7331 47.7159 59.7331C64.9603 59.7331 91.8729 47.0306 91.8729 47.0306C91.8729 47.0306 111.772 31.1523 136.03 31.1523C160.288 31.1523 186 47.0306 186 47.0306" stroke="#FA7268" stroke-opacity="0.1" stroke-width="10"/>
<path d="M3 73.1829C3 73.1829 30.2533 85.8854 47.7159 85.8854C64.9603 85.8854 91.8729 73.1829 91.8729 73.1829C91.8729 73.1829 111.772 57.3047 136.03 57.3046C160.288 57.3046 186 73.1829 186 73.1829" stroke="#FA7268" stroke-opacity="0.1" stroke-width="10"/>
<path d="M3 99.3352C3 99.3352 30.2533 112.038 47.7159 112.038C64.9603 112.038 91.8729 99.3352 91.8729 99.3352C91.8729 99.3352 111.772 83.457 136.03 83.457C160.288 83.4569 186 99.3352 186 99.3352" stroke="#FA7268" stroke-opacity="0.1" stroke-width="10"/>
</svg>
