<svg width="214" height="210" viewBox="0 0 214 210" fill="none" xmlns="http://www.w3.org/2000/svg">
<circle cx="30.4992" cy="9.72616" r="8.72727" transform="rotate(7.00262 30.4992 9.72616)" fill="#FD8419" fill-opacity="0.1"/>
<circle cx="26.3446" cy="43.5499" r="8.72727" transform="rotate(7.00262 26.3446 43.5499)" fill="#FD8419" fill-opacity="0.1"/>
<circle cx="22.19" cy="77.3736" r="8.72727" transform="rotate(7.00262 22.19 77.3736)" fill="#FD8419" fill-opacity="0.1"/>
<circle cx="18.0354" cy="111.197" r="8.72727" transform="rotate(7.00262 18.0354 111.197)" fill="#FD8419" fill-opacity="0.1"/>
<circle cx="13.8808" cy="145.021" r="8.72727" transform="rotate(7.00262 13.8808 145.021)" fill="#FD8419" fill-opacity="0.1"/>
<circle cx="9.72617" cy="178.845" r="8.72727" transform="rotate(7.00262 9.72617 178.845)" fill="#FD8419" fill-opacity="0.1"/>
<circle cx="59.3731" cy="13.2728" r="8.72727" transform="rotate(7.00262 59.3731 13.2728)" fill="#FD8419" fill-opacity="0.1"/>
<circle cx="55.2185" cy="47.0965" r="8.72727" transform="rotate(7.00262 55.2185 47.0965)" fill="#FD8419" fill-opacity="0.1"/>
<circle cx="51.0639" cy="80.9202" r="8.72727" transform="rotate(7.00262 51.0639 80.9202)" fill="#FD8419" fill-opacity="0.1"/>
<circle cx="46.9093" cy="114.744" r="8.72727" transform="rotate(7.00262 46.9093 114.744)" fill="#FD8419" fill-opacity="0.1"/>
<circle cx="42.7547" cy="148.568" r="8.72727" transform="rotate(7.00262 42.7547 148.568)" fill="#FD8419" fill-opacity="0.1"/>
<circle cx="38.6001" cy="182.391" r="8.72727" transform="rotate(7.00262 38.6001 182.391)" fill="#FD8419" fill-opacity="0.1"/>
<circle cx="88.247" cy="16.8194" r="8.72727" transform="rotate(7.00262 88.247 16.8194)" fill="#FD8419" fill-opacity="0.1"/>
<circle cx="84.0924" cy="50.6432" r="8.72727" transform="rotate(7.00262 84.0924 50.6432)" fill="#FD8419" fill-opacity="0.1"/>
<circle cx="79.9378" cy="84.4669" r="8.72727" transform="rotate(7.00262 79.9378 84.4669)" fill="#FD8419" fill-opacity="0.1"/>
<circle cx="75.7832" cy="118.29" r="8.72727" transform="rotate(7.00262 75.7832 118.29)" fill="#FD8419" fill-opacity="0.1"/>
<circle cx="71.6286" cy="152.114" r="8.72727" transform="rotate(7.00262 71.6286 152.114)" fill="#FD8419" fill-opacity="0.1"/>
<circle cx="67.474" cy="185.938" r="8.72727" transform="rotate(7.00262 67.474 185.938)" fill="#FD8419" fill-opacity="0.1"/>
<circle cx="117.121" cy="20.366" r="8.72727" transform="rotate(7.00262 117.121 20.366)" fill="#FD8419" fill-opacity="0.1"/>
<circle cx="112.966" cy="54.1897" r="8.72727" transform="rotate(7.00262 112.966 54.1897)" fill="#FD8419" fill-opacity="0.1"/>
<circle cx="108.812" cy="88.0134" r="8.72727" transform="rotate(7.00262 108.812 88.0134)" fill="#FD8419" fill-opacity="0.1"/>
<circle cx="104.657" cy="121.837" r="8.72727" transform="rotate(7.00262 104.657 121.837)" fill="#FD8419" fill-opacity="0.1"/>
<circle cx="100.503" cy="155.661" r="8.72727" transform="rotate(7.00262 100.503 155.661)" fill="#FD8419" fill-opacity="0.1"/>
<circle cx="96.3479" cy="189.485" r="8.72727" transform="rotate(7.00262 96.3479 189.485)" fill="#FD8419" fill-opacity="0.1"/>
<circle cx="145.995" cy="23.9126" r="8.72727" transform="rotate(7.00262 145.995 23.9126)" fill="#FD8419" fill-opacity="0.1"/>
<circle cx="141.84" cy="57.7363" r="8.72727" transform="rotate(7.00262 141.84 57.7363)" fill="#FD8419" fill-opacity="0.1"/>
<circle cx="137.686" cy="91.56" r="8.72727" transform="rotate(7.00262 137.686 91.56)" fill="#FD8419" fill-opacity="0.1"/>
<circle cx="133.531" cy="125.384" r="8.72727" transform="rotate(7.00262 133.531 125.384)" fill="#FD8419" fill-opacity="0.1"/>
<circle cx="129.376" cy="159.207" r="8.72727" transform="rotate(7.00262 129.376 159.207)" fill="#FD8419" fill-opacity="0.1"/>
<circle cx="125.222" cy="193.031" r="8.72727" transform="rotate(7.00262 125.222 193.031)" fill="#FD8419" fill-opacity="0.1"/>
<circle cx="174.869" cy="27.4592" r="8.72727" transform="rotate(7.00262 174.869 27.4592)" fill="#FD8419" fill-opacity="0.1"/>
<circle cx="170.714" cy="61.2829" r="8.72727" transform="rotate(7.00262 170.714 61.2829)" fill="#FD8419" fill-opacity="0.1"/>
<circle cx="166.56" cy="95.1067" r="8.72727" transform="rotate(7.00262 166.56 95.1067)" fill="#FD8419" fill-opacity="0.1"/>
<circle cx="162.405" cy="128.93" r="8.72727" transform="rotate(7.00262 162.405 128.93)" fill="#FD8419" fill-opacity="0.1"/>
<circle cx="158.25" cy="162.754" r="8.72727" transform="rotate(7.00262 158.25 162.754)" fill="#FD8419" fill-opacity="0.1"/>
<circle cx="154.096" cy="196.578" r="8.72727" transform="rotate(7.00262 154.096 196.578)" fill="#FD8419" fill-opacity="0.1"/>
<circle cx="203.743" cy="31.0058" r="8.72727" transform="rotate(7.00262 203.743 31.0058)" fill="#FD8419" fill-opacity="0.1"/>
<circle cx="199.588" cy="64.8296" r="8.72727" transform="rotate(7.00262 199.588 64.8296)" fill="#FD8419" fill-opacity="0.1"/>
<circle cx="195.433" cy="98.6533" r="8.72727" transform="rotate(7.00262 195.433 98.6533)" fill="#FD8419" fill-opacity="0.1"/>
<circle cx="191.279" cy="132.477" r="8.72727" transform="rotate(7.00262 191.279 132.477)" fill="#FD8419" fill-opacity="0.1"/>
<circle cx="187.124" cy="166.301" r="8.72727" transform="rotate(7.00262 187.124 166.301)" fill="#FD8419" fill-opacity="0.1"/>
<circle cx="182.97" cy="200.124" r="8.72727" transform="rotate(7.00262 182.97 200.124)" fill="#FD8419" fill-opacity="0.1"/>
</svg>
