<svg width="61" height="61" viewBox="0 0 61 61" fill="none" xmlns="http://www.w3.org/2000/svg">
<g filter="url(#filter0_i_172_15)">
<path d="M35.7062 0.894254C35.4232 0.610773 35.0871 0.385875 34.7171 0.232428C34.3471 0.0789823 33.9505 0 33.5499 0C33.1494 0 32.7527 0.0789823 32.3827 0.232428C32.0127 0.385875 31.6766 0.610773 31.3936 0.894254L13.5819 18.7061C13.5362 18.703 13.4935 18.6786 13.4478 18.6786C13.0472 18.6782 12.6505 18.7569 12.2804 18.9103C11.9104 19.0637 11.5743 19.2886 11.2914 19.5723L6.97882 23.8849C6.12728 24.7335 5.45222 25.7423 4.9926 26.8531C4.53299 27.9639 4.29793 29.1548 4.30097 30.357C4.30097 32.803 5.25561 35.1027 6.98187 36.8259L9.13818 38.9823L2.6662 45.4543C1.81265 46.2925 1.1367 47.294 0.678713 48.3992C0.220725 49.5044 -0.00991637 50.6904 0.000553303 51.8867C-0.0138495 53.2269 0.269513 54.5535 0.830182 55.7709C1.39085 56.9882 2.21484 58.0659 3.24264 58.926C4.82556 60.265 6.86598 61 8.99179 61C11.5354 61 14.0364 59.96 15.8542 58.1422L22.076 51.9233L24.2324 54.0766C27.691 57.5322 33.7146 57.5352 37.1702 54.0796L41.4859 49.767C41.7695 49.4841 41.9945 49.148 42.1478 48.778C42.3012 48.4079 42.3799 48.0112 42.3795 47.6106C42.3795 47.5313 42.3399 47.4581 42.3338 47.3788L60.1058 29.6067C60.3893 29.3237 60.6142 28.9875 60.7676 28.6175C60.921 28.2475 61 27.8509 61 27.4503C61 27.0498 60.921 26.6531 60.7676 26.2831C60.6142 25.9131 60.3893 25.577 60.1058 25.294L35.7062 0.894254V0.894254ZM32.8545 49.767C32.2735 50.3217 31.5009 50.631 30.6976 50.6305C29.8943 50.6299 29.1221 50.3195 28.5419 49.7639L24.2293 45.4543C23.9463 45.1708 23.6102 44.9459 23.2402 44.7925C22.8702 44.639 22.4736 44.5601 22.073 44.5601C21.6724 44.5601 21.2758 44.639 20.9058 44.7925C20.5358 44.9459 20.1997 45.1708 19.9167 45.4543L11.5415 53.8265C10.8667 54.5069 9.95011 54.8929 8.99179 54.9001C8.33167 54.9108 7.68934 54.6859 7.18012 54.2657C6.83063 53.9764 6.55172 53.6112 6.36463 53.1979C6.17753 52.7846 6.08718 52.3341 6.10044 51.8806C6.09725 51.4881 6.17311 51.0989 6.32349 50.7363C6.47388 50.3737 6.69571 50.0451 6.97577 49.77L15.6041 41.1417C15.8875 40.8587 16.1124 40.5225 16.2659 40.1525C16.4193 39.7825 16.4983 39.3859 16.4983 38.9853C16.4983 38.5848 16.4193 38.1881 16.2659 37.8181C16.1124 37.4481 15.8875 37.112 15.6041 36.829L11.2884 32.5133C11.0047 32.2313 10.7799 31.8957 10.627 31.526C10.4741 31.1564 10.3962 30.76 10.3978 30.36C10.3978 29.5426 10.715 28.7771 11.2914 28.2006L13.4478 26.0443L35.0139 47.6137L32.8545 49.767ZM38.6159 42.4714L18.529 22.3843L33.5499 7.36324L53.6369 27.4503L38.6159 42.4714V42.4714Z" fill="black" fill-opacity="0.08"/>
</g>
<defs>
<filter id="filter0_i_172_15" x="3.05176e-05" y="0" width="61" height="65" filterUnits="userSpaceOnUse" color-interpolation-filters="sRGB">
<feFlood flood-opacity="0" result="BackgroundImageFix"/>
<feBlend mode="normal" in="SourceGraphic" in2="BackgroundImageFix" result="shape"/>
<feColorMatrix in="SourceAlpha" type="matrix" values="0 0 0 0 0 0 0 0 0 0 0 0 0 0 0 0 0 0 127 0" result="hardAlpha"/>
<feOffset dy="4"/>
<feGaussianBlur stdDeviation="2"/>
<feComposite in2="hardAlpha" operator="arithmetic" k2="-1" k3="1"/>
<feColorMatrix type="matrix" values="0 0 0 0 0 0 0 0 0 0 0 0 0 0 0 0 0 0 0.25 0"/>
<feBlend mode="normal" in2="shape" result="effect1_innerShadow_172_15"/>
</filter>
</defs>
</svg>
