<svg width="49" height="49" viewBox="0 0 49 49" fill="none" xmlns="http://www.w3.org/2000/svg">
<path d="M9.60217 0C4.32173 0 0 4.32163 0 9.60217V39.3994C0 44.6798 4.32163 49 9.60217 49H39.3994C44.6799 49 49 44.6799 49 39.3994V9.60217C49 4.32173 44.6799 0 39.3994 0H9.60217ZM12.0173 8.08599C14.5491 8.08599 16.1086 9.74811 16.1568 11.9329C16.1568 14.0695 14.549 15.7784 11.9683 15.7784H11.9208C9.43711 15.7784 7.83181 14.0696 7.83181 11.9329C7.83181 9.74816 9.48574 8.08599 12.0173 8.08599ZM33.8357 18.2976C38.705 18.2976 42.3551 21.4802 42.3551 28.3194V41.087H34.9552V29.1754C34.9552 26.1821 33.8842 24.14 31.2063 24.14C29.1619 24.14 27.9433 25.5164 27.4083 26.8461C27.2128 27.3218 27.1648 27.9862 27.1648 28.6516V41.087H19.7648C19.7648 41.087 19.862 20.9091 19.7648 18.8198H27.1663V21.9731C28.1497 20.4559 29.9087 18.2976 33.8357 18.2976ZM8.2683 18.8214H15.6682V41.0871H8.2683V18.8214Z" fill="white"/>
</svg>
