<svg width="51" height="51" viewBox="0 0 51 51" fill="none" xmlns="http://www.w3.org/2000/svg">
<g filter="url(#filter0_i_172_20)">
<path d="M20.4166 33.1249C21.1368 33.1249 21.7408 32.8809 22.2288 32.3929C22.7151 31.9066 22.9583 31.3034 22.9583 30.5833V20.4166C22.9583 19.6964 22.7151 19.0924 22.2288 18.6044C21.7408 18.1181 21.1368 17.8749 20.4166 17.8749C19.6965 17.8749 19.0933 18.1181 18.6069 18.6044C18.1189 19.0924 17.8749 19.6964 17.8749 20.4166V30.5833C17.8749 31.3034 18.1189 31.9066 18.6069 32.3929C19.0933 32.8809 19.6965 33.1249 20.4166 33.1249ZM30.5833 33.1249C31.3034 33.1249 31.9075 32.8809 32.3955 32.3929C32.8818 31.9066 33.1249 31.3034 33.1249 30.5833V20.4166C33.1249 19.6964 32.8818 19.0924 32.3955 18.6044C31.9075 18.1181 31.3034 17.8749 30.5833 17.8749C29.8631 17.8749 29.2599 18.1181 28.7736 18.6044C28.2856 19.0924 28.0416 19.6964 28.0416 20.4166V30.5833C28.0416 31.3034 28.2856 31.9066 28.7736 32.3929C29.2599 32.8809 29.8631 33.1249 30.5833 33.1249ZM25.4999 50.9166C21.984 50.9166 18.6798 50.249 15.5874 48.9137C12.4951 47.5802 9.80516 45.7697 7.51766 43.4822C5.23016 41.1947 3.41964 38.5048 2.08612 35.4124C0.750894 32.3201 0.0832825 29.0159 0.0832825 25.4999C0.0832825 24.3985 0.157838 23.3183 0.306949 22.2593C0.454366 21.2003 0.655158 20.1412 0.909324 19.0822C1.12113 18.1503 1.5871 17.5038 2.30724 17.1429C3.02738 16.7837 3.81106 16.8159 4.65828 17.2395C5.12425 17.4937 5.48432 17.8961 5.73849 18.4468C5.99266 18.9975 6.03502 19.5694 5.86557 20.1624C5.65377 21.052 5.48432 21.9416 5.35724 22.8312C5.23016 23.7207 5.16662 24.6103 5.16662 25.4999C5.16662 31.1763 7.13641 35.9843 11.076 39.9239C15.0156 43.8635 19.8236 45.8332 25.4999 45.8332C31.1763 45.8332 35.9843 43.8635 39.9239 39.9239C43.8635 35.9843 45.8333 31.1763 45.8333 25.4999C45.8333 19.8235 43.8635 15.0155 39.9239 11.076C35.9843 7.13638 31.1763 5.16658 25.4999 5.16658C24.568 5.16658 23.6572 5.23013 22.7677 5.35721C21.8781 5.48429 21.0097 5.65374 20.1624 5.86554C19.5694 6.03499 19.0085 6.00279 18.4799 5.76896C17.9495 5.53682 17.5361 5.16658 17.2395 4.65825C16.7736 3.89575 16.7524 3.13325 17.176 2.37075C17.5996 1.60825 18.2562 1.1211 19.1458 0.909294C20.1624 0.612766 21.2003 0.40096 22.2593 0.273877C23.3184 0.146794 24.3986 0.083252 25.4999 0.083252C29.0159 0.083252 32.3201 0.750016 35.4124 2.08354C38.5048 3.41877 41.1947 5.23013 43.4822 7.51763C45.7697 9.80513 47.5803 12.4951 48.9138 15.5874C50.249 18.6798 50.9166 21.9839 50.9166 25.4999C50.9166 29.0159 50.249 32.3201 48.9138 35.4124C47.5803 38.5048 45.7697 41.1947 43.4822 43.4822C41.1947 45.7697 38.5048 47.5802 35.4124 48.9137C32.3201 50.249 29.0159 50.9166 25.4999 50.9166ZM8.97912 12.7916C7.92009 12.7916 7.02034 12.4205 6.27987 11.6783C5.5377 10.9379 5.16662 10.0381 5.16662 8.97908C5.16662 7.92006 5.5377 7.02031 6.27987 6.27984C7.02034 5.53767 7.92009 5.16658 8.97912 5.16658C10.0381 5.16658 10.9379 5.53767 11.6784 6.27984C12.4205 7.02031 12.7916 7.92006 12.7916 8.97908C12.7916 10.0381 12.4205 10.9379 11.6784 11.6783C10.9379 12.4205 10.0381 12.7916 8.97912 12.7916ZM25.4999 40.7499C21.2638 40.7499 17.6631 39.2673 14.6979 36.302C11.7326 33.3367 10.2499 29.736 10.2499 25.4999C10.2499 21.2638 11.7326 17.6631 14.6979 14.6978C17.6631 11.7326 21.2638 10.2499 25.4999 10.2499C29.7361 10.2499 33.3368 11.7326 36.302 14.6978C39.2673 17.6631 40.7499 21.2638 40.7499 25.4999C40.7499 29.736 39.2673 33.3367 36.302 36.302C33.3368 39.2673 29.7361 40.7499 25.4999 40.7499Z" fill="black" fill-opacity="0.08"/>
</g>
<defs>
<filter id="filter0_i_172_20" x="0.0832825" y="0.083252" width="50.8333" height="54.8333" filterUnits="userSpaceOnUse" color-interpolation-filters="sRGB">
<feFlood flood-opacity="0" result="BackgroundImageFix"/>
<feBlend mode="normal" in="SourceGraphic" in2="BackgroundImageFix" result="shape"/>
<feColorMatrix in="SourceAlpha" type="matrix" values="0 0 0 0 0 0 0 0 0 0 0 0 0 0 0 0 0 0 127 0" result="hardAlpha"/>
<feOffset dy="4"/>
<feGaussianBlur stdDeviation="2"/>
<feComposite in2="hardAlpha" operator="arithmetic" k2="-1" k3="1"/>
<feColorMatrix type="matrix" values="0 0 0 0 0 0 0 0 0 0 0 0 0 0 0 0 0 0 0.25 0"/>
<feBlend mode="normal" in2="shape" result="effect1_innerShadow_172_20"/>
</filter>
</defs>
</svg>
