<svg width="158" height="183" viewBox="0 0 158 183" fill="none" xmlns="http://www.w3.org/2000/svg">
<g filter="url(#filter0_d_148_6)">
<path d="M5.44441 163C5.23775 163 5.07775 162.943 4.96441 162.83C4.85108 162.71 4.79441 162.547 4.79441 162.34V156.57C4.79441 156.357 4.84775 156.197 4.95441 156.09C5.06775 155.977 5.22775 155.92 5.43441 155.92C5.64108 155.92 5.79775 155.977 5.90441 156.09C6.01775 156.197 6.07441 156.357 6.07441 156.57V161.91H8.97441C9.15441 161.91 9.29108 161.957 9.38441 162.05C9.48441 162.143 9.53441 162.277 9.53441 162.45C9.53441 162.623 9.48441 162.76 9.38441 162.86C9.29108 162.953 9.15441 163 8.97441 163H5.44441ZM11.8996 163.1C11.5463 163.1 11.2296 163.033 10.9496 162.9C10.6763 162.76 10.4596 162.573 10.2996 162.34C10.1463 162.107 10.0696 161.843 10.0696 161.55C10.0696 161.19 10.163 160.907 10.3496 160.7C10.5363 160.487 10.8396 160.333 11.2596 160.24C11.6796 160.147 12.243 160.1 12.9496 160.1H13.4496V160.82H12.9596C12.5463 160.82 12.2163 160.84 11.9696 160.88C11.723 160.92 11.5463 160.99 11.4396 161.09C11.3396 161.183 11.2896 161.317 11.2896 161.49C11.2896 161.71 11.3663 161.89 11.5196 162.03C11.673 162.17 11.8863 162.24 12.1596 162.24C12.3796 162.24 12.573 162.19 12.7396 162.09C12.913 161.983 13.0496 161.84 13.1496 161.66C13.2496 161.48 13.2996 161.273 13.2996 161.04V159.89C13.2996 159.557 13.2263 159.317 13.0796 159.17C12.933 159.023 12.6863 158.95 12.3396 158.95C12.1463 158.95 11.9363 158.973 11.7096 159.02C11.4896 159.067 11.2563 159.147 11.0096 159.26C10.883 159.32 10.7696 159.337 10.6696 159.31C10.5763 159.283 10.503 159.23 10.4496 159.15C10.3963 159.063 10.3696 158.97 10.3696 158.87C10.3696 158.77 10.3963 158.673 10.4496 158.58C10.503 158.48 10.593 158.407 10.7196 158.36C11.0263 158.233 11.3196 158.143 11.5996 158.09C11.8863 158.037 12.1463 158.01 12.3796 158.01C12.8596 158.01 13.253 158.083 13.5596 158.23C13.873 158.377 14.1063 158.6 14.2596 158.9C14.413 159.193 14.4896 159.573 14.4896 160.04V162.44C14.4896 162.647 14.4396 162.807 14.3396 162.92C14.2396 163.027 14.0963 163.08 13.9096 163.08C13.723 163.08 13.5763 163.027 13.4696 162.92C13.3696 162.807 13.3196 162.647 13.3196 162.44V161.96H13.3996C13.353 162.193 13.2596 162.397 13.1196 162.57C12.9863 162.737 12.8163 162.867 12.6096 162.96C12.403 163.053 12.1663 163.1 11.8996 163.1ZM16.3984 163.08C16.1984 163.08 16.0451 163.027 15.9384 162.92C15.8317 162.807 15.7784 162.647 15.7784 162.44V158.66C15.7784 158.453 15.8317 158.297 15.9384 158.19C16.0451 158.083 16.1951 158.03 16.3884 158.03C16.5817 158.03 16.7317 158.083 16.8384 158.19C16.9451 158.297 16.9984 158.453 16.9984 158.66V159.39L16.8884 159.09C17.0217 158.757 17.2284 158.493 17.5084 158.3C17.7884 158.107 18.1217 158.01 18.5084 158.01C18.9017 158.01 19.2251 158.103 19.4784 158.29C19.7317 158.477 19.9084 158.763 20.0084 159.15H19.8684C20.0017 158.797 20.2217 158.52 20.5284 158.32C20.8351 158.113 21.1884 158.01 21.5884 158.01C21.9617 158.01 22.2684 158.083 22.5084 158.23C22.7551 158.377 22.9384 158.6 23.0584 158.9C23.1784 159.193 23.2384 159.567 23.2384 160.02V162.44C23.2384 162.647 23.1817 162.807 23.0684 162.92C22.9617 163.027 22.8084 163.08 22.6084 163.08C22.4084 163.08 22.2551 163.027 22.1484 162.92C22.0417 162.807 21.9884 162.647 21.9884 162.44V160.07C21.9884 159.697 21.9251 159.423 21.7984 159.25C21.6784 159.077 21.4717 158.99 21.1784 158.99C20.8517 158.99 20.5951 159.107 20.4084 159.34C20.2217 159.567 20.1284 159.883 20.1284 160.29V162.44C20.1284 162.647 20.0751 162.807 19.9684 162.92C19.8617 163.027 19.7084 163.08 19.5084 163.08C19.3084 163.08 19.1517 163.027 19.0384 162.92C18.9317 162.807 18.8784 162.647 18.8784 162.44V160.07C18.8784 159.697 18.8151 159.423 18.6884 159.25C18.5684 159.077 18.3651 158.99 18.0784 158.99C17.7517 158.99 17.4951 159.107 17.3084 159.34C17.1217 159.567 17.0284 159.883 17.0284 160.29V162.44C17.0284 162.867 16.8184 163.08 16.3984 163.08ZM26.9379 163.1C26.3846 163.1 25.9079 162.997 25.5079 162.79C25.1079 162.583 24.7979 162.29 24.5779 161.91C24.3646 161.53 24.2579 161.08 24.2579 160.56C24.2579 160.053 24.3613 159.61 24.5679 159.23C24.7813 158.85 25.0713 158.553 25.4379 158.34C25.8113 158.12 26.2346 158.01 26.7079 158.01C27.0546 158.01 27.3646 158.067 27.6379 158.18C27.9179 158.293 28.1546 158.457 28.3479 158.67C28.5479 158.883 28.6979 159.143 28.7979 159.45C28.9046 159.75 28.9579 160.09 28.9579 160.47C28.9579 160.59 28.9146 160.683 28.8279 160.75C28.7479 160.81 28.6313 160.84 28.4779 160.84H25.2679V160.12H28.0779L27.9179 160.27C27.9179 159.963 27.8713 159.707 27.7779 159.5C27.6913 159.293 27.5613 159.137 27.3879 159.03C27.2213 158.917 27.0113 158.86 26.7579 158.86C26.4779 158.86 26.2379 158.927 26.0379 159.06C25.8446 159.187 25.6946 159.37 25.5879 159.61C25.4879 159.843 25.4379 160.123 25.4379 160.45V160.52C25.4379 161.067 25.5646 161.477 25.8179 161.75C26.0779 162.017 26.4579 162.15 26.9579 162.15C27.1313 162.15 27.3246 162.13 27.5379 162.09C27.7579 162.043 27.9646 161.967 28.1579 161.86C28.2979 161.78 28.4213 161.747 28.5279 161.76C28.6346 161.767 28.7179 161.803 28.7779 161.87C28.8446 161.937 28.8846 162.02 28.8979 162.12C28.9113 162.213 28.8913 162.31 28.8379 162.41C28.7913 162.51 28.7079 162.597 28.5879 162.67C28.3546 162.817 28.0846 162.927 27.7779 163C27.4779 163.067 27.1979 163.1 26.9379 163.1ZM30.5679 163.08C30.3679 163.08 30.2145 163.027 30.1079 162.92C30.0012 162.807 29.9479 162.647 29.9479 162.44V158.66C29.9479 158.453 30.0012 158.297 30.1079 158.19C30.2145 158.083 30.3645 158.03 30.5579 158.03C30.7512 158.03 30.9012 158.083 31.0079 158.19C31.1145 158.297 31.1679 158.453 31.1679 158.66V159.34L31.0579 159.09C31.2045 158.737 31.4312 158.47 31.7379 158.29C32.0512 158.103 32.4045 158.01 32.7979 158.01C33.1912 158.01 33.5145 158.083 33.7679 158.23C34.0212 158.377 34.2112 158.6 34.3379 158.9C34.4645 159.193 34.5279 159.567 34.5279 160.02V162.44C34.5279 162.647 34.4745 162.807 34.3679 162.92C34.2612 163.027 34.1079 163.08 33.9079 163.08C33.7079 163.08 33.5512 163.027 33.4379 162.92C33.3312 162.807 33.2779 162.647 33.2779 162.44V160.08C33.2779 159.7 33.2045 159.423 33.0579 159.25C32.9179 159.077 32.6979 158.99 32.3979 158.99C32.0312 158.99 31.7379 159.107 31.5179 159.34C31.3045 159.567 31.1979 159.87 31.1979 160.25V162.44C31.1979 162.867 30.9879 163.08 30.5679 163.08ZM38.0375 163.1C37.6041 163.1 37.2408 163.027 36.9475 162.88C36.6608 162.733 36.4475 162.52 36.3075 162.24C36.1675 161.953 36.0975 161.6 36.0975 161.18V159.05H35.5775C35.4175 159.05 35.2941 159.01 35.2075 158.93C35.1208 158.843 35.0775 158.727 35.0775 158.58C35.0775 158.427 35.1208 158.31 35.2075 158.23C35.2941 158.15 35.4175 158.11 35.5775 158.11H36.0975V157.2C36.0975 156.993 36.1508 156.837 36.2575 156.73C36.3708 156.623 36.5275 156.57 36.7275 156.57C36.9275 156.57 37.0808 156.623 37.1875 156.73C37.2941 156.837 37.3475 156.993 37.3475 157.2V158.11H38.4075C38.5675 158.11 38.6908 158.15 38.7775 158.23C38.8641 158.31 38.9075 158.427 38.9075 158.58C38.9075 158.727 38.8641 158.843 38.7775 158.93C38.6908 159.01 38.5675 159.05 38.4075 159.05H37.3475V161.11C37.3475 161.43 37.4175 161.67 37.5575 161.83C37.6975 161.99 37.9241 162.07 38.2375 162.07C38.3508 162.07 38.4508 162.06 38.5375 162.04C38.6241 162.02 38.7008 162.007 38.7675 162C38.8475 161.993 38.9141 162.02 38.9675 162.08C39.0208 162.133 39.0475 162.247 39.0475 162.42C39.0475 162.553 39.0241 162.673 38.9775 162.78C38.9375 162.88 38.8608 162.95 38.7475 162.99C38.6608 163.017 38.5475 163.04 38.4075 163.06C38.2675 163.087 38.1441 163.1 38.0375 163.1ZM41.8165 163.1C41.3099 163.1 40.8699 162.997 40.4965 162.79C40.1232 162.583 39.8332 162.29 39.6265 161.91C39.4199 161.523 39.3165 161.07 39.3165 160.55C39.3165 160.157 39.3732 159.807 39.4865 159.5C39.6065 159.187 39.7765 158.92 39.9965 158.7C40.2165 158.473 40.4799 158.303 40.7865 158.19C41.0932 158.07 41.4365 158.01 41.8165 158.01C42.3232 158.01 42.7632 158.113 43.1365 158.32C43.5099 158.527 43.7999 158.82 44.0065 159.2C44.2132 159.58 44.3165 160.03 44.3165 160.55C44.3165 160.943 44.2565 161.297 44.1365 161.61C44.0232 161.923 43.8565 162.193 43.6365 162.42C43.4165 162.64 43.1532 162.81 42.8465 162.93C42.5399 163.043 42.1965 163.1 41.8165 163.1ZM41.8165 162.15C42.0632 162.15 42.2799 162.09 42.4665 161.97C42.6532 161.85 42.7965 161.673 42.8965 161.44C43.0032 161.2 43.0565 160.903 43.0565 160.55C43.0565 160.017 42.9432 159.62 42.7165 159.36C42.4899 159.093 42.1899 158.96 41.8165 158.96C41.5699 158.96 41.3532 159.02 41.1665 159.14C40.9799 159.253 40.8332 159.43 40.7265 159.67C40.6265 159.903 40.5765 160.197 40.5765 160.55C40.5765 161.077 40.6899 161.477 40.9165 161.75C41.1432 162.017 41.4432 162.15 41.8165 162.15ZM45.9227 164.07C45.836 164.177 45.7427 164.237 45.6427 164.25C45.5494 164.27 45.466 164.253 45.3927 164.2C45.3194 164.147 45.2794 164.07 45.2727 163.97C45.266 163.877 45.3094 163.773 45.4027 163.66C45.536 163.493 45.626 163.327 45.6727 163.16C45.7194 162.993 45.7427 162.843 45.7427 162.71L45.7927 163.05C45.5594 163.05 45.3694 162.983 45.2227 162.85C45.0827 162.71 45.0127 162.527 45.0127 162.3C45.0127 162.087 45.0794 161.913 45.2127 161.78C45.346 161.64 45.526 161.57 45.7527 161.57C45.986 161.57 46.1694 161.65 46.3027 161.81C46.436 161.963 46.5027 162.187 46.5027 162.48C46.5027 162.64 46.486 162.807 46.4527 162.98C46.426 163.147 46.3694 163.32 46.2827 163.5C46.2027 163.687 46.0827 163.877 45.9227 164.07ZM50.998 163.08C50.798 163.08 50.6447 163.027 50.538 162.92C50.4313 162.807 50.378 162.647 50.378 162.44V158.66C50.378 158.453 50.4313 158.297 50.538 158.19C50.6447 158.083 50.7947 158.03 50.988 158.03C51.1813 158.03 51.3313 158.083 51.438 158.19C51.5447 158.297 51.598 158.453 51.598 158.66V159.39L51.488 159.09C51.6213 158.757 51.828 158.493 52.108 158.3C52.388 158.107 52.7213 158.01 53.108 158.01C53.5013 158.01 53.8247 158.103 54.078 158.29C54.3313 158.477 54.508 158.763 54.608 159.15H54.468C54.6013 158.797 54.8213 158.52 55.128 158.32C55.4347 158.113 55.788 158.01 56.188 158.01C56.5613 158.01 56.868 158.083 57.108 158.23C57.3547 158.377 57.538 158.6 57.658 158.9C57.778 159.193 57.838 159.567 57.838 160.02V162.44C57.838 162.647 57.7813 162.807 57.668 162.92C57.5613 163.027 57.408 163.08 57.208 163.08C57.008 163.08 56.8547 163.027 56.748 162.92C56.6413 162.807 56.588 162.647 56.588 162.44V160.07C56.588 159.697 56.5247 159.423 56.398 159.25C56.278 159.077 56.0713 158.99 55.778 158.99C55.4513 158.99 55.1947 159.107 55.008 159.34C54.8213 159.567 54.728 159.883 54.728 160.29V162.44C54.728 162.647 54.6747 162.807 54.568 162.92C54.4613 163.027 54.308 163.08 54.108 163.08C53.908 163.08 53.7513 163.027 53.638 162.92C53.5313 162.807 53.478 162.647 53.478 162.44V160.07C53.478 159.697 53.4147 159.423 53.288 159.25C53.168 159.077 52.9647 158.99 52.678 158.99C52.3513 158.99 52.0947 159.107 51.908 159.34C51.7213 159.567 51.628 159.883 51.628 160.29V162.44C51.628 162.867 51.418 163.08 50.998 163.08ZM60.7375 163.1C60.3842 163.1 60.0675 163.033 59.7875 162.9C59.5142 162.76 59.2975 162.573 59.1375 162.34C58.9842 162.107 58.9075 161.843 58.9075 161.55C58.9075 161.19 59.0009 160.907 59.1875 160.7C59.3742 160.487 59.6775 160.333 60.0975 160.24C60.5175 160.147 61.0809 160.1 61.7875 160.1H62.2875V160.82H61.7975C61.3842 160.82 61.0542 160.84 60.8075 160.88C60.5609 160.92 60.3842 160.99 60.2775 161.09C60.1775 161.183 60.1275 161.317 60.1275 161.49C60.1275 161.71 60.2042 161.89 60.3575 162.03C60.5109 162.17 60.7242 162.24 60.9975 162.24C61.2175 162.24 61.4109 162.19 61.5775 162.09C61.7509 161.983 61.8875 161.84 61.9875 161.66C62.0875 161.48 62.1375 161.273 62.1375 161.04V159.89C62.1375 159.557 62.0642 159.317 61.9175 159.17C61.7709 159.023 61.5242 158.95 61.1775 158.95C60.9842 158.95 60.7742 158.973 60.5475 159.02C60.3275 159.067 60.0942 159.147 59.8475 159.26C59.7209 159.32 59.6075 159.337 59.5075 159.31C59.4142 159.283 59.3409 159.23 59.2875 159.15C59.2342 159.063 59.2075 158.97 59.2075 158.87C59.2075 158.77 59.2342 158.673 59.2875 158.58C59.3409 158.48 59.4309 158.407 59.5575 158.36C59.8642 158.233 60.1575 158.143 60.4375 158.09C60.7242 158.037 60.9842 158.01 61.2175 158.01C61.6975 158.01 62.0909 158.083 62.3975 158.23C62.7109 158.377 62.9442 158.6 63.0975 158.9C63.2509 159.193 63.3275 159.573 63.3275 160.04V162.44C63.3275 162.647 63.2775 162.807 63.1775 162.92C63.0775 163.027 62.9342 163.08 62.7475 163.08C62.5609 163.08 62.4142 163.027 62.3075 162.92C62.2075 162.807 62.1575 162.647 62.1575 162.44V161.96H62.2375C62.1909 162.193 62.0975 162.397 61.9575 162.57C61.8242 162.737 61.6542 162.867 61.4475 162.96C61.2409 163.053 61.0042 163.1 60.7375 163.1ZM65.2163 163.07C65.0163 163.07 64.863 163.01 64.7563 162.89C64.6496 162.77 64.5963 162.603 64.5963 162.39V158.72C64.5963 158.5 64.6496 158.333 64.7563 158.22C64.863 158.1 65.0163 158.04 65.2163 158.04C65.4163 158.04 65.5696 158.1 65.6763 158.22C65.7896 158.333 65.8463 158.5 65.8463 158.72V162.39C65.8463 162.603 65.793 162.77 65.6863 162.89C65.5796 163.01 65.423 163.07 65.2163 163.07ZM65.2163 157.11C64.983 157.11 64.7996 157.053 64.6663 156.94C64.5396 156.82 64.4763 156.657 64.4763 156.45C64.4763 156.237 64.5396 156.073 64.6663 155.96C64.7996 155.847 64.983 155.79 65.2163 155.79C65.4563 155.79 65.6396 155.847 65.7663 155.96C65.893 156.073 65.9563 156.237 65.9563 156.45C65.9563 156.657 65.893 156.82 65.7663 156.94C65.6396 157.053 65.4563 157.11 65.2163 157.11ZM68.9351 163.1C68.6485 163.1 68.3451 163.07 68.0251 163.01C67.7051 162.95 67.4185 162.847 67.1651 162.7C67.0585 162.633 66.9818 162.557 66.9351 162.47C66.8951 162.377 66.8785 162.287 66.8851 162.2C66.8985 162.107 66.9318 162.027 66.9851 161.96C67.0451 161.893 67.1185 161.85 67.2051 161.83C67.2985 161.81 67.3985 161.827 67.5051 161.88C67.7718 162.007 68.0218 162.097 68.2551 162.15C68.4885 162.197 68.7185 162.22 68.9451 162.22C69.2651 162.22 69.5018 162.167 69.6551 162.06C69.8151 161.947 69.8951 161.8 69.8951 161.62C69.8951 161.467 69.8418 161.35 69.7351 161.27C69.6351 161.183 69.4818 161.12 69.2751 161.08L68.2751 160.89C67.8618 160.81 67.5451 160.66 67.3251 160.44C67.1118 160.213 67.0051 159.923 67.0051 159.57C67.0051 159.25 67.0918 158.973 67.2651 158.74C67.4451 158.507 67.6918 158.327 68.0051 158.2C68.3185 158.073 68.6785 158.01 69.0851 158.01C69.3785 158.01 69.6518 158.043 69.9051 158.11C70.1651 158.17 70.4151 158.267 70.6551 158.4C70.7551 158.453 70.8218 158.523 70.8551 158.61C70.8951 158.697 70.9051 158.787 70.8851 158.88C70.8651 158.967 70.8251 159.047 70.7651 159.12C70.7051 159.187 70.6285 159.23 70.5351 159.25C70.4485 159.263 70.3485 159.243 70.2351 159.19C70.0285 159.083 69.8285 159.007 69.6351 158.96C69.4485 158.913 69.2685 158.89 69.0951 158.89C68.7685 158.89 68.5251 158.947 68.3651 159.06C68.2118 159.173 68.1351 159.323 68.1351 159.51C68.1351 159.65 68.1818 159.767 68.2751 159.86C68.3685 159.953 68.5118 160.017 68.7051 160.05L69.7051 160.24C70.1385 160.32 70.4651 160.467 70.6851 160.68C70.9118 160.893 71.0251 161.18 71.0251 161.54C71.0251 162.027 70.8351 162.41 70.4551 162.69C70.0751 162.963 69.5685 163.1 68.9351 163.1ZM75.3628 163.08C75.1628 163.08 75.0094 163.027 74.9028 162.92C74.7961 162.807 74.7428 162.647 74.7428 162.44V158.66C74.7428 158.453 74.7961 158.297 74.9028 158.19C75.0094 158.083 75.1594 158.03 75.3528 158.03C75.5461 158.03 75.6961 158.083 75.8028 158.19C75.9094 158.297 75.9628 158.453 75.9628 158.66V159.34L75.8528 159.09C75.9994 158.737 76.2261 158.47 76.5328 158.29C76.8461 158.103 77.1994 158.01 77.5928 158.01C77.9861 158.01 78.3094 158.083 78.5628 158.23C78.8161 158.377 79.0061 158.6 79.1328 158.9C79.2594 159.193 79.3228 159.567 79.3228 160.02V162.44C79.3228 162.647 79.2694 162.807 79.1628 162.92C79.0561 163.027 78.9028 163.08 78.7028 163.08C78.5028 163.08 78.3461 163.027 78.2328 162.92C78.1261 162.807 78.0728 162.647 78.0728 162.44V160.08C78.0728 159.7 77.9994 159.423 77.8528 159.25C77.7128 159.077 77.4928 158.99 77.1928 158.99C76.8261 158.99 76.5328 159.107 76.3128 159.34C76.0994 159.567 75.9928 159.87 75.9928 160.25V162.44C75.9928 162.867 75.7828 163.08 75.3628 163.08ZM82.2024 163.1C81.849 163.1 81.5324 163.033 81.2524 162.9C80.979 162.76 80.7624 162.573 80.6024 162.34C80.449 162.107 80.3724 161.843 80.3724 161.55C80.3724 161.19 80.4657 160.907 80.6524 160.7C80.839 160.487 81.1424 160.333 81.5624 160.24C81.9824 160.147 82.5457 160.1 83.2524 160.1H83.7524V160.82H83.2624C82.849 160.82 82.519 160.84 82.2724 160.88C82.0257 160.92 81.849 160.99 81.7424 161.09C81.6424 161.183 81.5924 161.317 81.5924 161.49C81.5924 161.71 81.669 161.89 81.8224 162.03C81.9757 162.17 82.189 162.24 82.4624 162.24C82.6824 162.24 82.8757 162.19 83.0424 162.09C83.2157 161.983 83.3524 161.84 83.4524 161.66C83.5524 161.48 83.6024 161.273 83.6024 161.04V159.89C83.6024 159.557 83.529 159.317 83.3824 159.17C83.2357 159.023 82.989 158.95 82.6424 158.95C82.449 158.95 82.239 158.973 82.0124 159.02C81.7924 159.067 81.559 159.147 81.3124 159.26C81.1857 159.32 81.0724 159.337 80.9724 159.31C80.879 159.283 80.8057 159.23 80.7524 159.15C80.699 159.063 80.6724 158.97 80.6724 158.87C80.6724 158.77 80.699 158.673 80.7524 158.58C80.8057 158.48 80.8957 158.407 81.0224 158.36C81.329 158.233 81.6224 158.143 81.9024 158.09C82.189 158.037 82.449 158.01 82.6824 158.01C83.1624 158.01 83.5557 158.083 83.8624 158.23C84.1757 158.377 84.409 158.6 84.5624 158.9C84.7157 159.193 84.7924 159.573 84.7924 160.04V162.44C84.7924 162.647 84.7424 162.807 84.6424 162.92C84.5424 163.027 84.399 163.08 84.2124 163.08C84.0257 163.08 83.879 163.027 83.7724 162.92C83.6724 162.807 83.6224 162.647 83.6224 162.44V161.96H83.7024C83.6557 162.193 83.5624 162.397 83.4224 162.57C83.289 162.737 83.119 162.867 82.9124 162.96C82.7057 163.053 82.469 163.1 82.2024 163.1ZM81.1024 157.19C81.0024 157.183 80.9257 157.15 80.8724 157.09C80.819 157.03 80.8057 156.937 80.8324 156.81C80.859 156.67 80.899 156.533 80.9524 156.4C81.0124 156.26 81.089 156.133 81.1824 156.02C81.2757 155.907 81.389 155.817 81.5224 155.75C81.6557 155.677 81.8124 155.64 81.9924 155.64C82.159 155.64 82.3057 155.673 82.4324 155.74C82.559 155.807 82.6757 155.883 82.7824 155.97C82.889 156.057 82.9957 156.133 83.1024 156.2C83.209 156.267 83.3257 156.3 83.4524 156.3C83.5924 156.3 83.7124 156.253 83.8124 156.16C83.919 156.06 83.9857 155.937 84.0124 155.79C84.0257 155.717 84.059 155.66 84.1124 155.62C84.1724 155.58 84.2557 155.563 84.3624 155.57C84.4624 155.577 84.539 155.61 84.5924 155.67C84.6457 155.73 84.659 155.823 84.6324 155.95C84.599 156.13 84.5357 156.31 84.4424 156.49C84.349 156.67 84.2224 156.82 84.0624 156.94C83.909 157.06 83.7124 157.12 83.4724 157.12C83.3057 157.12 83.159 157.087 83.0324 157.02C82.9057 156.953 82.7857 156.877 82.6724 156.79C82.5657 156.703 82.459 156.627 82.3524 156.56C82.2457 156.493 82.1324 156.46 82.0124 156.46C81.8724 156.46 81.7524 156.507 81.6524 156.6C81.5524 156.693 81.4857 156.817 81.4524 156.97C81.439 157.043 81.4024 157.1 81.3424 157.14C81.289 157.18 81.209 157.197 81.1024 157.19ZM88.2911 163.1C87.7845 163.1 87.3445 162.997 86.9711 162.79C86.5978 162.583 86.3078 162.29 86.1011 161.91C85.8945 161.523 85.7911 161.07 85.7911 160.55C85.7911 160.157 85.8478 159.807 85.9611 159.5C86.0811 159.187 86.2511 158.92 86.4711 158.7C86.6911 158.473 86.9545 158.303 87.2611 158.19C87.5678 158.07 87.9111 158.01 88.2911 158.01C88.7978 158.01 89.2378 158.113 89.6111 158.32C89.9845 158.527 90.2745 158.82 90.4811 159.2C90.6878 159.58 90.7911 160.03 90.7911 160.55C90.7911 160.943 90.7311 161.297 90.6111 161.61C90.4978 161.923 90.3311 162.193 90.1111 162.42C89.8911 162.64 89.6278 162.81 89.3211 162.93C89.0145 163.043 88.6711 163.1 88.2911 163.1ZM88.2911 162.15C88.5378 162.15 88.7545 162.09 88.9411 161.97C89.1278 161.85 89.2711 161.673 89.3711 161.44C89.4778 161.2 89.5311 160.903 89.5311 160.55C89.5311 160.017 89.4178 159.62 89.1911 159.36C88.9645 159.093 88.6645 158.96 88.2911 158.96C88.0445 158.96 87.8278 159.02 87.6411 159.14C87.4545 159.253 87.3078 159.43 87.2011 159.67C87.1011 159.903 87.0511 160.197 87.0511 160.55C87.0511 161.077 87.1645 161.477 87.3911 161.75C87.6178 162.017 87.9178 162.15 88.2911 162.15ZM96.9477 163.1C96.3944 163.1 95.9177 162.997 95.5177 162.79C95.1177 162.583 94.8077 162.29 94.5877 161.91C94.3744 161.53 94.2677 161.08 94.2677 160.56C94.2677 160.053 94.371 159.61 94.5777 159.23C94.791 158.85 95.081 158.553 95.4477 158.34C95.821 158.12 96.2444 158.01 96.7177 158.01C97.0644 158.01 97.3744 158.067 97.6477 158.18C97.9277 158.293 98.1644 158.457 98.3577 158.67C98.5577 158.883 98.7077 159.143 98.8077 159.45C98.9144 159.75 98.9677 160.09 98.9677 160.47C98.9677 160.59 98.9244 160.683 98.8377 160.75C98.7577 160.81 98.641 160.84 98.4877 160.84H95.2777V160.12H98.0877L97.9277 160.27C97.9277 159.963 97.881 159.707 97.7877 159.5C97.701 159.293 97.571 159.137 97.3977 159.03C97.231 158.917 97.021 158.86 96.7677 158.86C96.4877 158.86 96.2477 158.927 96.0477 159.06C95.8544 159.187 95.7044 159.37 95.5977 159.61C95.4977 159.843 95.4477 160.123 95.4477 160.45V160.52C95.4477 161.067 95.5744 161.477 95.8277 161.75C96.0877 162.017 96.4677 162.15 96.9677 162.15C97.141 162.15 97.3344 162.13 97.5477 162.09C97.7677 162.043 97.9744 161.967 98.1677 161.86C98.3077 161.78 98.431 161.747 98.5377 161.76C98.6444 161.767 98.7277 161.803 98.7877 161.87C98.8544 161.937 98.8944 162.02 98.9077 162.12C98.921 162.213 98.901 162.31 98.8477 162.41C98.801 162.51 98.7177 162.597 98.5977 162.67C98.3644 162.817 98.0944 162.927 97.7877 163C97.4877 163.067 97.2077 163.1 96.9477 163.1ZM100.578 163.08C100.378 163.08 100.224 163.027 100.118 162.92C100.011 162.807 99.9576 162.647 99.9576 162.44V158.66C99.9576 158.453 100.011 158.297 100.118 158.19C100.224 158.083 100.374 158.03 100.568 158.03C100.761 158.03 100.911 158.083 101.018 158.19C101.124 158.297 101.178 158.453 101.178 158.66V159.34L101.068 159.09C101.214 158.737 101.441 158.47 101.748 158.29C102.061 158.103 102.414 158.01 102.808 158.01C103.201 158.01 103.524 158.083 103.778 158.23C104.031 158.377 104.221 158.6 104.348 158.9C104.474 159.193 104.538 159.567 104.538 160.02V162.44C104.538 162.647 104.484 162.807 104.378 162.92C104.271 163.027 104.118 163.08 103.918 163.08C103.718 163.08 103.561 163.027 103.448 162.92C103.341 162.807 103.288 162.647 103.288 162.44V160.08C103.288 159.7 103.214 159.423 103.068 159.25C102.928 159.077 102.708 158.99 102.408 158.99C102.041 158.99 101.748 159.107 101.528 159.34C101.314 159.567 101.208 159.87 101.208 160.25V162.44C101.208 162.867 100.998 163.08 100.578 163.08ZM108.067 163.1C107.554 163.1 107.107 162.997 106.727 162.79C106.347 162.577 106.054 162.277 105.847 161.89C105.641 161.503 105.537 161.05 105.537 160.53C105.537 160.137 105.594 159.787 105.707 159.48C105.827 159.167 105.997 158.903 106.217 158.69C106.437 158.47 106.704 158.303 107.017 158.19C107.331 158.07 107.681 158.01 108.067 158.01C108.287 158.01 108.524 158.04 108.777 158.1C109.037 158.16 109.281 158.26 109.507 158.4C109.614 158.467 109.684 158.547 109.717 158.64C109.751 158.733 109.757 158.83 109.737 158.93C109.717 159.023 109.674 159.107 109.607 159.18C109.547 159.247 109.471 159.29 109.377 159.31C109.284 159.323 109.181 159.3 109.067 159.24C108.921 159.153 108.771 159.09 108.617 159.05C108.464 159.003 108.317 158.98 108.177 158.98C107.957 158.98 107.764 159.017 107.597 159.09C107.431 159.157 107.287 159.257 107.167 159.39C107.054 159.517 106.967 159.677 106.907 159.87C106.847 160.063 106.817 160.287 106.817 160.54C106.817 161.033 106.934 161.423 107.167 161.71C107.407 161.99 107.744 162.13 108.177 162.13C108.317 162.13 108.461 162.11 108.607 162.07C108.761 162.03 108.914 161.967 109.067 161.88C109.181 161.82 109.281 161.8 109.367 161.82C109.461 161.84 109.537 161.887 109.597 161.96C109.657 162.027 109.694 162.11 109.707 162.21C109.721 162.303 109.707 162.397 109.667 162.49C109.634 162.583 109.567 162.66 109.467 162.72C109.247 162.853 109.014 162.95 108.767 163.01C108.521 163.07 108.287 163.1 108.067 163.1ZM112.656 163.1C112.15 163.1 111.71 162.997 111.336 162.79C110.963 162.583 110.673 162.29 110.466 161.91C110.26 161.523 110.156 161.07 110.156 160.55C110.156 160.157 110.213 159.807 110.326 159.5C110.446 159.187 110.616 158.92 110.836 158.7C111.056 158.473 111.32 158.303 111.626 158.19C111.933 158.07 112.276 158.01 112.656 158.01C113.163 158.01 113.603 158.113 113.976 158.32C114.35 158.527 114.64 158.82 114.846 159.2C115.053 159.58 115.156 160.03 115.156 160.55C115.156 160.943 115.096 161.297 114.976 161.61C114.863 161.923 114.696 162.193 114.476 162.42C114.256 162.64 113.993 162.81 113.686 162.93C113.38 163.043 113.036 163.1 112.656 163.1ZM112.656 162.15C112.903 162.15 113.12 162.09 113.306 161.97C113.493 161.85 113.636 161.673 113.736 161.44C113.843 161.2 113.896 160.903 113.896 160.55C113.896 160.017 113.783 159.62 113.556 159.36C113.33 159.093 113.03 158.96 112.656 158.96C112.41 158.96 112.193 159.02 112.006 159.14C111.82 159.253 111.673 159.43 111.566 159.67C111.466 159.903 111.416 160.197 111.416 160.55C111.416 161.077 111.53 161.477 111.756 161.75C111.983 162.017 112.283 162.15 112.656 162.15ZM116.808 163.08C116.608 163.08 116.455 163.027 116.348 162.92C116.241 162.807 116.188 162.647 116.188 162.44V158.66C116.188 158.453 116.241 158.297 116.348 158.19C116.455 158.083 116.605 158.03 116.798 158.03C116.991 158.03 117.141 158.083 117.248 158.19C117.355 158.297 117.408 158.453 117.408 158.66V159.34L117.298 159.09C117.445 158.737 117.671 158.47 117.978 158.29C118.291 158.103 118.645 158.01 119.038 158.01C119.431 158.01 119.755 158.083 120.008 158.23C120.261 158.377 120.451 158.6 120.578 158.9C120.705 159.193 120.768 159.567 120.768 160.02V162.44C120.768 162.647 120.715 162.807 120.608 162.92C120.501 163.027 120.348 163.08 120.148 163.08C119.948 163.08 119.791 163.027 119.678 162.92C119.571 162.807 119.518 162.647 119.518 162.44V160.08C119.518 159.7 119.445 159.423 119.298 159.25C119.158 159.077 118.938 158.99 118.638 158.99C118.271 158.99 117.978 159.107 117.758 159.34C117.545 159.567 117.438 159.87 117.438 160.25V162.44C117.438 162.867 117.228 163.08 116.808 163.08ZM124.278 163.1C123.844 163.1 123.481 163.027 123.188 162.88C122.901 162.733 122.688 162.52 122.548 162.24C122.408 161.953 122.338 161.6 122.338 161.18V159.05H121.818C121.658 159.05 121.534 159.01 121.448 158.93C121.361 158.843 121.318 158.727 121.318 158.58C121.318 158.427 121.361 158.31 121.448 158.23C121.534 158.15 121.658 158.11 121.818 158.11H122.338V157.2C122.338 156.993 122.391 156.837 122.498 156.73C122.611 156.623 122.768 156.57 122.968 156.57C123.168 156.57 123.321 156.623 123.428 156.73C123.534 156.837 123.588 156.993 123.588 157.2V158.11H124.648C124.808 158.11 124.931 158.15 125.018 158.23C125.104 158.31 125.148 158.427 125.148 158.58C125.148 158.727 125.104 158.843 125.018 158.93C124.931 159.01 124.808 159.05 124.648 159.05H123.588V161.11C123.588 161.43 123.658 161.67 123.798 161.83C123.938 161.99 124.164 162.07 124.478 162.07C124.591 162.07 124.691 162.06 124.778 162.04C124.864 162.02 124.941 162.007 125.008 162C125.088 161.993 125.154 162.02 125.208 162.08C125.261 162.133 125.288 162.247 125.288 162.42C125.288 162.553 125.264 162.673 125.218 162.78C125.178 162.88 125.101 162.95 124.988 162.99C124.901 163.017 124.788 163.04 124.648 163.06C124.508 163.087 124.384 163.1 124.278 163.1ZM126.516 163.08C126.309 163.08 126.149 163.027 126.036 162.92C125.929 162.807 125.876 162.647 125.876 162.44V158.66C125.876 158.453 125.929 158.297 126.036 158.19C126.142 158.083 126.292 158.03 126.486 158.03C126.679 158.03 126.829 158.083 126.936 158.19C127.042 158.297 127.096 158.453 127.096 158.66V159.29H126.996C127.089 158.89 127.272 158.587 127.546 158.38C127.819 158.173 128.182 158.05 128.636 158.01C128.776 157.997 128.886 158.033 128.966 158.12C129.052 158.2 129.102 158.327 129.116 158.5C129.129 158.667 129.089 158.803 128.996 158.91C128.909 159.01 128.776 159.07 128.596 159.09L128.376 159.11C127.969 159.15 127.662 159.277 127.456 159.49C127.249 159.697 127.146 159.99 127.146 160.37V162.44C127.146 162.647 127.092 162.807 126.986 162.92C126.879 163.027 126.722 163.08 126.516 163.08ZM131.353 163.1C130.999 163.1 130.683 163.033 130.403 162.9C130.129 162.76 129.913 162.573 129.753 162.34C129.599 162.107 129.523 161.843 129.523 161.55C129.523 161.19 129.616 160.907 129.803 160.7C129.989 160.487 130.293 160.333 130.713 160.24C131.133 160.147 131.696 160.1 132.403 160.1H132.903V160.82H132.413C131.999 160.82 131.669 160.84 131.423 160.88C131.176 160.92 130.999 160.99 130.893 161.09C130.793 161.183 130.743 161.317 130.743 161.49C130.743 161.71 130.819 161.89 130.973 162.03C131.126 162.17 131.339 162.24 131.613 162.24C131.833 162.24 132.026 162.19 132.193 162.09C132.366 161.983 132.503 161.84 132.603 161.66C132.703 161.48 132.753 161.273 132.753 161.04V159.89C132.753 159.557 132.679 159.317 132.533 159.17C132.386 159.023 132.139 158.95 131.793 158.95C131.599 158.95 131.389 158.973 131.163 159.02C130.943 159.067 130.709 159.147 130.463 159.26C130.336 159.32 130.223 159.337 130.123 159.31C130.029 159.283 129.956 159.23 129.903 159.15C129.849 159.063 129.823 158.97 129.823 158.87C129.823 158.77 129.849 158.673 129.903 158.58C129.956 158.48 130.046 158.407 130.173 158.36C130.479 158.233 130.773 158.143 131.053 158.09C131.339 158.037 131.599 158.01 131.833 158.01C132.313 158.01 132.706 158.083 133.013 158.23C133.326 158.377 133.559 158.6 133.713 158.9C133.866 159.193 133.943 159.573 133.943 160.04V162.44C133.943 162.647 133.893 162.807 133.793 162.92C133.693 163.027 133.549 163.08 133.363 163.08C133.176 163.08 133.029 163.027 132.923 162.92C132.823 162.807 132.773 162.647 132.773 162.44V161.96H132.853C132.806 162.193 132.713 162.397 132.573 162.57C132.439 162.737 132.269 162.867 132.063 162.96C131.856 163.053 131.619 163.1 131.353 163.1ZM135.852 163.08C135.652 163.08 135.498 163.027 135.392 162.92C135.285 162.807 135.232 162.647 135.232 162.44V158.66C135.232 158.453 135.285 158.297 135.392 158.19C135.498 158.083 135.648 158.03 135.842 158.03C136.035 158.03 136.185 158.083 136.292 158.19C136.398 158.297 136.452 158.453 136.452 158.66V159.39L136.342 159.09C136.475 158.757 136.682 158.493 136.962 158.3C137.242 158.107 137.575 158.01 137.962 158.01C138.355 158.01 138.678 158.103 138.932 158.29C139.185 158.477 139.362 158.763 139.462 159.15H139.322C139.455 158.797 139.675 158.52 139.982 158.32C140.288 158.113 140.642 158.01 141.042 158.01C141.415 158.01 141.722 158.083 141.962 158.23C142.208 158.377 142.392 158.6 142.512 158.9C142.632 159.193 142.692 159.567 142.692 160.02V162.44C142.692 162.647 142.635 162.807 142.522 162.92C142.415 163.027 142.262 163.08 142.062 163.08C141.862 163.08 141.708 163.027 141.602 162.92C141.495 162.807 141.442 162.647 141.442 162.44V160.07C141.442 159.697 141.378 159.423 141.252 159.25C141.132 159.077 140.925 158.99 140.632 158.99C140.305 158.99 140.048 159.107 139.862 159.34C139.675 159.567 139.582 159.883 139.582 160.29V162.44C139.582 162.647 139.528 162.807 139.422 162.92C139.315 163.027 139.162 163.08 138.962 163.08C138.762 163.08 138.605 163.027 138.492 162.92C138.385 162.807 138.332 162.647 138.332 162.44V160.07C138.332 159.697 138.268 159.423 138.142 159.25C138.022 159.077 137.818 158.99 137.532 158.99C137.205 158.99 136.948 159.107 136.762 159.34C136.575 159.567 136.482 159.883 136.482 160.29V162.44C136.482 162.867 136.272 163.08 135.852 163.08ZM146.211 163.1C145.704 163.1 145.264 162.997 144.891 162.79C144.518 162.583 144.228 162.29 144.021 161.91C143.814 161.523 143.711 161.07 143.711 160.55C143.711 160.157 143.768 159.807 143.881 159.5C144.001 159.187 144.171 158.92 144.391 158.7C144.611 158.473 144.874 158.303 145.181 158.19C145.488 158.07 145.831 158.01 146.211 158.01C146.718 158.01 147.158 158.113 147.531 158.32C147.904 158.527 148.194 158.82 148.401 159.2C148.608 159.58 148.711 160.03 148.711 160.55C148.711 160.943 148.651 161.297 148.531 161.61C148.418 161.923 148.251 162.193 148.031 162.42C147.811 162.64 147.548 162.81 147.241 162.93C146.934 163.043 146.591 163.1 146.211 163.1ZM146.211 162.15C146.458 162.15 146.674 162.09 146.861 161.97C147.048 161.85 147.191 161.673 147.291 161.44C147.398 161.2 147.451 160.903 147.451 160.55C147.451 160.017 147.338 159.62 147.111 159.36C146.884 159.093 146.584 158.96 146.211 158.96C145.964 158.96 145.748 159.02 145.561 159.14C145.374 159.253 145.228 159.43 145.121 159.67C145.021 159.903 144.971 160.197 144.971 160.55C144.971 161.077 145.084 161.477 145.311 161.75C145.538 162.017 145.838 162.15 146.211 162.15ZM151.533 163.1C151.246 163.1 150.943 163.07 150.623 163.01C150.303 162.95 150.016 162.847 149.763 162.7C149.656 162.633 149.579 162.557 149.533 162.47C149.493 162.377 149.476 162.287 149.483 162.2C149.496 162.107 149.529 162.027 149.583 161.96C149.643 161.893 149.716 161.85 149.803 161.83C149.896 161.81 149.996 161.827 150.103 161.88C150.369 162.007 150.619 162.097 150.853 162.15C151.086 162.197 151.316 162.22 151.543 162.22C151.863 162.22 152.099 162.167 152.253 162.06C152.413 161.947 152.493 161.8 152.493 161.62C152.493 161.467 152.439 161.35 152.333 161.27C152.233 161.183 152.079 161.12 151.873 161.08L150.873 160.89C150.459 160.81 150.143 160.66 149.923 160.44C149.709 160.213 149.603 159.923 149.603 159.57C149.603 159.25 149.689 158.973 149.863 158.74C150.043 158.507 150.289 158.327 150.603 158.2C150.916 158.073 151.276 158.01 151.683 158.01C151.976 158.01 152.249 158.043 152.503 158.11C152.763 158.17 153.013 158.267 153.253 158.4C153.353 158.453 153.419 158.523 153.453 158.61C153.493 158.697 153.503 158.787 153.483 158.88C153.463 158.967 153.423 159.047 153.363 159.12C153.303 159.187 153.226 159.23 153.133 159.25C153.046 159.263 152.946 159.243 152.833 159.19C152.626 159.083 152.426 159.007 152.233 158.96C152.046 158.913 151.866 158.89 151.693 158.89C151.366 158.89 151.123 158.947 150.963 159.06C150.809 159.173 150.733 159.323 150.733 159.51C150.733 159.65 150.779 159.767 150.873 159.86C150.966 159.953 151.109 160.017 151.303 160.05L152.303 160.24C152.736 160.32 153.063 160.467 153.283 160.68C153.509 160.893 153.623 161.18 153.623 161.54C153.623 162.027 153.433 162.41 153.053 162.69C152.673 162.963 152.166 163.1 151.533 163.1ZM63.9943 177.1C63.4876 177.1 63.0476 176.997 62.6743 176.79C62.3009 176.583 62.0109 176.29 61.8043 175.91C61.5976 175.523 61.4943 175.07 61.4943 174.55C61.4943 174.157 61.5509 173.807 61.6643 173.5C61.7843 173.187 61.9543 172.92 62.1743 172.7C62.3943 172.473 62.6576 172.303 62.9643 172.19C63.2709 172.07 63.6143 172.01 63.9943 172.01C64.5009 172.01 64.9409 172.113 65.3143 172.32C65.6876 172.527 65.9776 172.82 66.1843 173.2C66.3909 173.58 66.4943 174.03 66.4943 174.55C66.4943 174.943 66.4343 175.297 66.3143 175.61C66.2009 175.923 66.0343 176.193 65.8143 176.42C65.5943 176.64 65.3309 176.81 65.0243 176.93C64.7176 177.043 64.3743 177.1 63.9943 177.1ZM63.9943 176.15C64.2409 176.15 64.4576 176.09 64.6443 175.97C64.8309 175.85 64.9743 175.673 65.0743 175.44C65.1809 175.2 65.2343 174.903 65.2343 174.55C65.2343 174.017 65.1209 173.62 64.8943 173.36C64.6676 173.093 64.3676 172.96 63.9943 172.96C63.7476 172.96 63.5309 173.02 63.3443 173.14C63.1576 173.253 63.0109 173.43 62.9043 173.67C62.8043 173.903 62.7543 174.197 62.7543 174.55C62.7543 175.077 62.8676 175.477 63.0943 175.75C63.3209 176.017 63.6209 176.15 63.9943 176.15ZM72.2208 177.08C72.0542 177.08 71.9075 177.037 71.7808 176.95C71.6608 176.863 71.5608 176.73 71.4808 176.55L69.8908 172.86C69.8308 172.713 69.8075 172.577 69.8208 172.45C69.8408 172.323 69.9008 172.223 70.0008 172.15C70.1075 172.07 70.2508 172.03 70.4308 172.03C70.5842 172.03 70.7075 172.067 70.8008 172.14C70.8942 172.207 70.9775 172.337 71.0508 172.53L72.4008 175.9H72.1008L73.4908 172.52C73.5642 172.333 73.6475 172.207 73.7408 172.14C73.8408 172.067 73.9742 172.03 74.1408 172.03C74.2875 172.03 74.4042 172.07 74.4908 172.15C74.5775 172.223 74.6308 172.323 74.6508 172.45C74.6708 172.57 74.6475 172.703 74.5808 172.85L72.9608 176.55C72.8875 176.73 72.7875 176.863 72.6608 176.95C72.5408 177.037 72.3942 177.08 72.2208 177.08ZM76.1343 177.07C75.9343 177.07 75.7809 177.01 75.6743 176.89C75.5676 176.77 75.5143 176.603 75.5143 176.39V172.72C75.5143 172.5 75.5676 172.333 75.6743 172.22C75.7809 172.1 75.9343 172.04 76.1343 172.04C76.3343 172.04 76.4876 172.1 76.5943 172.22C76.7076 172.333 76.7643 172.5 76.7643 172.72V176.39C76.7643 176.603 76.7109 176.77 76.6043 176.89C76.4976 177.01 76.3409 177.07 76.1343 177.07ZM76.6043 171.4C76.5376 171.493 76.4576 171.547 76.3643 171.56C76.2709 171.573 76.1809 171.557 76.0943 171.51C76.0076 171.463 75.9443 171.397 75.9043 171.31C75.8709 171.223 75.8809 171.127 75.9343 171.02L76.6943 169.53C76.7543 169.403 76.8343 169.323 76.9343 169.29C77.0343 169.25 77.1376 169.243 77.2443 169.27C77.3509 169.297 77.4409 169.347 77.5143 169.42C77.5943 169.493 77.6409 169.583 77.6543 169.69C77.6743 169.79 77.6476 169.893 77.5743 170L76.6043 171.4ZM79.9431 177.1C79.5164 177.1 79.1398 176.997 78.8131 176.79C78.4931 176.583 78.2431 176.29 78.0631 175.91C77.8831 175.523 77.7931 175.07 77.7931 174.55C77.7931 174.023 77.8831 173.573 78.0631 173.2C78.2431 172.82 78.4931 172.527 78.8131 172.32C79.1398 172.113 79.5164 172.01 79.9431 172.01C80.3498 172.01 80.7031 172.11 81.0031 172.31C81.3098 172.51 81.5164 172.773 81.6231 173.1H81.5131V170.5C81.5131 170.293 81.5664 170.137 81.6731 170.03C81.7798 169.923 81.9331 169.87 82.1331 169.87C82.3331 169.87 82.4864 169.923 82.5931 170.03C82.7064 170.137 82.7631 170.293 82.7631 170.5V176.44C82.7631 176.647 82.7098 176.807 82.6031 176.92C82.4964 177.027 82.3431 177.08 82.1431 177.08C81.9431 177.08 81.7898 177.027 81.6831 176.92C81.5764 176.807 81.5231 176.647 81.5231 176.44V175.66L81.6331 175.96C81.5331 176.307 81.3298 176.583 81.0231 176.79C80.7164 176.997 80.3564 177.1 79.9431 177.1ZM80.2931 176.15C80.5398 176.15 80.7564 176.09 80.9431 175.97C81.1298 175.85 81.2731 175.673 81.3731 175.44C81.4798 175.2 81.5331 174.903 81.5331 174.55C81.5331 174.017 81.4198 173.62 81.1931 173.36C80.9664 173.093 80.6664 172.96 80.2931 172.96C80.0464 172.96 79.8298 173.02 79.6431 173.14C79.4564 173.253 79.3098 173.43 79.2031 173.67C79.1031 173.903 79.0531 174.197 79.0531 174.55C79.0531 175.077 79.1664 175.477 79.3931 175.75C79.6198 176.017 79.9198 176.15 80.2931 176.15ZM86.4692 177.1C85.9158 177.1 85.4392 176.997 85.0392 176.79C84.6392 176.583 84.3292 176.29 84.1092 175.91C83.8958 175.53 83.7892 175.08 83.7892 174.56C83.7892 174.053 83.8925 173.61 84.0992 173.23C84.3125 172.85 84.6025 172.553 84.9692 172.34C85.3425 172.12 85.7658 172.01 86.2392 172.01C86.5858 172.01 86.8958 172.067 87.1692 172.18C87.4492 172.293 87.6858 172.457 87.8792 172.67C88.0792 172.883 88.2292 173.143 88.3292 173.45C88.4358 173.75 88.4892 174.09 88.4892 174.47C88.4892 174.59 88.4458 174.683 88.3592 174.75C88.2792 174.81 88.1625 174.84 88.0092 174.84H84.7992V174.12H87.6092L87.4492 174.27C87.4492 173.963 87.4025 173.707 87.3092 173.5C87.2225 173.293 87.0925 173.137 86.9192 173.03C86.7525 172.917 86.5425 172.86 86.2892 172.86C86.0092 172.86 85.7692 172.927 85.5692 173.06C85.3758 173.187 85.2258 173.37 85.1192 173.61C85.0192 173.843 84.9692 174.123 84.9692 174.45V174.52C84.9692 175.067 85.0958 175.477 85.3492 175.75C85.6092 176.017 85.9892 176.15 86.4892 176.15C86.6625 176.15 86.8558 176.13 87.0692 176.09C87.2892 176.043 87.4958 175.967 87.6892 175.86C87.8292 175.78 87.9525 175.747 88.0592 175.76C88.1658 175.767 88.2492 175.803 88.3092 175.87C88.3758 175.937 88.4158 176.02 88.4292 176.12C88.4425 176.213 88.4225 176.31 88.3692 176.41C88.3225 176.51 88.2392 176.597 88.1192 176.67C87.8858 176.817 87.6158 176.927 87.3092 177C87.0092 177.067 86.7292 177.1 86.4692 177.1ZM91.7091 177.1C91.2024 177.1 90.7624 176.997 90.3891 176.79C90.0158 176.583 89.7258 176.29 89.5191 175.91C89.3124 175.523 89.2091 175.07 89.2091 174.55C89.2091 174.157 89.2658 173.807 89.3791 173.5C89.4991 173.187 89.6691 172.92 89.8891 172.7C90.1091 172.473 90.3724 172.303 90.6791 172.19C90.9858 172.07 91.3291 172.01 91.7091 172.01C92.2158 172.01 92.6558 172.113 93.0291 172.32C93.4024 172.527 93.6924 172.82 93.8991 173.2C94.1058 173.58 94.2091 174.03 94.2091 174.55C94.2091 174.943 94.1491 175.297 94.0291 175.61C93.9158 175.923 93.7491 176.193 93.5291 176.42C93.3091 176.64 93.0458 176.81 92.7391 176.93C92.4324 177.043 92.0891 177.1 91.7091 177.1ZM91.7091 176.15C91.9558 176.15 92.1724 176.09 92.3591 175.97C92.5458 175.85 92.6891 175.673 92.7891 175.44C92.8958 175.2 92.9491 174.903 92.9491 174.55C92.9491 174.017 92.8358 173.62 92.6091 173.36C92.3824 173.093 92.0824 172.96 91.7091 172.96C91.4624 172.96 91.2458 173.02 91.0591 173.14C90.8724 173.253 90.7258 173.43 90.6191 173.67C90.5191 173.903 90.4691 174.197 90.4691 174.55C90.4691 175.077 90.5824 175.477 90.8091 175.75C91.0358 176.017 91.3358 176.15 91.7091 176.15ZM95.6553 177.05C95.4286 177.05 95.2453 176.98 95.1053 176.84C94.9719 176.7 94.9053 176.52 94.9053 176.3C94.9053 176.087 94.9719 175.913 95.1053 175.78C95.2453 175.64 95.4286 175.57 95.6553 175.57C95.8886 175.57 96.0686 175.64 96.1953 175.78C96.3286 175.913 96.3953 176.087 96.3953 176.3C96.3953 176.52 96.3286 176.7 96.1953 176.84C96.0686 176.98 95.8886 177.05 95.6553 177.05Z" fill="black" fill-opacity="0.5" shape-rendering="crispEdges"/>
</g>
<g filter="url(#filter1_d_148_6)">
<path d="M143.072 83.391L126.454 66.5C125.836 65.8767 125.101 65.382 124.291 65.0444C123.48 64.7068 122.612 64.5329 121.734 64.5329C120.857 64.5329 119.988 64.7068 119.178 65.0444C118.368 65.382 117.632 65.8767 117.014 66.5L98.4682 85.386L79.9219 66.5C79.304 65.8767 78.5688 65.382 77.7587 65.0444C76.9487 64.7068 76.0798 64.5329 75.2023 64.5329C74.3247 64.5329 73.4559 64.7068 72.6458 65.0444C71.8358 65.382 71.1006 65.8767 70.4826 66.5L55.2601 82.061L40.0375 66.5C39.4195 65.8767 38.6843 65.382 37.8743 65.0444C37.0642 64.7068 36.1954 64.5329 35.3179 64.5329C34.4403 64.5329 33.5715 64.7068 32.7614 65.0444C31.9514 65.382 31.2162 65.8767 30.5982 66.5L13.9797 83.125C13.3745 83.7574 12.9001 84.5032 12.5837 85.3195C12.2431 86.119 12.0624 86.9775 12.0519 87.8465V113.05C12.0519 118.341 14.153 123.415 17.8929 127.157C21.6328 130.898 26.7052 133 31.9942 133H125.058C130.347 133 135.419 130.898 139.159 127.157C142.899 123.415 145 118.341 145 113.05V88.1125C144.989 87.2435 144.809 86.385 144.468 85.5855C144.152 84.7692 143.677 84.0234 143.072 83.391V83.391ZM131.705 113.05C131.705 114.814 131.005 116.505 129.758 117.752C128.512 118.999 126.821 119.7 125.058 119.7H31.9942C30.2312 119.7 28.5404 118.999 27.2937 117.752C26.0471 116.505 25.3468 114.814 25.3468 113.05V90.839L35.3179 80.864L50.5404 96.159C51.1584 96.7823 51.8936 97.277 52.7036 97.6146C53.5137 97.9522 54.3825 98.1261 55.2601 98.1261C56.1376 98.1261 57.0065 97.9522 57.8165 97.6146C58.6265 97.277 59.3618 96.7823 59.9797 96.159L75.2023 80.864L93.7485 99.75C94.3665 100.373 95.1017 100.868 95.9117 101.206C96.7218 101.543 97.5906 101.717 98.4682 101.717C99.3457 101.717 100.215 101.543 101.025 101.206C101.835 100.868 102.57 100.373 103.188 99.75L121.734 81.13L131.705 91.105V113.05ZM125.058 0H31.9942C26.7052 0 21.6328 2.10187 17.8929 5.84322C14.153 9.58457 12.0519 14.6589 12.0519 19.95V54.929C11.9827 55.5255 11.9827 56.128 12.0519 56.7245V57.3895C12.4681 58.4294 13.1402 59.3473 14.0057 60.058C14.8712 60.7687 15.9021 61.2491 17.0028 61.4548C18.1035 61.6604 19.2383 61.5845 20.3019 61.2342C21.3654 60.884 22.3233 60.2706 23.0866 59.451L35.3179 47.614L50.5404 62.909C51.1584 63.5323 51.8936 64.027 52.7036 64.3646C53.5137 64.7022 54.3825 64.8761 55.2601 64.8761C56.1376 64.8761 57.0065 64.7022 57.8165 64.3646C58.6265 64.027 59.3618 63.5323 59.9797 62.909L75.2023 47.614L93.7485 66.5C94.3665 67.1233 95.1017 67.618 95.9117 67.9556C96.7218 68.2932 97.5906 68.4671 98.4682 68.4671C99.3457 68.4671 100.215 68.2932 101.025 67.9556C101.835 67.618 102.57 67.1233 103.188 66.5L121.734 47.88L133.5 59.717C134.263 60.5366 135.221 61.15 136.285 61.5002C137.348 61.8505 138.483 61.9264 139.584 61.7208C140.684 61.5151 141.715 61.0347 142.581 60.324C143.446 59.6133 144.118 58.6954 144.535 57.6555C144.567 57.4573 144.567 57.2552 144.535 57.057C144.768 56.4623 144.903 55.8333 144.934 55.195V19.95C144.934 14.6704 142.842 9.60612 139.116 5.86668C135.391 2.12723 130.335 0.0175986 125.058 0V0ZM131.705 38.836L126.454 33.25C125.836 32.6267 125.101 32.132 124.291 31.7944C123.48 31.4568 122.612 31.2829 121.734 31.2829C120.857 31.2829 119.988 31.4568 119.178 31.7944C118.368 32.132 117.632 32.6267 117.014 33.25L98.4682 52.136L79.9219 33.25C79.304 32.6267 78.5688 32.132 77.7587 31.7944C76.9487 31.4568 76.0798 31.2829 75.2023 31.2829C74.3247 31.2829 73.4559 31.4568 72.6458 31.7944C71.8358 32.132 71.1006 32.6267 70.4826 33.25L55.2601 48.811L40.0375 33.25C39.4195 32.6267 38.6843 32.132 37.8743 31.7944C37.0642 31.4568 36.1954 31.2829 35.3179 31.2829C34.4403 31.2829 33.5715 31.4568 32.7614 31.7944C31.9514 32.132 31.2162 32.6267 30.5982 33.25L25.3468 38.836V19.95C25.3468 18.1863 26.0471 16.4949 27.2937 15.2477C28.5404 14.0006 30.2312 13.3 31.9942 13.3H125.058C126.821 13.3 128.512 14.0006 129.758 15.2477C131.005 16.4949 131.705 18.1863 131.705 19.95V38.836Z" fill="black" fill-opacity="0.1" shape-rendering="crispEdges"/>
</g>
<defs>
<filter id="filter0_d_148_6" x="0.794434" y="152.56" width="156.828" height="29.54" filterUnits="userSpaceOnUse" color-interpolation-filters="sRGB">
<feFlood flood-opacity="0" result="BackgroundImageFix"/>
<feColorMatrix in="SourceAlpha" type="matrix" values="0 0 0 0 0 0 0 0 0 0 0 0 0 0 0 0 0 0 127 0" result="hardAlpha"/>
<feOffset dy="1"/>
<feGaussianBlur stdDeviation="2"/>
<feComposite in2="hardAlpha" operator="out"/>
<feColorMatrix type="matrix" values="0 0 0 0 0 0 0 0 0 0 0 0 0 0 0 0 0 0 0.25 0"/>
<feBlend mode="normal" in2="BackgroundImageFix" result="effect1_dropShadow_148_6"/>
<feBlend mode="normal" in="SourceGraphic" in2="effect1_dropShadow_148_6" result="shape"/>
</filter>
<filter id="filter1_d_148_6" x="8" y="0" width="141" height="141" filterUnits="userSpaceOnUse" color-interpolation-filters="sRGB">
<feFlood flood-opacity="0" result="BackgroundImageFix"/>
<feColorMatrix in="SourceAlpha" type="matrix" values="0 0 0 0 0 0 0 0 0 0 0 0 0 0 0 0 0 0 127 0" result="hardAlpha"/>
<feOffset dy="4"/>
<feGaussianBlur stdDeviation="2"/>
<feComposite in2="hardAlpha" operator="out"/>
<feColorMatrix type="matrix" values="0 0 0 0 0 0 0 0 0 0 0 0 0 0 0 0 0 0 0.25 0"/>
<feBlend mode="normal" in2="BackgroundImageFix" result="effect1_dropShadow_148_6"/>
<feBlend mode="normal" in="SourceGraphic" in2="effect1_dropShadow_148_6" result="shape"/>
</filter>
</defs>
</svg>
