<svg width="1126" height="688" viewBox="0 0 1126 688" fill="none" xmlns="http://www.w3.org/2000/svg">
<rect x="0.0366211" y="-137.001" width="1126" height="222" fill="#FFAE42"/>
<g clip-path="url(#clip0_20_731)">
<path d="M1126.04 227.999L1100.04 233.199C1074.04 238.299 1022.04 248.699 970.037 247.499C918.037 246.299 866.037 233.699 814.037 236.699C762.037 239.699 710.037 258.299 658.237 261.199C606.337 263.999 554.737 250.999 502.837 240.499C451.037 229.999 399.037 221.999 347.037 223.799C295.037 225.699 243.037 237.299 191.037 245.299C139.037 253.299 87.0366 257.699 61.0366 259.799L35.0366 261.999V72.9987H61.0366C87.0366 72.9987 139.037 72.9987 191.037 72.9987C243.037 72.9987 295.037 72.9987 347.037 72.9987C399.037 72.9987 451.037 72.9987 502.837 72.9987C554.737 72.9987 606.337 72.9987 658.237 72.9987C710.037 72.9987 762.037 72.9987 814.037 72.9987C866.037 72.9987 918.037 72.9987 970.037 72.9987C1022.04 72.9987 1074.04 72.9987 1100.04 72.9987H1126.04V227.999Z" fill="#FFDEBF"/>
<path d="M1126.04 227.999L1100.04 222.299C1074.04 216.699 1022.04 205.299 970.037 205.699C918.037 205.999 866.037 217.999 814.037 218.999C762.037 219.999 710.037 209.999 658.237 204.499C606.337 198.999 554.737 197.999 502.837 200.199C451.037 202.299 399.037 207.699 347.037 208.999C295.037 210.299 243.037 207.699 191.037 214.199C139.037 220.699 87.0366 236.299 61.0366 244.199L35.0366 251.999V72.9987H61.0366C87.0366 72.9987 139.037 72.9987 191.037 72.9987C243.037 72.9987 295.037 72.9987 347.037 72.9987C399.037 72.9987 451.037 72.9987 502.837 72.9987C554.737 72.9987 606.337 72.9987 658.237 72.9987C710.037 72.9987 762.037 72.9987 814.037 72.9987C866.037 72.9987 918.037 72.9987 970.037 72.9987C1022.04 72.9987 1074.04 72.9987 1100.04 72.9987H1126.04V227.999Z" fill="#FFD7AE"/>
<path d="M1126.04 223.999L1100.04 218.299C1074.04 212.699 1022.04 201.299 970.037 201.499C918.037 201.699 866.037 213.299 814.037 210.799C762.037 208.299 710.037 191.699 658.237 185.299C606.337 178.999 554.737 182.999 502.837 185.499C451.037 187.999 399.037 188.999 347.037 191.199C295.037 193.299 243.037 196.699 191.037 194.799C139.037 192.999 87.0366 185.999 61.0366 182.499L35.0366 178.999V72.9987H61.0366C87.0366 72.9987 139.037 72.9987 191.037 72.9987C243.037 72.9987 295.037 72.9987 347.037 72.9987C399.037 72.9987 451.037 72.9987 502.837 72.9987C554.737 72.9987 606.337 72.9987 658.237 72.9987C710.037 72.9987 762.037 72.9987 814.037 72.9987C866.037 72.9987 918.037 72.9987 970.037 72.9987C1022.04 72.9987 1074.04 72.9987 1100.04 72.9987H1126.04V223.999Z" fill="#FFD09D"/>
<path d="M1126.04 180.999L1100.04 180.499C1074.04 179.999 1022.04 178.999 970.037 181.799C918.037 184.699 866.037 191.299 814.037 194.699C762.037 197.999 710.037 197.999 658.237 197.699C606.337 197.299 554.737 196.699 502.837 194.499C451.037 192.299 399.037 188.699 347.037 183.499C295.037 178.299 243.037 171.699 191.037 171.499C139.037 171.299 87.0366 177.699 61.0366 180.799L35.0366 183.999V72.9987H61.0366C87.0366 72.9987 139.037 72.9987 191.037 72.9987C243.037 72.9987 295.037 72.9987 347.037 72.9987C399.037 72.9987 451.037 72.9987 502.837 72.9987C554.737 72.9987 606.337 72.9987 658.237 72.9987C710.037 72.9987 762.037 72.9987 814.037 72.9987C866.037 72.9987 918.037 72.9987 970.037 72.9987C1022.04 72.9987 1074.04 72.9987 1100.04 72.9987H1126.04V180.999Z" fill="#FFC98C"/>
<path d="M1126.04 144.999L1100.04 147.699C1074.04 150.299 1022.04 155.699 970.037 162.499C918.037 169.299 866.037 177.699 814.037 179.299C762.037 180.999 710.037 175.999 658.237 170.299C606.337 164.699 554.737 158.299 502.837 155.999C451.037 153.699 399.037 155.299 347.037 155.299C295.037 155.299 243.037 153.699 191.037 156.699C139.037 159.699 87.0366 167.299 61.0366 171.199L35.0366 174.999V72.9987H61.0366C87.0366 72.9987 139.037 72.9987 191.037 72.9987C243.037 72.9987 295.037 72.9987 347.037 72.9987C399.037 72.9987 451.037 72.9987 502.837 72.9987C554.737 72.9987 606.337 72.9987 658.237 72.9987C710.037 72.9987 762.037 72.9987 814.037 72.9987C866.037 72.9987 918.037 72.9987 970.037 72.9987C1022.04 72.9987 1074.04 72.9987 1100.04 72.9987H1126.04V144.999Z" fill="#FFC37A"/>
<path d="M1126.04 156.999L1100.04 155.799C1074.04 154.699 1022.04 152.299 970.037 147.699C918.037 142.999 866.037 135.999 814.037 131.999C762.037 127.999 710.037 126.999 658.237 128.999C606.337 130.999 554.737 135.999 502.837 139.799C451.037 143.699 399.037 146.299 347.037 146.999C295.037 147.699 243.037 146.299 191.037 143.199C139.037 139.999 87.0366 134.999 61.0366 132.499L35.0366 129.999V72.9987H61.0366C87.0366 72.9987 139.037 72.9987 191.037 72.9987C243.037 72.9987 295.037 72.9987 347.037 72.9987C399.037 72.9987 451.037 72.9987 502.837 72.9987C554.737 72.9987 606.337 72.9987 658.237 72.9987C710.037 72.9987 762.037 72.9987 814.037 72.9987C866.037 72.9987 918.037 72.9987 970.037 72.9987C1022.04 72.9987 1074.04 72.9987 1100.04 72.9987H1126.04V156.999Z" fill="#FFBC68"/>
<path d="M1126.04 138.999L1100.04 135.799C1074.04 132.699 1022.04 126.299 970.037 122.699C918.037 118.999 866.037 117.999 814.037 117.299C762.037 116.699 710.037 116.299 658.237 118.699C606.337 120.999 554.737 125.999 502.837 125.999C451.037 125.999 399.037 120.999 347.037 119.699C295.037 118.299 243.037 120.699 191.037 123.799C139.037 126.999 87.0366 130.999 61.0366 132.999L35.0366 134.999V72.9987H61.0366C87.0366 72.9987 139.037 72.9987 191.037 72.9987C243.037 72.9987 295.037 72.9987 347.037 72.9987C399.037 72.9987 451.037 72.9987 502.837 72.9987C554.737 72.9987 606.337 72.9987 658.237 72.9987C710.037 72.9987 762.037 72.9987 814.037 72.9987C866.037 72.9987 918.037 72.9987 970.037 72.9987C1022.04 72.9987 1074.04 72.9987 1100.04 72.9987H1126.04V138.999Z" fill="#FFB556"/>
<path d="M1126.04 94.9987L1100.04 96.9987C1074.04 98.9987 1022.04 102.999 970.037 104.199C918.037 105.299 866.037 103.699 814.037 101.499C762.037 99.2987 710.037 96.6987 658.237 95.6987C606.337 94.6987 554.737 95.2987 502.837 96.4987C451.037 97.6987 399.037 99.2987 347.037 98.6987C295.037 97.9987 243.037 94.9987 191.037 96.9987C139.037 98.9987 87.0366 105.999 61.0366 109.499L35.0366 112.999V72.9987H61.0366C87.0366 72.9987 139.037 72.9987 191.037 72.9987C243.037 72.9987 295.037 72.9987 347.037 72.9987C399.037 72.9987 451.037 72.9987 502.837 72.9987C554.737 72.9987 606.337 72.9987 658.237 72.9987C710.037 72.9987 762.037 72.9987 814.037 72.9987C866.037 72.9987 918.037 72.9987 970.037 72.9987C1022.04 72.9987 1074.04 72.9987 1100.04 72.9987H1126.04V94.9987Z" fill="#FFAE42"/>
</g>
<defs>
<clipPath id="clip0_20_731">
<rect width="1091" height="614" fill="white" transform="translate(1126.04 687.999) rotate(-180)"/>
</clipPath>
</defs>
</svg>
