<svg width="253" height="251" viewBox="0 0 253 251" fill="none" xmlns="http://www.w3.org/2000/svg">
<circle cx="82.5535" cy="11.5696" r="8.72727" transform="rotate(24.62 82.5535 11.5696)" fill="#FA7268" fill-opacity="0.1"/>
<circle cx="68.3568" cy="42.5496" r="8.72727" transform="rotate(24.62 68.3568 42.5496)" fill="#FA7268" fill-opacity="0.1"/>
<circle cx="54.16" cy="73.5295" r="8.72727" transform="rotate(24.62 54.16 73.5295)" fill="#FA7268" fill-opacity="0.1"/>
<circle cx="39.9632" cy="104.509" r="8.72727" transform="rotate(24.62 39.9632 104.509)" fill="#FA7268" fill-opacity="0.1"/>
<circle cx="25.7664" cy="135.489" r="8.72727" transform="rotate(24.62 25.7664 135.489)" fill="#FA7268" fill-opacity="0.1"/>
<circle cx="11.5696" cy="166.469" r="8.72727" transform="rotate(24.62 11.5696 166.469)" fill="#FA7268" fill-opacity="0.1"/>
<circle cx="109" cy="23.6888" r="8.72727" transform="rotate(24.62 109 23.6888)" fill="#FA7268" fill-opacity="0.1"/>
<circle cx="94.803" cy="54.6688" r="8.72727" transform="rotate(24.62 94.803 54.6688)" fill="#FA7268" fill-opacity="0.1"/>
<circle cx="80.6063" cy="85.6487" r="8.72727" transform="rotate(24.62 80.6063 85.6487)" fill="#FA7268" fill-opacity="0.1"/>
<circle cx="66.4095" cy="116.629" r="8.72727" transform="rotate(24.62 66.4095 116.629)" fill="#FA7268" fill-opacity="0.1"/>
<circle cx="52.2127" cy="147.609" r="8.72727" transform="rotate(24.62 52.2127 147.609)" fill="#FA7268" fill-opacity="0.1"/>
<circle cx="38.0159" cy="178.589" r="8.72727" transform="rotate(24.62 38.0159 178.589)" fill="#FA7268" fill-opacity="0.1"/>
<circle cx="135.446" cy="35.808" r="8.72727" transform="rotate(24.62 135.446 35.808)" fill="#FA7268" fill-opacity="0.1"/>
<circle cx="121.249" cy="66.788" r="8.72727" transform="rotate(24.62 121.249 66.788)" fill="#FA7268" fill-opacity="0.1"/>
<circle cx="107.053" cy="97.7679" r="8.72727" transform="rotate(24.62 107.053 97.7679)" fill="#FA7268" fill-opacity="0.1"/>
<circle cx="92.8558" cy="128.748" r="8.72727" transform="rotate(24.62 92.8558 128.748)" fill="#FA7268" fill-opacity="0.1"/>
<circle cx="78.659" cy="159.728" r="8.72727" transform="rotate(24.62 78.659 159.728)" fill="#FA7268" fill-opacity="0.1"/>
<circle cx="64.4622" cy="190.708" r="8.72727" transform="rotate(24.62 64.4622 190.708)" fill="#FA7268" fill-opacity="0.1"/>
<circle cx="161.892" cy="47.9272" r="8.72727" transform="rotate(24.62 161.892 47.9272)" fill="#FA7268" fill-opacity="0.1"/>
<circle cx="147.696" cy="78.9072" r="8.72727" transform="rotate(24.62 147.696 78.9072)" fill="#FA7268" fill-opacity="0.1"/>
<circle cx="133.499" cy="109.887" r="8.72727" transform="rotate(24.62 133.499 109.887)" fill="#FA7268" fill-opacity="0.1"/>
<circle cx="119.302" cy="140.867" r="8.72727" transform="rotate(24.62 119.302 140.867)" fill="#FA7268" fill-opacity="0.1"/>
<circle cx="105.105" cy="171.847" r="8.72727" transform="rotate(24.62 105.105 171.847)" fill="#FA7268" fill-opacity="0.1"/>
<circle cx="90.9085" cy="202.827" r="8.72727" transform="rotate(24.62 90.9085 202.827)" fill="#FA7268" fill-opacity="0.1"/>
<circle cx="188.339" cy="60.0465" r="8.72727" transform="rotate(24.62 188.339 60.0465)" fill="#FA7268" fill-opacity="0.1"/>
<circle cx="174.142" cy="91.0264" r="8.72727" transform="rotate(24.62 174.142 91.0264)" fill="#FA7268" fill-opacity="0.1"/>
<circle cx="159.945" cy="122.006" r="8.72727" transform="rotate(24.62 159.945 122.006)" fill="#FA7268" fill-opacity="0.1"/>
<circle cx="145.748" cy="152.986" r="8.72727" transform="rotate(24.62 145.748 152.986)" fill="#FA7268" fill-opacity="0.1"/>
<circle cx="131.552" cy="183.966" r="8.72727" transform="rotate(24.62 131.552 183.966)" fill="#FA7268" fill-opacity="0.1"/>
<circle cx="117.355" cy="214.946" r="8.72727" transform="rotate(24.62 117.355 214.946)" fill="#FA7268" fill-opacity="0.1"/>
<circle cx="214.785" cy="72.1657" r="8.72727" transform="rotate(24.62 214.785 72.1657)" fill="#FA7268" fill-opacity="0.1"/>
<circle cx="200.588" cy="103.146" r="8.72727" transform="rotate(24.62 200.588 103.146)" fill="#FA7268" fill-opacity="0.1"/>
<circle cx="186.391" cy="134.125" r="8.72727" transform="rotate(24.62 186.391 134.125)" fill="#FA7268" fill-opacity="0.1"/>
<circle cx="172.195" cy="165.105" r="8.72727" transform="rotate(24.62 172.195 165.105)" fill="#FA7268" fill-opacity="0.1"/>
<circle cx="157.998" cy="196.085" r="8.72727" transform="rotate(24.62 157.998 196.085)" fill="#FA7268" fill-opacity="0.1"/>
<circle cx="143.801" cy="227.065" r="8.72727" transform="rotate(24.62 143.801 227.065)" fill="#FA7268" fill-opacity="0.1"/>
<circle cx="241.231" cy="84.2849" r="8.72727" transform="rotate(24.62 241.231 84.2849)" fill="#FA7268" fill-opacity="0.1"/>
<circle cx="227.034" cy="115.265" r="8.72727" transform="rotate(24.62 227.034 115.265)" fill="#FA7268" fill-opacity="0.1"/>
<circle cx="212.838" cy="146.245" r="8.72727" transform="rotate(24.62 212.838 146.245)" fill="#FA7268" fill-opacity="0.1"/>
<circle cx="198.641" cy="177.225" r="8.72727" transform="rotate(24.62 198.641 177.225)" fill="#FA7268" fill-opacity="0.1"/>
<circle cx="184.444" cy="208.205" r="8.72727" transform="rotate(24.62 184.444 208.205)" fill="#FA7268" fill-opacity="0.1"/>
<circle cx="170.247" cy="239.185" r="8.72727" transform="rotate(24.62 170.247 239.185)" fill="#FA7268" fill-opacity="0.1"/>
</svg>
