<svg width="462" height="84" viewBox="0 0 462 84" fill="none" xmlns="http://www.w3.org/2000/svg">
<g filter="url(#filter0_i_16_425)">
<path d="M2.70235 27.296C1.93769 27.296 1.34569 27.0863 0.926352 26.667C0.531685 26.223 0.334352 25.6187 0.334352 24.854V3.32C0.334352 2.53066 0.544018 1.93867 0.963352 1.544C1.38269 1.12467 1.97469 0.914998 2.73935 0.914998H11.6564C14.5177 0.914998 16.7254 1.63033 18.2794 3.061C19.8334 4.49167 20.6104 6.48967 20.6104 9.055C20.6104 11.6203 19.8334 13.6307 18.2794 15.086C16.7254 16.5167 14.5177 17.232 11.6564 17.232H5.07035V24.854C5.07035 25.6187 4.87302 26.223 4.47835 26.667C4.08369 27.0863 3.49169 27.296 2.70235 27.296ZM5.07035 13.495H10.9164C12.5937 13.495 13.864 13.125 14.7274 12.385C15.5907 11.6203 16.0224 10.5103 16.0224 9.055C16.0224 7.59967 15.5907 6.502 14.7274 5.762C13.864 5.022 12.5937 4.652 10.9164 4.652H5.07035V13.495ZM26.0337 27.296C25.2691 27.296 24.6771 27.0987 24.2577 26.704C23.8631 26.2847 23.6657 25.6927 23.6657 24.928V10.942C23.6657 10.1773 23.8631 9.59767 24.2577 9.203C24.6524 8.80833 25.2074 8.611 25.9227 8.611C26.6381 8.611 27.1931 8.80833 27.5877 9.203C27.9824 9.59767 28.1797 10.1773 28.1797 10.942V13.273H27.8097C28.1551 11.793 28.8334 10.6707 29.8447 9.906C30.8561 9.14133 32.2004 8.685 33.8777 8.537C34.3957 8.48767 34.8027 8.62333 35.0987 8.944C35.4194 9.24 35.6044 9.70867 35.6537 10.35C35.7031 10.9667 35.5551 11.4723 35.2097 11.867C34.8891 12.237 34.3957 12.459 33.7297 12.533L32.9157 12.607C31.4111 12.755 30.2764 13.2237 29.5117 14.013C28.7471 14.7777 28.3647 15.863 28.3647 17.269V24.928C28.3647 25.6927 28.1674 26.2847 27.7727 26.704C27.3781 27.0987 26.7984 27.296 26.0337 27.296ZM46.1169 27.37C44.2423 27.37 42.6143 26.9877 41.2329 26.223C39.8516 25.4583 38.7786 24.373 38.0139 22.967C37.2493 21.5363 36.8669 19.859 36.8669 17.935C36.8669 16.4797 37.0766 15.1847 37.4959 14.05C37.9399 12.8907 38.5689 11.904 39.3829 11.09C40.1969 10.2513 41.1713 9.62233 42.3059 9.203C43.4406 8.759 44.7109 8.537 46.1169 8.537C47.9916 8.537 49.6196 8.91933 51.0009 9.684C52.3823 10.4487 53.4553 11.534 54.2199 12.94C54.9846 14.346 55.3669 16.011 55.3669 17.935C55.3669 19.3903 55.1449 20.6977 54.7009 21.857C54.2816 23.0163 53.6649 24.0153 52.8509 24.854C52.0369 25.668 51.0626 26.297 49.9279 26.741C48.7933 27.1603 47.5229 27.37 46.1169 27.37ZM46.1169 23.855C47.0296 23.855 47.8313 23.633 48.5219 23.189C49.2126 22.745 49.7429 22.0913 50.1129 21.228C50.5076 20.34 50.7049 19.2423 50.7049 17.935C50.7049 15.9617 50.2856 14.494 49.4469 13.532C48.6083 12.5453 47.4983 12.052 46.1169 12.052C45.2043 12.052 44.4026 12.274 43.7119 12.718C43.0213 13.1373 42.4786 13.791 42.0839 14.679C41.7139 15.5423 41.5289 16.6277 41.5289 17.935C41.5289 19.8837 41.9483 21.3637 42.7869 22.375C43.6256 23.3617 44.7356 23.855 46.1169 23.855ZM67.6203 34.03C66.2883 34.03 64.9933 33.9067 63.7353 33.66C62.502 33.4133 61.3796 33.031 60.3683 32.513C59.8996 32.2663 59.579 31.9703 59.4063 31.625C59.2583 31.2797 59.209 30.922 59.2583 30.552C59.3323 30.2067 59.4803 29.8983 59.7023 29.627C59.949 29.3557 60.245 29.1707 60.5903 29.072C60.9356 28.9733 61.2933 29.0227 61.6633 29.22C62.7486 29.7627 63.7723 30.108 64.7343 30.256C65.721 30.4287 66.5596 30.515 67.2503 30.515C68.903 30.515 70.1363 30.108 70.9503 29.294C71.789 28.5047 72.2083 27.3207 72.2083 25.742V22.412H72.5413C72.1713 23.67 71.3943 24.6813 70.2103 25.446C69.051 26.186 67.7313 26.556 66.2513 26.556C64.6233 26.556 63.205 26.186 61.9963 25.446C60.7876 24.6813 59.8503 23.6207 59.1843 22.264C58.5183 20.9073 58.1853 19.3287 58.1853 17.528C58.1853 16.1713 58.3703 14.9503 58.7403 13.865C59.135 12.755 59.6776 11.8053 60.3683 11.016C61.0836 10.2267 61.9346 9.62233 62.9213 9.203C63.9326 8.759 65.0426 8.537 66.2513 8.537C67.7806 8.537 69.1126 8.91933 70.2473 9.684C71.4066 10.424 72.159 11.4107 72.5043 12.644L72.1343 13.569V10.942C72.1343 10.1773 72.3316 9.59767 72.7263 9.203C73.1456 8.80833 73.713 8.611 74.4283 8.611C75.1683 8.611 75.7356 8.80833 76.1303 9.203C76.525 9.59767 76.7223 10.1773 76.7223 10.942V25.187C76.7223 28.1223 75.9453 30.33 74.3913 31.81C72.8373 33.29 70.5803 34.03 67.6203 34.03ZM67.5093 23.041C68.4713 23.041 69.2976 22.819 69.9883 22.375C70.679 21.931 71.2093 21.302 71.5793 20.488C71.974 19.6493 72.1713 18.6627 72.1713 17.528C72.1713 15.826 71.752 14.494 70.9133 13.532C70.0746 12.5453 68.94 12.052 67.5093 12.052C66.5473 12.052 65.721 12.274 65.0303 12.718C64.3396 13.162 63.797 13.791 63.4023 14.605C63.0323 15.419 62.8473 16.3933 62.8473 17.528C62.8473 19.23 63.2666 20.5743 64.1053 21.561C64.944 22.5477 66.0786 23.041 67.5093 23.041ZM83.8824 27.296C83.1177 27.296 82.5257 27.0987 82.1064 26.704C81.7117 26.2847 81.5144 25.6927 81.5144 24.928V10.942C81.5144 10.1773 81.7117 9.59767 82.1064 9.203C82.501 8.80833 83.056 8.611 83.7714 8.611C84.4867 8.611 85.0417 8.80833 85.4364 9.203C85.831 9.59767 86.0284 10.1773 86.0284 10.942V13.273H85.6584C86.0037 11.793 86.682 10.6707 87.6934 9.906C88.7047 9.14133 90.049 8.685 91.7264 8.537C92.2444 8.48767 92.6514 8.62333 92.9474 8.944C93.268 9.24 93.453 9.70867 93.5024 10.35C93.5517 10.9667 93.4037 11.4723 93.0584 11.867C92.7377 12.237 92.2444 12.459 91.5784 12.533L90.7644 12.607C89.2597 12.755 88.125 13.2237 87.3604 14.013C86.5957 14.7777 86.2134 15.863 86.2134 17.269V24.928C86.2134 25.6927 86.016 26.2847 85.6214 26.704C85.2267 27.0987 84.647 27.296 83.8824 27.296ZM101.78 27.37C100.473 27.37 99.301 27.1233 98.265 26.63C97.2536 26.112 96.452 25.4213 95.86 24.558C95.2926 23.6947 95.009 22.7203 95.009 21.635C95.009 20.303 95.3543 19.2547 96.045 18.49C96.7356 17.7007 97.858 17.1333 99.412 16.788C100.966 16.4427 103.05 16.27 105.665 16.27H107.515V18.934H105.702C104.173 18.934 102.952 19.008 102.039 19.156C101.126 19.304 100.473 19.563 100.078 19.933C99.708 20.2783 99.523 20.7717 99.523 21.413C99.523 22.227 99.8066 22.893 100.374 23.411C100.941 23.929 101.731 24.188 102.742 24.188C103.556 24.188 104.271 24.003 104.888 23.633C105.529 23.2383 106.035 22.708 106.405 22.042C106.775 21.376 106.96 20.6113 106.96 19.748V15.493C106.96 14.2597 106.689 13.3717 106.146 12.829C105.603 12.2863 104.691 12.015 103.408 12.015C102.693 12.015 101.916 12.1013 101.077 12.274C100.263 12.4467 99.3996 12.7427 98.487 13.162C98.0183 13.384 97.599 13.4457 97.229 13.347C96.8836 13.2483 96.6123 13.051 96.415 12.755C96.2176 12.4343 96.119 12.089 96.119 11.719C96.119 11.349 96.2176 10.9913 96.415 10.646C96.6123 10.276 96.9453 10.0047 97.414 9.832C98.5486 9.36333 99.634 9.03033 100.67 8.833C101.731 8.63567 102.693 8.537 103.556 8.537C105.332 8.537 106.787 8.80833 107.922 9.351C109.081 9.89367 109.945 10.72 110.512 11.83C111.079 12.9153 111.363 14.3213 111.363 16.048V24.928C111.363 25.6927 111.178 26.2847 110.808 26.704C110.438 27.0987 109.908 27.296 109.217 27.296C108.526 27.296 107.984 27.0987 107.589 26.704C107.219 26.2847 107.034 25.6927 107.034 24.928V23.152H107.33C107.157 24.0153 106.812 24.7677 106.294 25.409C105.801 26.0257 105.172 26.5067 104.407 26.852C103.642 27.1973 102.767 27.37 101.78 27.37ZM118.425 27.296C117.685 27.296 117.118 27.0987 116.723 26.704C116.329 26.2847 116.131 25.6927 116.131 24.928V10.942C116.131 10.1773 116.329 9.59767 116.723 9.203C117.118 8.80833 117.673 8.611 118.388 8.611C119.104 8.611 119.659 8.80833 120.053 9.203C120.448 9.59767 120.645 10.1773 120.645 10.942V13.643L120.238 12.533C120.732 11.2997 121.496 10.3253 122.532 9.61C123.568 8.89467 124.802 8.537 126.232 8.537C127.688 8.537 128.884 8.88233 129.821 9.573C130.759 10.2637 131.412 11.3243 131.782 12.755H131.264C131.758 11.4477 132.572 10.424 133.706 9.684C134.841 8.91933 136.148 8.537 137.628 8.537C139.01 8.537 140.144 8.80833 141.032 9.351C141.945 9.89367 142.623 10.72 143.067 11.83C143.511 12.9153 143.733 14.2967 143.733 15.974V24.928C143.733 25.6927 143.524 26.2847 143.104 26.704C142.71 27.0987 142.142 27.296 141.402 27.296C140.662 27.296 140.095 27.0987 139.7 26.704C139.306 26.2847 139.108 25.6927 139.108 24.928V16.159C139.108 14.7777 138.874 13.7663 138.405 13.125C137.961 12.4837 137.197 12.163 136.111 12.163C134.903 12.163 133.953 12.5947 133.262 13.458C132.572 14.2967 132.226 15.4683 132.226 16.973V24.928C132.226 25.6927 132.029 26.2847 131.634 26.704C131.24 27.0987 130.672 27.296 129.932 27.296C129.192 27.296 128.613 27.0987 128.193 26.704C127.799 26.2847 127.601 25.6927 127.601 24.928V16.159C127.601 14.7777 127.367 13.7663 126.898 13.125C126.454 12.4837 125.702 12.163 124.641 12.163C123.433 12.163 122.483 12.5947 121.792 13.458C121.102 14.2967 120.756 15.4683 120.756 16.973V24.928C120.756 26.5067 119.979 27.296 118.425 27.296ZM154.462 27.37C153.154 27.37 151.983 27.1233 150.947 26.63C149.935 26.112 149.134 25.4213 148.542 24.558C147.974 23.6947 147.691 22.7203 147.691 21.635C147.691 20.303 148.036 19.2547 148.727 18.49C149.417 17.7007 150.54 17.1333 152.094 16.788C153.648 16.4427 155.732 16.27 158.347 16.27H160.197V18.934H158.384C156.854 18.934 155.633 19.008 154.721 19.156C153.808 19.304 153.154 19.563 152.76 19.933C152.39 20.2783 152.205 20.7717 152.205 21.413C152.205 22.227 152.488 22.893 153.056 23.411C153.623 23.929 154.412 24.188 155.424 24.188C156.238 24.188 156.953 24.003 157.57 23.633C158.211 23.2383 158.717 22.708 159.087 22.042C159.457 21.376 159.642 20.6113 159.642 19.748V15.493C159.642 14.2597 159.37 13.3717 158.828 12.829C158.285 12.2863 157.372 12.015 156.09 12.015C155.374 12.015 154.597 12.1013 153.759 12.274C152.945 12.4467 152.081 12.7427 151.169 13.162C150.7 13.384 150.281 13.4457 149.911 13.347C149.565 13.2483 149.294 13.051 149.097 12.755C148.899 12.4343 148.801 12.089 148.801 11.719C148.801 11.349 148.899 10.9913 149.097 10.646C149.294 10.276 149.627 10.0047 150.096 9.832C151.23 9.36333 152.316 9.03033 153.352 8.833C154.412 8.63567 155.374 8.537 156.238 8.537C158.014 8.537 159.469 8.80833 160.604 9.351C161.763 9.89367 162.626 10.72 163.194 11.83C163.761 12.9153 164.045 14.3213 164.045 16.048V24.928C164.045 25.6927 163.86 26.2847 163.49 26.704C163.12 27.0987 162.589 27.296 161.899 27.296C161.208 27.296 160.665 27.0987 160.271 26.704C159.901 26.2847 159.716 25.6927 159.716 24.928V23.152H160.012C159.839 24.0153 159.494 24.7677 158.976 25.409C158.482 26.0257 157.853 26.5067 157.089 26.852C156.324 27.1973 155.448 27.37 154.462 27.37ZM175.362 27.37C174.301 27.37 173.179 27.259 171.995 27.037C170.811 26.815 169.75 26.4327 168.813 25.89C168.418 25.6433 168.135 25.3597 167.962 25.039C167.814 24.6937 167.752 24.3607 167.777 24.04C167.826 23.6947 167.95 23.3987 168.147 23.152C168.369 22.9053 168.64 22.745 168.961 22.671C169.306 22.597 169.676 22.6587 170.071 22.856C171.058 23.3247 171.983 23.6577 172.846 23.855C173.709 24.0277 174.56 24.114 175.399 24.114C176.583 24.114 177.459 23.9167 178.026 23.522C178.618 23.1027 178.914 22.56 178.914 21.894C178.914 21.3267 178.717 20.895 178.322 20.599C177.952 20.2783 177.385 20.044 176.62 19.896L172.92 19.193C171.391 18.897 170.219 18.342 169.405 17.528C168.616 16.6893 168.221 15.6163 168.221 14.309C168.221 13.125 168.542 12.1013 169.183 11.238C169.849 10.3747 170.762 9.70867 171.921 9.24C173.08 8.77133 174.412 8.537 175.917 8.537C177.002 8.537 178.014 8.66033 178.951 8.907C179.913 9.129 180.838 9.48667 181.726 9.98C182.096 10.1773 182.343 10.4363 182.466 10.757C182.614 11.0777 182.651 11.4107 182.577 11.756C182.503 12.0767 182.355 12.3727 182.133 12.644C181.911 12.8907 181.627 13.051 181.282 13.125C180.961 13.1743 180.591 13.1003 180.172 12.903C179.407 12.5083 178.667 12.2247 177.952 12.052C177.261 11.8793 176.595 11.793 175.954 11.793C174.745 11.793 173.845 12.0027 173.253 12.422C172.686 12.8413 172.402 13.3963 172.402 14.087C172.402 14.605 172.575 15.0367 172.92 15.382C173.265 15.7273 173.796 15.9617 174.511 16.085L178.211 16.788C179.814 17.084 181.023 17.6267 181.837 18.416C182.676 19.2053 183.095 20.266 183.095 21.598C183.095 23.3987 182.392 24.817 180.986 25.853C179.58 26.8643 177.705 27.37 175.362 27.37ZM211.909 33.956C211.169 33.956 210.602 33.7587 210.207 33.364C209.813 32.9693 209.615 32.3897 209.615 31.625V23.3H210.022C209.628 24.5087 208.863 25.4953 207.728 26.26C206.618 27 205.311 27.37 203.806 27.37C202.228 27.37 200.834 26.9877 199.625 26.223C198.441 25.4583 197.516 24.373 196.85 22.967C196.184 21.5363 195.851 19.859 195.851 17.935C195.851 15.9863 196.184 14.3213 196.85 12.94C197.516 11.534 198.441 10.4487 199.625 9.684C200.834 8.91933 202.228 8.537 203.806 8.537C205.336 8.537 206.668 8.91933 207.802 9.684C208.937 10.4487 209.689 11.46 210.059 12.718L209.652 13.828V10.942C209.652 10.1773 209.85 9.59767 210.244 9.203C210.639 8.80833 211.206 8.611 211.946 8.611C212.686 8.611 213.254 8.80833 213.648 9.203C214.043 9.59767 214.24 10.1773 214.24 10.942V31.625C214.24 32.3897 214.031 32.9693 213.611 33.364C213.217 33.7587 212.649 33.956 211.909 33.956ZM205.101 23.855C206.014 23.855 206.816 23.633 207.506 23.189C208.197 22.745 208.727 22.0913 209.097 21.228C209.492 20.34 209.689 19.2423 209.689 17.935C209.689 15.9617 209.27 14.494 208.431 13.532C207.593 12.5453 206.483 12.052 205.101 12.052C204.189 12.052 203.387 12.274 202.696 12.718C202.006 13.1373 201.463 13.791 201.068 14.679C200.698 15.5423 200.513 16.6277 200.513 17.935C200.513 19.8837 200.933 21.3637 201.771 22.375C202.61 23.3617 203.72 23.855 205.101 23.855ZM225.585 27.37C224.08 27.37 222.835 27.0987 221.848 26.556C220.861 25.9887 220.121 25.15 219.628 24.04C219.159 22.93 218.925 21.5487 218.925 19.896V10.942C218.925 10.1527 219.122 9.573 219.517 9.203C219.912 8.80833 220.479 8.611 221.219 8.611C221.959 8.611 222.526 8.80833 222.921 9.203C223.34 9.573 223.55 10.1527 223.55 10.942V19.97C223.55 21.2527 223.809 22.2023 224.327 22.819C224.845 23.4357 225.671 23.744 226.806 23.744C228.039 23.744 229.051 23.3247 229.84 22.486C230.629 21.6227 231.024 20.488 231.024 19.082V10.942C231.024 10.1527 231.221 9.573 231.616 9.203C232.011 8.80833 232.578 8.611 233.318 8.611C234.058 8.611 234.625 8.80833 235.02 9.203C235.439 9.573 235.649 10.1527 235.649 10.942V24.928C235.649 26.5067 234.897 27.296 233.392 27.296C232.677 27.296 232.122 27.0987 231.727 26.704C231.332 26.2847 231.135 25.6927 231.135 24.928V22.116L231.653 23.226C231.135 24.558 230.346 25.5817 229.285 26.297C228.249 27.0123 227.016 27.37 225.585 27.37ZM249.38 27.37C247.332 27.37 245.569 26.9877 244.089 26.223C242.609 25.4583 241.462 24.373 240.648 22.967C239.858 21.561 239.464 19.896 239.464 17.972C239.464 16.0973 239.846 14.457 240.611 13.051C241.4 11.645 242.473 10.5473 243.83 9.758C245.211 8.944 246.777 8.537 248.529 8.537C249.811 8.537 250.958 8.74667 251.97 9.166C253.006 9.58533 253.881 10.1897 254.597 10.979C255.337 11.7683 255.892 12.7303 256.262 13.865C256.656 14.975 256.854 16.233 256.854 17.639C256.854 18.083 256.693 18.4283 256.373 18.675C256.077 18.897 255.645 19.008 255.078 19.008H243.201V16.344H253.598L253.006 16.899C253.006 15.7643 252.833 14.8147 252.488 14.05C252.167 13.2853 251.686 12.7057 251.045 12.311C250.428 11.8917 249.651 11.682 248.714 11.682C247.678 11.682 246.79 11.9287 246.05 12.422C245.334 12.8907 244.779 13.569 244.385 14.457C244.015 15.3203 243.83 16.3563 243.83 17.565V17.824C243.83 19.8467 244.298 21.3637 245.236 22.375C246.198 23.3617 247.604 23.855 249.454 23.855C250.095 23.855 250.81 23.781 251.6 23.633C252.414 23.4603 253.178 23.1767 253.894 22.782C254.412 22.486 254.868 22.3627 255.263 22.412C255.657 22.4367 255.966 22.5723 256.188 22.819C256.434 23.0657 256.582 23.374 256.632 23.744C256.681 24.0893 256.607 24.447 256.41 24.817C256.237 25.187 255.929 25.5077 255.485 25.779C254.621 26.3217 253.622 26.7287 252.488 27C251.378 27.2467 250.342 27.37 249.38 27.37ZM277.184 27.37C276.124 27.37 275.001 27.259 273.817 27.037C272.633 26.815 271.573 26.4327 270.635 25.89C270.241 25.6433 269.957 25.3597 269.784 25.039C269.636 24.6937 269.575 24.3607 269.599 24.04C269.649 23.6947 269.772 23.3987 269.969 23.152C270.191 22.9053 270.463 22.745 270.783 22.671C271.129 22.597 271.499 22.6587 271.893 22.856C272.88 23.3247 273.805 23.6577 274.668 23.855C275.532 24.0277 276.383 24.114 277.221 24.114C278.405 24.114 279.281 23.9167 279.848 23.522C280.44 23.1027 280.736 22.56 280.736 21.894C280.736 21.3267 280.539 20.895 280.144 20.599C279.774 20.2783 279.207 20.044 278.442 19.896L274.742 19.193C273.213 18.897 272.041 18.342 271.227 17.528C270.438 16.6893 270.043 15.6163 270.043 14.309C270.043 13.125 270.364 12.1013 271.005 11.238C271.671 10.3747 272.584 9.70867 273.743 9.24C274.903 8.77133 276.235 8.537 277.739 8.537C278.825 8.537 279.836 8.66033 280.773 8.907C281.735 9.129 282.66 9.48667 283.548 9.98C283.918 10.1773 284.165 10.4363 284.288 10.757C284.436 11.0777 284.473 11.4107 284.399 11.756C284.325 12.0767 284.177 12.3727 283.955 12.644C283.733 12.8907 283.45 13.051 283.104 13.125C282.784 13.1743 282.414 13.1003 281.994 12.903C281.23 12.5083 280.49 12.2247 279.774 12.052C279.084 11.8793 278.418 11.793 277.776 11.793C276.568 11.793 275.667 12.0027 275.075 12.422C274.508 12.8413 274.224 13.3963 274.224 14.087C274.224 14.605 274.397 15.0367 274.742 15.382C275.088 15.7273 275.618 15.9617 276.333 16.085L280.033 16.788C281.637 17.084 282.845 17.6267 283.659 18.416C284.498 19.2053 284.917 20.266 284.917 21.598C284.917 23.3987 284.214 24.817 282.808 25.853C281.402 26.8643 279.528 27.37 277.184 27.37ZM297.545 27.37C295.497 27.37 293.734 26.9877 292.254 26.223C290.774 25.4583 289.627 24.373 288.813 22.967C288.023 21.561 287.629 19.896 287.629 17.972C287.629 16.0973 288.011 14.457 288.776 13.051C289.565 11.645 290.638 10.5473 291.995 9.758C293.376 8.944 294.942 8.537 296.694 8.537C297.976 8.537 299.123 8.74667 300.135 9.166C301.171 9.58533 302.046 10.1897 302.762 10.979C303.502 11.7683 304.057 12.7303 304.427 13.865C304.821 14.975 305.019 16.233 305.019 17.639C305.019 18.083 304.858 18.4283 304.538 18.675C304.242 18.897 303.81 19.008 303.243 19.008H291.366V16.344H301.763L301.171 16.899C301.171 15.7643 300.998 14.8147 300.653 14.05C300.332 13.2853 299.851 12.7057 299.21 12.311C298.593 11.8917 297.816 11.682 296.879 11.682C295.843 11.682 294.955 11.9287 294.215 12.422C293.499 12.8907 292.944 13.569 292.55 14.457C292.18 15.3203 291.995 16.3563 291.995 17.565V17.824C291.995 19.8467 292.463 21.3637 293.401 22.375C294.363 23.3617 295.769 23.855 297.619 23.855C298.26 23.855 298.975 23.781 299.765 23.633C300.579 23.4603 301.343 23.1767 302.059 22.782C302.577 22.486 303.033 22.3627 303.428 22.412C303.822 22.4367 304.131 22.5723 304.353 22.819C304.599 23.0657 304.747 23.374 304.797 23.744C304.846 24.0893 304.772 24.447 304.575 24.817C304.402 25.187 304.094 25.5077 303.65 25.779C302.786 26.3217 301.787 26.7287 300.653 27C299.543 27.2467 298.507 27.37 297.545 27.37ZM310.975 27.259C310.235 27.259 309.668 27.037 309.273 26.593C308.879 26.149 308.681 25.5323 308.681 24.743V11.164C308.681 10.35 308.879 9.73333 309.273 9.314C309.668 8.87 310.235 8.648 310.975 8.648C311.715 8.648 312.283 8.87 312.677 9.314C313.097 9.73333 313.306 10.35 313.306 11.164V24.743C313.306 25.5323 313.109 26.149 312.714 26.593C312.32 27.037 311.74 27.259 310.975 27.259ZM310.975 5.207C310.112 5.207 309.434 4.99733 308.94 4.578C308.472 4.134 308.237 3.52967 308.237 2.765C308.237 1.97567 308.472 1.37133 308.94 0.951998C309.434 0.532666 310.112 0.322999 310.975 0.322999C311.863 0.322999 312.542 0.532666 313.01 0.951998C313.479 1.37133 313.713 1.97567 313.713 2.765C313.713 3.52967 313.479 4.134 313.01 4.578C312.542 4.99733 311.863 5.207 310.975 5.207ZM330.525 27.296C329.785 27.296 329.218 27.0987 328.823 26.704C328.428 26.2847 328.231 25.6927 328.231 24.928V10.942C328.231 10.1773 328.428 9.59767 328.823 9.203C329.218 8.80833 329.773 8.611 330.488 8.611C331.203 8.611 331.758 8.80833 332.153 9.203C332.548 9.59767 332.745 10.1773 332.745 10.942V13.643L332.338 12.533C332.831 11.2997 333.596 10.3253 334.632 9.61C335.668 8.89467 336.901 8.537 338.332 8.537C339.787 8.537 340.984 8.88233 341.921 9.573C342.858 10.2637 343.512 11.3243 343.882 12.755H343.364C343.857 11.4477 344.671 10.424 345.806 9.684C346.941 8.91933 348.248 8.537 349.728 8.537C351.109 8.537 352.244 8.80833 353.132 9.351C354.045 9.89367 354.723 10.72 355.167 11.83C355.611 12.9153 355.833 14.2967 355.833 15.974V24.928C355.833 25.6927 355.623 26.2847 355.204 26.704C354.809 27.0987 354.242 27.296 353.502 27.296C352.762 27.296 352.195 27.0987 351.8 26.704C351.405 26.2847 351.208 25.6927 351.208 24.928V16.159C351.208 14.7777 350.974 13.7663 350.505 13.125C350.061 12.4837 349.296 12.163 348.211 12.163C347.002 12.163 346.053 12.5947 345.362 13.458C344.671 14.2967 344.326 15.4683 344.326 16.973V24.928C344.326 25.6927 344.129 26.2847 343.734 26.704C343.339 27.0987 342.772 27.296 342.032 27.296C341.292 27.296 340.712 27.0987 340.293 26.704C339.898 26.2847 339.701 25.6927 339.701 24.928V16.159C339.701 14.7777 339.467 13.7663 338.998 13.125C338.554 12.4837 337.802 12.163 336.741 12.163C335.532 12.163 334.583 12.5947 333.892 13.458C333.201 14.2967 332.856 15.4683 332.856 16.973V24.928C332.856 26.5067 332.079 27.296 330.525 27.296ZM369.521 27.37C367.474 27.37 365.71 26.9877 364.23 26.223C362.75 25.4583 361.603 24.373 360.789 22.967C360 21.561 359.605 19.896 359.605 17.972C359.605 16.0973 359.988 14.457 360.752 13.051C361.542 11.645 362.615 10.5473 363.971 9.758C365.353 8.944 366.919 8.537 368.67 8.537C369.953 8.537 371.1 8.74667 372.111 9.166C373.147 9.58533 374.023 10.1897 374.738 10.979C375.478 11.7683 376.033 12.7303 376.403 13.865C376.798 14.975 376.995 16.233 376.995 17.639C376.995 18.083 376.835 18.4283 376.514 18.675C376.218 18.897 375.787 19.008 375.219 19.008H363.342V16.344H373.739L373.147 16.899C373.147 15.7643 372.975 14.8147 372.629 14.05C372.309 13.2853 371.828 12.7057 371.186 12.311C370.57 11.8917 369.793 11.682 368.855 11.682C367.819 11.682 366.931 11.9287 366.191 12.422C365.476 12.8907 364.921 13.569 364.526 14.457C364.156 15.3203 363.971 16.3563 363.971 17.565V17.824C363.971 19.8467 364.44 21.3637 365.377 22.375C366.339 23.3617 367.745 23.855 369.595 23.855C370.237 23.855 370.952 23.781 371.741 23.633C372.555 23.4603 373.32 23.1767 374.035 22.782C374.553 22.486 375.01 22.3627 375.404 22.412C375.799 22.4367 376.107 22.5723 376.329 22.819C376.576 23.0657 376.724 23.374 376.773 23.744C376.823 24.0893 376.749 24.447 376.551 24.817C376.379 25.187 376.07 25.5077 375.626 25.779C374.763 26.3217 373.764 26.7287 372.629 27C371.519 27.2467 370.483 27.37 369.521 27.37ZM381.808 27.185C381.265 27.185 380.809 27.037 380.439 26.741C380.093 26.4203 379.908 26.0133 379.884 25.52C379.884 25.0267 380.093 24.5087 380.513 23.966L386.507 16.566V18.749L380.883 11.83C380.439 11.2873 380.229 10.7693 380.254 10.276C380.278 9.78267 380.463 9.388 380.809 9.092C381.179 8.77133 381.635 8.611 382.178 8.611C382.745 8.611 383.214 8.70967 383.584 8.907C383.978 9.10433 384.336 9.41267 384.657 9.832L389.097 15.53H387.469L391.946 9.832C392.291 9.41267 392.649 9.10433 393.019 8.907C393.389 8.70967 393.845 8.611 394.388 8.611C394.955 8.611 395.411 8.77133 395.757 9.092C396.102 9.41267 396.275 9.81967 396.275 10.313C396.299 10.8063 396.09 11.3243 395.646 11.867L390.059 18.712V16.64L396.053 23.966C396.497 24.484 396.706 24.9897 396.682 25.483C396.657 25.9763 396.46 26.3833 396.09 26.704C395.744 27.0247 395.288 27.185 394.721 27.185C394.178 27.185 393.722 27.0863 393.352 26.889C392.982 26.6917 392.624 26.3833 392.279 25.964L387.469 19.896H389.023L384.25 25.964C383.929 26.3587 383.584 26.667 383.214 26.889C382.844 27.0863 382.375 27.185 381.808 27.185ZM409.195 27.37C407.148 27.37 405.384 26.9877 403.904 26.223C402.424 25.4583 401.277 24.373 400.463 22.967C399.674 21.561 399.279 19.896 399.279 17.972C399.279 16.0973 399.661 14.457 400.426 13.051C401.215 11.645 402.288 10.5473 403.645 9.758C405.026 8.944 406.593 8.537 408.344 8.537C409.627 8.537 410.774 8.74667 411.785 9.166C412.821 9.58533 413.697 10.1897 414.412 10.979C415.152 11.7683 415.707 12.7303 416.077 13.865C416.472 14.975 416.669 16.233 416.669 17.639C416.669 18.083 416.509 18.4283 416.188 18.675C415.892 18.897 415.46 19.008 414.893 19.008H403.016V16.344H413.413L412.821 16.899C412.821 15.7643 412.648 14.8147 412.303 14.05C411.982 13.2853 411.501 12.7057 410.86 12.311C410.243 11.8917 409.466 11.682 408.529 11.682C407.493 11.682 406.605 11.9287 405.865 12.422C405.15 12.8907 404.595 13.569 404.2 14.457C403.83 15.3203 403.645 16.3563 403.645 17.565V17.824C403.645 19.8467 404.114 21.3637 405.051 22.375C406.013 23.3617 407.419 23.855 409.269 23.855C409.91 23.855 410.626 23.781 411.415 23.633C412.229 23.4603 412.994 23.1767 413.709 22.782C414.227 22.486 414.683 22.3627 415.078 22.412C415.473 22.4367 415.781 22.5723 416.003 22.819C416.25 23.0657 416.398 23.374 416.447 23.744C416.496 24.0893 416.422 24.447 416.225 24.817C416.052 25.187 415.744 25.5077 415.3 25.779C414.437 26.3217 413.438 26.7287 412.303 27C411.193 27.2467 410.157 27.37 409.195 27.37ZM422.7 27.296C421.935 27.296 421.343 27.0987 420.924 26.704C420.529 26.2847 420.332 25.6927 420.332 24.928V10.942C420.332 10.1773 420.529 9.59767 420.924 9.203C421.318 8.80833 421.873 8.611 422.589 8.611C423.304 8.611 423.859 8.80833 424.254 9.203C424.648 9.59767 424.846 10.1773 424.846 10.942V13.273H424.476C424.821 11.793 425.499 10.6707 426.511 9.906C427.522 9.14133 428.866 8.685 430.544 8.537C431.062 8.48767 431.469 8.62333 431.765 8.944C432.085 9.24 432.27 9.70867 432.32 10.35C432.369 10.9667 432.221 11.4723 431.876 11.867C431.555 12.237 431.062 12.459 430.396 12.533L429.582 12.607C428.077 12.755 426.942 13.2237 426.178 14.013C425.413 14.7777 425.031 15.863 425.031 17.269V24.928C425.031 25.6927 424.833 26.2847 424.439 26.704C424.044 27.0987 423.464 27.296 422.7 27.296ZM453.783 27.37C451.736 27.37 449.972 26.9877 448.492 26.223C447.012 25.4583 445.865 24.373 445.051 22.967C444.262 21.561 443.867 19.896 443.867 17.972C443.867 16.0973 444.249 14.457 445.014 13.051C445.803 11.645 446.876 10.5473 448.233 9.758C449.614 8.944 451.181 8.537 452.932 8.537C454.215 8.537 455.362 8.74667 456.373 9.166C457.409 9.58533 458.285 10.1897 459 10.979C459.74 11.7683 460.295 12.7303 460.665 13.865C461.06 14.975 461.257 16.233 461.257 17.639C461.257 18.083 461.097 18.4283 460.776 18.675C460.48 18.897 460.048 19.008 459.481 19.008H447.604V16.344H458.001L457.409 16.899C457.409 15.7643 457.236 14.8147 456.891 14.05C456.57 13.2853 456.089 12.7057 455.448 12.311C454.831 11.8917 454.054 11.682 453.117 11.682C452.081 11.682 451.193 11.9287 450.453 12.422C449.738 12.8907 449.183 13.569 448.788 14.457C448.418 15.3203 448.233 16.3563 448.233 17.565V17.824C448.233 19.8467 448.702 21.3637 449.639 22.375C450.601 23.3617 452.007 23.855 453.857 23.855C454.498 23.855 455.214 23.781 456.003 23.633C456.817 23.4603 457.582 23.1767 458.297 22.782C458.815 22.486 459.271 22.3627 459.666 22.412C460.061 22.4367 460.369 22.5723 460.591 22.819C460.838 23.0657 460.986 23.374 461.035 23.744C461.084 24.0893 461.01 24.447 460.813 24.817C460.64 25.187 460.332 25.5077 459.888 25.779C459.025 26.3217 458.026 26.7287 456.891 27C455.781 27.2467 454.745 27.37 453.783 27.37ZM68.2672 77.37C66.6639 77.37 65.3196 77.0987 64.2342 76.556C63.1736 76.0133 62.3842 75.224 61.8662 74.188C61.3482 73.1273 61.0892 71.82 61.0892 70.266V62.385H59.1652C58.5732 62.385 58.1169 62.237 57.7962 61.941C57.4756 61.6203 57.3152 61.1887 57.3152 60.646C57.3152 60.0787 57.4756 59.647 57.7962 59.351C58.1169 59.055 58.5732 58.907 59.1652 58.907H61.0892V55.54C61.0892 54.7753 61.2866 54.1957 61.6812 53.801C62.1006 53.4063 62.6802 53.209 63.4202 53.209C64.1602 53.209 64.7276 53.4063 65.1222 53.801C65.5169 54.1957 65.7142 54.7753 65.7142 55.54V58.907H69.6362C70.2282 58.907 70.6846 59.055 71.0052 59.351C71.3259 59.647 71.4862 60.0787 71.4862 60.646C71.4862 61.1887 71.3259 61.6203 71.0052 61.941C70.6846 62.237 70.2282 62.385 69.6362 62.385H65.7142V70.007C65.7142 71.191 65.9732 72.079 66.4912 72.671C67.0092 73.263 67.8479 73.559 69.0072 73.559C69.4266 73.559 69.7966 73.522 70.1172 73.448C70.4379 73.374 70.7216 73.3247 70.9682 73.3C71.2642 73.2753 71.5109 73.374 71.7082 73.596C71.9056 73.7933 72.0042 74.2127 72.0042 74.854C72.0042 75.3473 71.9179 75.7913 71.7452 76.186C71.5972 76.556 71.3136 76.815 70.8942 76.963C70.5736 77.0617 70.1542 77.148 69.6362 77.222C69.1182 77.3207 68.6619 77.37 68.2672 77.37ZM80.1364 77.37C78.8291 77.37 77.6574 77.1233 76.6214 76.63C75.6101 76.112 74.8084 75.4213 74.2164 74.558C73.6491 73.6947 73.3654 72.7203 73.3654 71.635C73.3654 70.303 73.7107 69.2547 74.4014 68.49C75.0921 67.7007 76.2144 67.1333 77.7684 66.788C79.3224 66.4427 81.4067 66.27 84.0214 66.27H85.8714V68.934H84.0584C82.5291 68.934 81.3081 69.008 80.3954 69.156C79.4827 69.304 78.8291 69.563 78.4344 69.933C78.0644 70.2783 77.8794 70.7717 77.8794 71.413C77.8794 72.227 78.1631 72.893 78.7304 73.411C79.2977 73.929 80.0871 74.188 81.0984 74.188C81.9124 74.188 82.6277 74.003 83.2444 73.633C83.8857 73.2383 84.3914 72.708 84.7614 72.042C85.1314 71.376 85.3164 70.6113 85.3164 69.748V65.493C85.3164 64.2597 85.0451 63.3717 84.5024 62.829C83.9597 62.2863 83.0471 62.015 81.7644 62.015C81.0491 62.015 80.2721 62.1013 79.4334 62.274C78.6194 62.4467 77.7561 62.7427 76.8434 63.162C76.3747 63.384 75.9554 63.4457 75.5854 63.347C75.2401 63.2483 74.9687 63.051 74.7714 62.755C74.5741 62.4343 74.4754 62.089 74.4754 61.719C74.4754 61.349 74.5741 60.9913 74.7714 60.646C74.9687 60.276 75.3017 60.0047 75.7704 59.832C76.9051 59.3633 77.9904 59.0303 79.0264 58.833C80.0871 58.6357 81.0491 58.537 81.9124 58.537C83.6884 58.537 85.1437 58.8083 86.2784 59.351C87.4377 59.8937 88.3011 60.72 88.8684 61.83C89.4357 62.9153 89.7194 64.3213 89.7194 66.048V74.928C89.7194 75.6927 89.5344 76.2847 89.1644 76.704C88.7944 77.0987 88.2641 77.296 87.5734 77.296C86.8827 77.296 86.3401 77.0987 85.9454 76.704C85.5754 76.2847 85.3904 75.6927 85.3904 74.928V73.152H85.6864C85.5137 74.0153 85.1684 74.7677 84.6504 75.409C84.1571 76.0257 83.5281 76.5067 82.7634 76.852C81.9987 77.1973 81.1231 77.37 80.1364 77.37ZM96.7818 77.296C96.0418 77.296 95.4745 77.0987 95.0798 76.704C94.6851 76.2847 94.4878 75.6927 94.4878 74.928V60.942C94.4878 60.1773 94.6851 59.5977 95.0798 59.203C95.4745 58.8083 96.0295 58.611 96.7448 58.611C97.4601 58.611 98.0151 58.8083 98.4098 59.203C98.8045 59.5977 99.0018 60.1773 99.0018 60.942V63.643L98.5948 62.533C99.0881 61.2997 99.8528 60.3253 100.889 59.61C101.925 58.8947 103.158 58.537 104.589 58.537C106.044 58.537 107.24 58.8823 108.178 59.573C109.115 60.2637 109.769 61.3243 110.139 62.755H109.621C110.114 61.4477 110.928 60.424 112.063 59.684C113.197 58.9193 114.505 58.537 115.985 58.537C117.366 58.537 118.501 58.8083 119.389 59.351C120.301 59.8937 120.98 60.72 121.424 61.83C121.868 62.9153 122.09 64.2967 122.09 65.974V74.928C122.09 75.6927 121.88 76.2847 121.461 76.704C121.066 77.0987 120.499 77.296 119.759 77.296C119.019 77.296 118.451 77.0987 118.057 76.704C117.662 76.2847 117.465 75.6927 117.465 74.928V66.159C117.465 64.7777 117.23 63.7663 116.762 63.125C116.318 62.4837 115.553 62.163 114.468 62.163C113.259 62.163 112.309 62.5947 111.619 63.458C110.928 64.2967 110.583 65.4683 110.583 66.973V74.928C110.583 75.6927 110.385 76.2847 109.991 76.704C109.596 77.0987 109.029 77.296 108.289 77.296C107.549 77.296 106.969 77.0987 106.55 76.704C106.155 76.2847 105.958 75.6927 105.958 74.928V66.159C105.958 64.7777 105.723 63.7663 105.255 63.125C104.811 62.4837 104.058 62.163 102.998 62.163C101.789 62.163 100.839 62.5947 100.149 63.458C99.4581 64.2967 99.1128 65.4683 99.1128 66.973V74.928C99.1128 76.5067 98.3358 77.296 96.7818 77.296ZM137.295 77.37C135.766 77.37 134.421 76.9877 133.262 76.223C132.127 75.4583 131.375 74.4347 131.005 73.152L131.412 72.227V74.928C131.412 75.6927 131.215 76.2847 130.82 76.704C130.425 77.0987 129.87 77.296 129.155 77.296C128.415 77.296 127.848 77.0987 127.453 76.704C127.058 76.2847 126.861 75.6927 126.861 74.928V52.95C126.861 52.1853 127.058 51.6057 127.453 51.211C127.848 50.8163 128.415 50.619 129.155 50.619C129.895 50.619 130.462 50.8163 130.857 51.211C131.276 51.6057 131.486 52.1853 131.486 52.95V62.57H131.042C131.437 61.3613 132.201 60.387 133.336 59.647C134.471 58.907 135.79 58.537 137.295 58.537C138.898 58.537 140.292 58.9193 141.476 59.684C142.66 60.4487 143.585 61.534 144.251 62.94C144.917 64.3213 145.25 65.9863 145.25 67.935C145.25 69.859 144.917 71.5363 144.251 72.967C143.585 74.373 142.648 75.4583 141.439 76.223C140.255 76.9877 138.874 77.37 137.295 77.37ZM136 73.855C136.913 73.855 137.714 73.633 138.405 73.189C139.096 72.745 139.626 72.0913 139.996 71.228C140.391 70.34 140.588 69.2423 140.588 67.935C140.588 65.9617 140.169 64.494 139.33 63.532C138.491 62.5453 137.381 62.052 136 62.052C135.087 62.052 134.286 62.274 133.595 62.718C132.904 63.1373 132.362 63.791 131.967 64.679C131.597 65.5423 131.412 66.6277 131.412 67.935C131.412 69.8837 131.831 71.3637 132.67 72.375C133.509 73.3617 134.619 73.855 136 73.855ZM157.964 77.37C155.916 77.37 154.153 76.9877 152.673 76.223C151.193 75.4583 150.046 74.373 149.232 72.967C148.442 71.561 148.048 69.896 148.048 67.972C148.048 66.0973 148.43 64.457 149.195 63.051C149.984 61.645 151.057 60.5473 152.414 59.758C153.795 58.944 155.361 58.537 157.113 58.537C158.395 58.537 159.542 58.7467 160.554 59.166C161.59 59.5853 162.465 60.1897 163.181 60.979C163.921 61.7683 164.476 62.7303 164.846 63.865C165.24 64.975 165.438 66.233 165.438 67.639C165.438 68.083 165.277 68.4283 164.957 68.675C164.661 68.897 164.229 69.008 163.662 69.008H151.785V66.344H162.182L161.59 66.899C161.59 65.7643 161.417 64.8147 161.072 64.05C160.751 63.2853 160.27 62.7057 159.629 62.311C159.012 61.8917 158.235 61.682 157.298 61.682C156.262 61.682 155.374 61.9287 154.634 62.422C153.918 62.8907 153.363 63.569 152.969 64.457C152.599 65.3203 152.414 66.3563 152.414 67.565V67.824C152.414 69.8467 152.882 71.3637 153.82 72.375C154.782 73.3617 156.188 73.855 158.038 73.855C158.679 73.855 159.394 73.781 160.184 73.633C160.998 73.4603 161.762 73.1767 162.478 72.782C162.996 72.486 163.452 72.3627 163.847 72.412C164.241 72.4367 164.55 72.5723 164.772 72.819C165.018 73.0657 165.166 73.374 165.216 73.744C165.265 74.0893 165.191 74.447 164.994 74.817C164.821 75.187 164.513 75.5077 164.069 75.779C163.205 76.3217 162.206 76.7287 161.072 77C159.962 77.2467 158.926 77.37 157.964 77.37ZM158.889 56.28C158.642 56.6253 158.346 56.8227 158.001 56.872C157.655 56.9213 157.322 56.8597 157.002 56.687C156.681 56.5143 156.447 56.2677 156.299 55.947C156.175 55.6263 156.212 55.2687 156.41 54.874L159.222 49.361C159.444 48.8923 159.74 48.5963 160.11 48.473C160.48 48.325 160.862 48.3003 161.257 48.399C161.651 48.4977 161.984 48.6827 162.256 48.954C162.552 49.2253 162.724 49.5583 162.774 49.953C162.848 50.323 162.749 50.7053 162.478 51.1L158.889 56.28ZM171.468 77.296C170.728 77.296 170.161 77.0987 169.766 76.704C169.372 76.2847 169.174 75.6927 169.174 74.928V60.942C169.174 60.1773 169.372 59.5977 169.766 59.203C170.161 58.8083 170.716 58.611 171.431 58.611C172.147 58.611 172.702 58.8083 173.096 59.203C173.491 59.5977 173.688 60.1773 173.688 60.942V63.643L173.281 62.533C173.775 61.2997 174.539 60.3253 175.575 59.61C176.611 58.8947 177.845 58.537 179.275 58.537C180.731 58.537 181.927 58.8823 182.864 59.573C183.802 60.2637 184.455 61.3243 184.825 62.755H184.307C184.801 61.4477 185.615 60.424 186.749 59.684C187.884 58.9193 189.191 58.537 190.671 58.537C192.053 58.537 193.187 58.8083 194.075 59.351C194.988 59.8937 195.666 60.72 196.11 61.83C196.554 62.9153 196.776 64.2967 196.776 65.974V74.928C196.776 75.6927 196.567 76.2847 196.147 76.704C195.753 77.0987 195.185 77.296 194.445 77.296C193.705 77.296 193.138 77.0987 192.743 76.704C192.349 76.2847 192.151 75.6927 192.151 74.928V66.159C192.151 64.7777 191.917 63.7663 191.448 63.125C191.004 62.4837 190.24 62.163 189.154 62.163C187.946 62.163 186.996 62.5947 186.305 63.458C185.615 64.2967 185.269 65.4683 185.269 66.973V74.928C185.269 75.6927 185.072 76.2847 184.677 76.704C184.283 77.0987 183.715 77.296 182.975 77.296C182.235 77.296 181.656 77.0987 181.236 76.704C180.842 76.2847 180.644 75.6927 180.644 74.928V66.159C180.644 64.7777 180.41 63.7663 179.941 63.125C179.497 62.4837 178.745 62.163 177.684 62.163C176.476 62.163 175.526 62.5947 174.835 63.458C174.145 64.2967 173.799 65.4683 173.799 66.973V74.928C173.799 76.5067 173.022 77.296 171.468 77.296ZM217.55 77.37C216.242 77.37 215.071 77.1233 214.035 76.63C213.023 76.112 212.222 75.4213 211.629 74.558C211.062 73.6947 210.779 72.7203 210.779 71.635C210.779 70.303 211.124 69.2547 211.815 68.49C212.505 67.7007 213.628 67.1333 215.182 66.788C216.736 66.4427 218.82 66.27 221.435 66.27H223.285V68.934H221.472C219.942 68.934 218.721 69.008 217.809 69.156C216.896 69.304 216.242 69.563 215.848 69.933C215.478 70.2783 215.293 70.7717 215.293 71.413C215.293 72.227 215.576 72.893 216.144 73.411C216.711 73.929 217.5 74.188 218.512 74.188C219.326 74.188 220.041 74.003 220.658 73.633C221.299 73.2383 221.805 72.708 222.175 72.042C222.545 71.376 222.73 70.6113 222.73 69.748V65.493C222.73 64.2597 222.458 63.3717 221.916 62.829C221.373 62.2863 220.46 62.015 219.178 62.015C218.462 62.015 217.685 62.1013 216.847 62.274C216.033 62.4467 215.169 62.7427 214.257 63.162C213.788 63.384 213.369 63.4457 212.999 63.347C212.653 63.2483 212.382 63.051 212.185 62.755C211.987 62.4343 211.889 62.089 211.889 61.719C211.889 61.349 211.987 60.9913 212.185 60.646C212.382 60.276 212.715 60.0047 213.184 59.832C214.318 59.3633 215.404 59.0303 216.44 58.833C217.5 58.6357 218.462 58.537 219.326 58.537C221.102 58.537 222.557 58.8083 223.692 59.351C224.851 59.8937 225.714 60.72 226.282 61.83C226.849 62.9153 227.133 64.3213 227.133 66.048V74.928C227.133 75.6927 226.948 76.2847 226.578 76.704C226.208 77.0987 225.677 77.296 224.987 77.296C224.296 77.296 223.753 77.0987 223.359 76.704C222.989 76.2847 222.804 75.6927 222.804 74.928V73.152H223.1C222.927 74.0153 222.582 74.7677 222.064 75.409C221.57 76.0257 220.941 76.5067 220.177 76.852C219.412 77.1973 218.536 77.37 217.55 77.37ZM234.121 83.956C233.381 83.956 232.814 83.7587 232.419 83.364C232.024 82.9693 231.827 82.3897 231.827 81.625V60.942C231.827 60.1773 232.024 59.5977 232.419 59.203C232.814 58.8083 233.369 58.611 234.084 58.611C234.824 58.611 235.391 58.8083 235.786 59.203C236.181 59.5977 236.378 60.1773 236.378 60.942V63.828L235.971 62.718C236.341 61.46 237.093 60.4487 238.228 59.684C239.387 58.9193 240.732 58.537 242.261 58.537C243.84 58.537 245.221 58.9193 246.405 59.684C247.614 60.4487 248.551 61.534 249.217 62.94C249.883 64.3213 250.216 65.9863 250.216 67.935C250.216 69.859 249.883 71.5363 249.217 72.967C248.551 74.373 247.626 75.4583 246.442 76.223C245.258 76.9877 243.864 77.37 242.261 77.37C240.756 77.37 239.437 77 238.302 76.26C237.167 75.4953 236.403 74.5087 236.008 73.3H236.452V81.625C236.452 82.3897 236.242 82.9693 235.823 83.364C235.428 83.7587 234.861 83.956 234.121 83.956ZM240.966 73.855C241.879 73.855 242.68 73.633 243.371 73.189C244.062 72.745 244.592 72.0913 244.962 71.228C245.357 70.34 245.554 69.2423 245.554 67.935C245.554 65.9617 245.135 64.494 244.296 63.532C243.457 62.5453 242.347 62.052 240.966 62.052C240.053 62.052 239.252 62.274 238.561 62.718C237.87 63.1373 237.328 63.791 236.933 64.679C236.563 65.5423 236.378 66.6277 236.378 67.935C236.378 69.8837 236.797 71.3637 237.636 72.375C238.475 73.3617 239.585 73.855 240.966 73.855ZM256.38 77.296C255.616 77.296 255.024 77.0987 254.604 76.704C254.21 76.2847 254.012 75.6927 254.012 74.928V60.942C254.012 60.1773 254.21 59.5977 254.604 59.203C254.999 58.8083 255.554 58.611 256.269 58.611C256.985 58.611 257.54 58.8083 257.934 59.203C258.329 59.5977 258.526 60.1773 258.526 60.942V63.273H258.156C258.502 61.793 259.18 60.6707 260.191 59.906C261.203 59.1413 262.547 58.685 264.224 58.537C264.742 58.4877 265.149 58.6233 265.445 58.944C265.766 59.24 265.951 59.7087 266 60.35C266.05 60.9667 265.902 61.4723 265.556 61.867C265.236 62.237 264.742 62.459 264.076 62.533L263.262 62.607C261.758 62.755 260.623 63.2237 259.858 64.013C259.094 64.7777 258.711 65.863 258.711 67.269V74.928C258.711 75.6927 258.514 76.2847 258.119 76.704C257.725 77.0987 257.145 77.296 256.38 77.296ZM277.13 77.37C275.082 77.37 273.319 76.9877 271.839 76.223C270.359 75.4583 269.212 74.373 268.398 72.967C267.608 71.561 267.214 69.896 267.214 67.972C267.214 66.0973 267.596 64.457 268.361 63.051C269.15 61.645 270.223 60.5473 271.58 59.758C272.961 58.944 274.527 58.537 276.279 58.537C277.561 58.537 278.708 58.7467 279.72 59.166C280.756 59.5853 281.631 60.1897 282.347 60.979C283.087 61.7683 283.642 62.7303 284.012 63.865C284.406 64.975 284.604 66.233 284.604 67.639C284.604 68.083 284.443 68.4283 284.123 68.675C283.827 68.897 283.395 69.008 282.828 69.008H270.951V66.344H281.348L280.756 66.899C280.756 65.7643 280.583 64.8147 280.238 64.05C279.917 63.2853 279.436 62.7057 278.795 62.311C278.178 61.8917 277.401 61.682 276.464 61.682C275.428 61.682 274.54 61.9287 273.8 62.422C273.084 62.8907 272.529 63.569 272.135 64.457C271.765 65.3203 271.58 66.3563 271.58 67.565V67.824C271.58 69.8467 272.048 71.3637 272.986 72.375C273.948 73.3617 275.354 73.855 277.204 73.855C277.845 73.855 278.56 73.781 279.35 73.633C280.164 73.4603 280.928 73.1767 281.644 72.782C282.162 72.486 282.618 72.3627 283.013 72.412C283.407 72.4367 283.716 72.5723 283.938 72.819C284.184 73.0657 284.332 73.374 284.382 73.744C284.431 74.0893 284.357 74.447 284.16 74.817C283.987 75.187 283.679 75.5077 283.235 75.779C282.371 76.3217 281.372 76.7287 280.238 77C279.128 77.2467 278.092 77.37 277.13 77.37ZM295.222 77.37C293.644 77.37 292.25 76.9877 291.041 76.223C289.857 75.4583 288.932 74.373 288.266 72.967C287.6 71.5363 287.267 69.859 287.267 67.935C287.267 65.9863 287.6 64.3213 288.266 62.94C288.932 61.534 289.857 60.4487 291.041 59.684C292.25 58.9193 293.644 58.537 295.222 58.537C296.727 58.537 298.034 58.907 299.144 59.647C300.279 60.387 301.044 61.3613 301.438 62.57H301.031V52.95C301.031 52.1853 301.229 51.6057 301.623 51.211C302.018 50.8163 302.585 50.619 303.325 50.619C304.065 50.619 304.633 50.8163 305.027 51.211C305.447 51.6057 305.656 52.1853 305.656 52.95V74.928C305.656 75.6927 305.459 76.2847 305.064 76.704C304.67 77.0987 304.102 77.296 303.362 77.296C302.622 77.296 302.055 77.0987 301.66 76.704C301.266 76.2847 301.068 75.6927 301.068 74.928V72.042L301.475 73.152C301.105 74.4347 300.353 75.4583 299.218 76.223C298.084 76.9877 296.752 77.37 295.222 77.37ZM296.517 73.855C297.43 73.855 298.232 73.633 298.922 73.189C299.613 72.745 300.143 72.0913 300.513 71.228C300.908 70.34 301.105 69.2423 301.105 67.935C301.105 65.9617 300.686 64.494 299.847 63.532C299.009 62.5453 297.899 62.052 296.517 62.052C295.605 62.052 294.803 62.274 294.112 62.718C293.422 63.1373 292.879 63.791 292.484 64.679C292.114 65.5423 291.929 66.6277 291.929 67.935C291.929 69.8837 292.349 71.3637 293.187 72.375C294.026 73.3617 295.136 73.855 296.517 73.855ZM319.369 77.37C317.322 77.37 315.558 76.9877 314.078 76.223C312.598 75.4583 311.451 74.373 310.637 72.967C309.848 71.561 309.453 69.896 309.453 67.972C309.453 66.0973 309.835 64.457 310.6 63.051C311.389 61.645 312.462 60.5473 313.819 59.758C315.2 58.944 316.767 58.537 318.518 58.537C319.801 58.537 320.948 58.7467 321.959 59.166C322.995 59.5853 323.871 60.1897 324.586 60.979C325.326 61.7683 325.881 62.7303 326.251 63.865C326.646 64.975 326.843 66.233 326.843 67.639C326.843 68.083 326.683 68.4283 326.362 68.675C326.066 68.897 325.634 69.008 325.067 69.008H313.19V66.344H323.587L322.995 66.899C322.995 65.7643 322.822 64.8147 322.477 64.05C322.156 63.2853 321.675 62.7057 321.034 62.311C320.417 61.8917 319.64 61.682 318.703 61.682C317.667 61.682 316.779 61.9287 316.039 62.422C315.324 62.8907 314.769 63.569 314.374 64.457C314.004 65.3203 313.819 66.3563 313.819 67.565V67.824C313.819 69.8467 314.288 71.3637 315.225 72.375C316.187 73.3617 317.593 73.855 319.443 73.855C320.084 73.855 320.8 73.781 321.589 73.633C322.403 73.4603 323.168 73.1767 323.883 72.782C324.401 72.486 324.857 72.3627 325.252 72.412C325.647 72.4367 325.955 72.5723 326.177 72.819C326.424 73.0657 326.572 73.374 326.621 73.744C326.67 74.0893 326.596 74.447 326.399 74.817C326.226 75.187 325.918 75.5077 325.474 75.779C324.611 76.3217 323.612 76.7287 322.477 77C321.367 77.2467 320.331 77.37 319.369 77.37ZM332.8 77.296C332.06 77.296 331.492 77.0987 331.098 76.704C330.703 76.2847 330.506 75.6927 330.506 74.928V60.942C330.506 60.1773 330.703 59.5977 331.098 59.203C331.492 58.8083 332.047 58.611 332.763 58.611C333.478 58.611 334.033 58.8083 334.428 59.203C334.822 59.5977 335.02 60.1773 335.02 60.942V63.458L334.613 62.533C335.155 61.2257 335.994 60.239 337.129 59.573C338.288 58.8823 339.595 58.537 341.051 58.537C342.506 58.537 343.702 58.8083 344.64 59.351C345.577 59.8937 346.28 60.72 346.749 61.83C347.217 62.9153 347.452 64.2967 347.452 65.974V74.928C347.452 75.6927 347.254 76.2847 346.86 76.704C346.465 77.0987 345.898 77.296 345.158 77.296C344.418 77.296 343.838 77.0987 343.419 76.704C343.024 76.2847 342.827 75.6927 342.827 74.928V66.196C342.827 64.79 342.555 63.7663 342.013 63.125C341.495 62.4837 340.681 62.163 339.571 62.163C338.214 62.163 337.129 62.5947 336.315 63.458C335.525 64.2967 335.131 65.419 335.131 66.825V74.928C335.131 76.5067 334.354 77.296 332.8 77.296ZM359.105 77.37C357.526 77.37 356.133 76.9877 354.924 76.223C353.74 75.4583 352.815 74.373 352.149 72.967C351.483 71.5363 351.15 69.859 351.15 67.935C351.15 65.9863 351.483 64.3213 352.149 62.94C352.815 61.534 353.74 60.4487 354.924 59.684C356.133 58.9193 357.526 58.537 359.105 58.537C360.61 58.537 361.917 58.907 363.027 59.647C364.162 60.387 364.926 61.3613 365.321 62.57H364.914V52.95C364.914 52.1853 365.111 51.6057 365.506 51.211C365.901 50.8163 366.468 50.619 367.208 50.619C367.948 50.619 368.515 50.8163 368.91 51.211C369.329 51.6057 369.539 52.1853 369.539 52.95V74.928C369.539 75.6927 369.342 76.2847 368.947 76.704C368.552 77.0987 367.985 77.296 367.245 77.296C366.505 77.296 365.938 77.0987 365.543 76.704C365.148 76.2847 364.951 75.6927 364.951 74.928V72.042L365.358 73.152C364.988 74.4347 364.236 75.4583 363.101 76.223C361.966 76.9877 360.634 77.37 359.105 77.37ZM360.4 73.855C361.313 73.855 362.114 73.633 362.805 73.189C363.496 72.745 364.026 72.0913 364.396 71.228C364.791 70.34 364.988 69.2423 364.988 67.935C364.988 65.9617 364.569 64.494 363.73 63.532C362.891 62.5453 361.781 62.052 360.4 62.052C359.487 62.052 358.686 62.274 357.995 62.718C357.304 63.1373 356.762 63.791 356.367 64.679C355.997 65.5423 355.812 66.6277 355.812 67.935C355.812 69.8837 356.231 71.3637 357.07 72.375C357.909 73.3617 359.019 73.855 360.4 73.855ZM382.586 77.37C380.711 77.37 379.083 76.9877 377.702 76.223C376.32 75.4583 375.247 74.373 374.483 72.967C373.718 71.5363 373.336 69.859 373.336 67.935C373.336 66.4797 373.545 65.1847 373.965 64.05C374.409 62.8907 375.038 61.904 375.852 61.09C376.666 60.2513 377.64 59.6223 378.775 59.203C379.909 58.759 381.18 58.537 382.586 58.537C384.46 58.537 386.088 58.9193 387.47 59.684C388.851 60.4487 389.924 61.534 390.689 62.94C391.453 64.346 391.836 66.011 391.836 67.935C391.836 69.3903 391.614 70.6977 391.17 71.857C390.75 73.0163 390.134 74.0153 389.32 74.854C388.506 75.668 387.531 76.297 386.397 76.741C385.262 77.1603 383.992 77.37 382.586 77.37ZM382.586 73.855C383.498 73.855 384.3 73.633 384.991 73.189C385.681 72.745 386.212 72.0913 386.582 71.228C386.976 70.34 387.174 69.2423 387.174 67.935C387.174 65.9617 386.754 64.494 385.916 63.532C385.077 62.5453 383.967 62.052 382.586 62.052C381.673 62.052 380.871 62.274 380.181 62.718C379.49 63.1373 378.947 63.791 378.553 64.679C378.183 65.5423 377.998 66.6277 377.998 67.935C377.998 69.8837 378.417 71.3637 379.256 72.375C380.094 73.3617 381.204 73.855 382.586 73.855ZM397.873 77.185C397.034 77.185 396.356 76.926 395.838 76.408C395.345 75.89 395.098 75.224 395.098 74.41C395.098 73.6207 395.345 72.9793 395.838 72.486C396.356 71.968 397.034 71.709 397.873 71.709C398.736 71.709 399.402 71.968 399.871 72.486C400.364 72.9793 400.611 73.6207 400.611 74.41C400.611 75.224 400.364 75.89 399.871 76.408C399.402 76.926 398.736 77.185 397.873 77.185ZM397.873 64.198C397.034 64.198 396.356 63.939 395.838 63.421C395.345 62.903 395.098 62.2493 395.098 61.46C395.098 60.646 395.345 59.9923 395.838 59.499C396.356 58.981 397.034 58.722 397.873 58.722C398.736 58.722 399.402 58.981 399.871 59.499C400.364 59.9923 400.611 60.646 400.611 61.46C400.611 62.2493 400.364 62.903 399.871 63.421C399.402 63.939 398.736 64.198 397.873 64.198Z" fill="black" fill-opacity="0.06"/>
</g>
<defs>
<filter id="filter0_i_16_425" x="0.334351" y="0.322998" width="460.923" height="87.633" filterUnits="userSpaceOnUse" color-interpolation-filters="sRGB">
<feFlood flood-opacity="0" result="BackgroundImageFix"/>
<feBlend mode="normal" in="SourceGraphic" in2="BackgroundImageFix" result="shape"/>
<feColorMatrix in="SourceAlpha" type="matrix" values="0 0 0 0 0 0 0 0 0 0 0 0 0 0 0 0 0 0 127 0" result="hardAlpha"/>
<feOffset dy="4"/>
<feGaussianBlur stdDeviation="2"/>
<feComposite in2="hardAlpha" operator="arithmetic" k2="-1" k3="1"/>
<feColorMatrix type="matrix" values="0 0 0 0 0 0 0 0 0 0 0 0 0 0 0 0 0 0 0.25 0"/>
<feBlend mode="normal" in2="shape" result="effect1_innerShadow_16_425"/>
</filter>
</defs>
</svg>
