<svg width="77" height="77" viewBox="0 0 77 77" fill="none" xmlns="http://www.w3.org/2000/svg">
<g filter="url(#filter0_i_181_31)">
<path d="M38.5 22.4584C40.2719 22.4584 41.7083 21.022 41.7083 19.2501C41.7083 17.4782 40.2719 16.0417 38.5 16.0417C36.7281 16.0417 35.2917 17.4782 35.2917 19.2501C35.2917 21.022 36.7281 22.4584 38.5 22.4584Z" fill="black" fill-opacity="0.06"/>
<path d="M19.25 54.5417H57.75V60.9584H19.25V54.5417ZM32.0833 37.9547L41.041 46.9187L53.6562 34.294L57.75 38.5001V25.6667H44.9167L49.1196 29.7574L41.0378 37.8392L32.0833 28.8751L19.25 41.7084L23.7866 46.245L32.0833 37.9547Z" fill="black" fill-opacity="0.06"/>
<path d="M60.9583 9.62499H50.3772C50.0622 9.15061 49.7194 8.6953 49.3506 8.26145L49.3185 8.22294C46.9612 5.47742 43.6448 3.7354 40.0464 3.35269C39.0246 3.15815 37.9753 3.15815 36.9536 3.35269C33.3552 3.7354 30.0387 5.47742 27.6815 8.22294L27.6494 8.26145C27.2807 8.69426 26.9379 9.1485 26.6227 9.62178V9.62499H16.0417C13.4897 9.62753 11.0431 10.6424 9.23857 12.4469C7.43408 14.2514 6.4192 16.6981 6.41666 19.25V64.1666C6.4192 66.7186 7.43408 69.1653 9.23857 70.9697C11.0431 72.7742 13.4897 73.7891 16.0417 73.7916H60.9583C63.5103 73.7891 65.9569 72.7742 67.7614 70.9697C69.5659 69.1653 70.5808 66.7186 70.5833 64.1666V19.25C70.5808 16.6981 69.5659 14.2514 67.7614 12.4469C65.9569 10.6424 63.5103 9.62753 60.9583 9.62499V9.62499ZM64.1667 64.1666C64.1667 65.0176 63.8286 65.8336 63.227 66.4353C62.6253 67.037 61.8092 67.375 60.9583 67.375H16.0417C15.191 67.3741 14.3755 67.0358 13.774 66.4343C13.1725 65.8328 12.8342 65.0173 12.8333 64.1666V19.25C12.8342 18.3993 13.1725 17.5838 13.774 16.9823C14.3755 16.3808 15.191 16.0425 16.0417 16.0417H30.6396C31.0078 14.2285 31.9915 12.5984 33.424 11.4275C34.8565 10.2566 36.6498 9.61695 38.5 9.61695C40.3502 9.61695 42.1434 10.2566 43.576 11.4275C45.0085 12.5984 45.9922 14.2285 46.3604 16.0417H60.9583C61.809 16.0425 62.6245 16.3808 63.226 16.9823C63.8275 17.5838 64.1658 18.3993 64.1667 19.25V64.1666Z" fill="black" fill-opacity="0.06"/>
</g>
<defs>
<filter id="filter0_i_181_31" x="0" y="0" width="77" height="81" filterUnits="userSpaceOnUse" color-interpolation-filters="sRGB">
<feFlood flood-opacity="0" result="BackgroundImageFix"/>
<feBlend mode="normal" in="SourceGraphic" in2="BackgroundImageFix" result="shape"/>
<feColorMatrix in="SourceAlpha" type="matrix" values="0 0 0 0 0 0 0 0 0 0 0 0 0 0 0 0 0 0 127 0" result="hardAlpha"/>
<feOffset dy="4"/>
<feGaussianBlur stdDeviation="2"/>
<feComposite in2="hardAlpha" operator="arithmetic" k2="-1" k3="1"/>
<feColorMatrix type="matrix" values="0 0 0 0 0 0 0 0 0 0 0 0 0 0 0 0 0 0 0.25 0"/>
<feBlend mode="normal" in2="shape" result="effect1_innerShadow_181_31"/>
</filter>
</defs>
</svg>
