<svg width="50" height="52" viewBox="0 0 50 52" fill="none" xmlns="http://www.w3.org/2000/svg">
<path d="M42.0833 37.0567V23.4167L49.8333 15.6667L39.5 5.33341L31.75 13.0834H13.6667V10.5001H21.4167V0.166748H0.75V10.5001H8.5V26.0001H0.75V36.3334H8.5V49.2501H19.5567C20.0075 50.031 20.6548 50.6803 21.4343 51.1335C22.2138 51.5867 23.0983 51.828 24 51.8334C24.9082 51.8389 25.8019 51.6048 26.5908 51.1548C27.3798 50.7049 28.0362 50.0549 28.4938 49.2704C28.9515 48.4858 29.1943 47.5945 29.1977 46.6863C29.2011 45.7781 28.9651 44.885 28.5133 44.097C28.0616 43.3091 27.4101 42.6542 26.6246 42.1982C25.839 41.7423 24.9472 41.5016 24.0389 41.5002C23.1307 41.4988 22.2381 41.7369 21.4512 42.1904C20.6643 42.6439 20.0108 43.2969 19.5567 44.0834H13.6667V36.3334H21.4167V26.0001H13.6667V18.2501H31.75L36.9167 23.4167V37.0309C35.9317 37.5996 35.1619 38.4774 34.7266 39.5282C34.2914 40.579 34.215 41.744 34.5094 42.8426C34.8038 43.9412 35.4524 44.912 36.3547 45.6044C37.2571 46.2967 38.3626 46.672 39.5 46.672C40.6374 46.672 41.7429 46.2967 42.6453 45.6044C43.5476 44.912 44.1962 43.9412 44.4906 42.8426C44.785 41.744 44.7086 40.579 44.2734 39.5282C43.8381 38.4774 43.0683 37.5996 42.0833 37.0309V37.0567ZM3.33333 7.91675V2.75008H18.8333V7.91675H3.33333ZM24 44.0834C24.5109 44.0834 25.0104 44.2349 25.4352 44.5188C25.86 44.8026 26.1912 45.2061 26.3867 45.6782C26.5822 46.1502 26.6334 46.6696 26.5337 47.1707C26.434 47.6718 26.188 48.1322 25.8267 48.4934C25.4654 48.8547 25.0051 49.1008 24.504 49.2004C24.0029 49.3001 23.4834 49.249 23.0114 49.0534C22.5394 48.8579 22.1359 48.5268 21.852 48.102C21.5682 47.6771 21.4167 47.1777 21.4167 46.6667C21.4167 45.9816 21.6888 45.3245 22.1733 44.8401C22.6578 44.3556 23.3149 44.0834 24 44.0834ZM18.8333 28.5834V33.7501H3.33333V28.5834H18.8333ZM39.5 8.97591L46.1908 15.6667L39.5 22.3576L32.8092 15.6667L39.5 8.97591ZM39.5 44.0834C38.9891 44.0834 38.4896 43.9319 38.0648 43.648C37.6399 43.3642 37.3088 42.9607 37.1133 42.4887C36.9178 42.0166 36.8666 41.4972 36.9663 40.9961C37.066 40.495 37.312 40.0347 37.6733 39.6734C38.0346 39.3121 38.4949 39.0661 38.996 38.9664C39.4971 38.8667 40.0166 38.9179 40.4886 39.1134C40.9606 39.3089 41.3641 39.64 41.648 40.0649C41.9318 40.4897 42.0833 40.9891 42.0833 41.5001C42.0833 42.1852 41.8112 42.8423 41.3267 43.3268C40.8422 43.8112 40.1851 44.0834 39.5 44.0834Z" fill="black"/>
</svg>
