<svg width="1090" height="614" viewBox="0 0 1090 614" fill="none" xmlns="http://www.w3.org/2000/svg">
<g clip-path="url(#clip0_20_690)">
<path d="M1091 154L1065 159.2C1039 164.3 987 174.7 935 173.5C883 172.3 831 159.7 779 162.7C727 165.7 675 184.3 623.2 187.2C571.3 190 519.7 177 467.8 166.5C416 156 364 148 312 149.8C260 151.7 208 163.3 156 171.3C104 179.3 52 183.7 26 185.8L0 188V-1H26C52 -1 104 -1 156 -1C208 -1 260 -1 312 -1C364 -1 416 -1 467.8 -1C519.7 -1 571.3 -1 623.2 -1C675 -1 727 -1 779 -1C831 -1 883 -1 935 -1C987 -1 1039 -1 1065 -1H1091V154Z" fill="#FFDEBF"/>
<path d="M1091 154L1065 148.3C1039 142.7 987 131.3 935 131.7C883 132 831 144 779 145C727 146 675 136 623.2 130.5C571.3 125 519.7 124 467.8 126.2C416 128.3 364 133.7 312 135C260 136.3 208 133.7 156 140.2C104 146.7 52 162.3 26 170.2L0 178V-1H26C52 -1 104 -1 156 -1C208 -1 260 -1 312 -1C364 -1 416 -1 467.8 -1C519.7 -1 571.3 -1 623.2 -1C675 -1 727 -1 779 -1C831 -1 883 -1 935 -1C987 -1 1039 -1 1065 -1H1091V154Z" fill="#FED0AD"/>
<path d="M1091 150L1065 144.3C1039 138.7 987 127.3 935 127.5C883 127.7 831 139.3 779 136.8C727 134.3 675 117.7 623.2 111.3C571.3 105 519.7 109 467.8 111.5C416 114 364 115 312 117.2C260 119.3 208 122.7 156 120.8C104 119 52 112 26 108.5L0 105V-1H26C52 -1 104 -1 156 -1C208 -1 260 -1 312 -1C364 -1 416 -1 467.8 -1C519.7 -1 571.3 -1 623.2 -1C675 -1 727 -1 779 -1C831 -1 883 -1 935 -1C987 -1 1039 -1 1065 -1H1091V150Z" fill="#FEC29C"/>
<path d="M1091 107L1065 106.5C1039 106 987 105 935 107.8C883 110.7 831 117.3 779 120.7C727 124 675 124 623.2 123.7C571.3 123.3 519.7 122.7 467.8 120.5C416 118.3 364 114.7 312 109.5C260 104.3 208 97.7 156 97.5C104 97.3 52 103.7 26 106.8L0 110V-1H26C52 -1 104 -1 156 -1C208 -1 260 -1 312 -1C364 -1 416 -1 467.8 -1C519.7 -1 571.3 -1 623.2 -1C675 -1 727 -1 779 -1C831 -1 883 -1 935 -1C987 -1 1039 -1 1065 -1H1091V107Z" fill="#FDB48E"/>
<path d="M1091 71L1065 73.7C1039 76.3 987 81.7 935 88.5C883 95.3 831 103.7 779 105.3C727 107 675 102 623.2 96.3C571.3 90.7 519.7 84.3 467.8 82C416 79.7 364 81.3 312 81.3C260 81.3 208 79.7 156 82.7C104 85.7 52 93.3 26 97.2L0 101V-0.999992H26C52 -0.999992 104 -0.999992 156 -0.999992C208 -0.999992 260 -0.999992 312 -0.999992C364 -0.999992 416 -0.999992 467.8 -0.999992C519.7 -0.999992 571.3 -0.999992 623.2 -0.999992C675 -0.999992 727 -0.999992 779 -0.999992C831 -0.999992 883 -0.999992 935 -0.999992C987 -0.999992 1039 -0.999992 1065 -0.999992H1091V71Z" fill="#FDA481"/>
<path d="M1091 83L1065 81.8C1039 80.7 987 78.3 935 73.7C883 69 831 62 779 58C727 54 675 53 623.2 55C571.3 57 519.7 62 467.8 65.8C416 69.7 364 72.3 312 73C260 73.7 208 72.3 156 69.2C104 66 52 61 26 58.5L0 56V-1H26C52 -1 104 -1 156 -1C208 -1 260 -1 312 -1C364 -1 416 -1 467.8 -1C519.7 -1 571.3 -1 623.2 -1C675 -1 727 -1 779 -1C831 -1 883 -1 935 -1C987 -1 1039 -1 1065 -1H1091V83Z" fill="#FC9576"/>
<path d="M1091 65L1065 61.8C1039 58.7 987 52.3 935 48.7C883 45 831 44 779 43.3C727 42.7 675 42.3 623.2 44.7C571.3 47 519.7 52 467.8 52C416 52 364 47 312 45.7C260 44.3 208 46.7 156 49.8C104 53 52 57 26 59L0 61V-1H26C52 -1 104 -1 156 -1C208 -1 260 -1 312 -1C364 -1 416 -1 467.8 -1C519.7 -1 571.3 -1 623.2 -1C675 -1 727 -1 779 -1C831 -1 883 -1 935 -1C987 -1 1039 -1 1065 -1H1091V65Z" fill="#FB846E"/>
<path d="M1091 21L1065 23C1039 25 987 29 935 30.2C883 31.3 831 29.7 779 27.5C727 25.3 675 22.7 623.2 21.7C571.3 20.7 519.7 21.3 467.8 22.5C416 23.7 364 25.3 312 24.7C260 24 208 21 156 23C104 25 52 32 26 35.5L0 39V-1L26 -1C52 -1 104 -1 156 -1C208 -1 260 -1 312 -1C364 -1 416 -1 467.8 -1C519.7 -1 571.3 -1 623.2 -1C675 -1 727 -1 779 -1C831 -1 883 -1 935 -1C987 -1 1039 -1 1065 -1H1091V21Z" fill="#FA7268"/>
</g>
<defs>
<clipPath id="clip0_20_690">
<rect width="1091" height="614" fill="white" transform="translate(1091 614) rotate(180)"/>
</clipPath>
</defs>
</svg>
