<svg width="1089" height="614" viewBox="0 0 1089 614" fill="none" xmlns="http://www.w3.org/2000/svg">
<g clip-path="url(#clip0_20_716)">
<path d="M0 460L26 454.8C52 449.7 104 439.3 156 440.5C208 441.7 260 454.3 312 451.3C364 448.3 416 429.7 467.8 426.8C519.7 424 571.3 437 623.2 447.5C675 458 727 466 779 464.2C831 462.3 883 450.7 935 442.7C987 434.7 1039 430.3 1065 428.2L1091 426V615H1065C1039 615 987 615 935 615C883 615 831 615 779 615C727 615 675 615 623.2 615C571.3 615 519.7 615 467.8 615C416 615 364 615 312 615C260 615 208 615 156 615C104 615 52 615 26 615H0V460Z" fill="#FFDEBF"/>
<path d="M0 460L26 465.7C52 471.3 104 482.7 156 482.3C208 482 260 470 312 469C364 468 416 478 467.8 483.5C519.7 489 571.3 490 623.2 487.8C675 485.7 727 480.3 779 479C831 477.7 883 480.3 935 473.8C987 467.3 1039 451.7 1065 443.8L1091 436V615H1065C1039 615 987 615 935 615C883 615 831 615 779 615C727 615 675 615 623.2 615C571.3 615 519.7 615 467.8 615C416 615 364 615 312 615C260 615 208 615 156 615C104 615 52 615 26 615H0V460Z" fill="#FFD7AE"/>
<path d="M0 464L26 469.7C52 475.3 104 486.7 156 486.5C208 486.3 260 474.7 312 477.2C364 479.7 416 496.3 467.8 502.7C519.7 509 571.3 505 623.2 502.5C675 500 727 499 779 496.8C831 494.7 883 491.3 935 493.2C987 495 1039 502 1065 505.5L1091 509V615H1065C1039 615 987 615 935 615C883 615 831 615 779 615C727 615 675 615 623.2 615C571.3 615 519.7 615 467.8 615C416 615 364 615 312 615C260 615 208 615 156 615C104 615 52 615 26 615H0V464Z" fill="#FFD09D"/>
<path d="M0 507L26 507.5C52 508 104 509 156 506.2C208 503.3 260 496.7 312 493.3C364 490 416 490 467.8 490.3C519.7 490.7 571.3 491.3 623.2 493.5C675 495.7 727 499.3 779 504.5C831 509.7 883 516.3 935 516.5C987 516.7 1039 510.3 1065 507.2L1091 504V615H1065C1039 615 987 615 935 615C883 615 831 615 779 615C727 615 675 615 623.2 615C571.3 615 519.7 615 467.8 615C416 615 364 615 312 615C260 615 208 615 156 615C104 615 52 615 26 615H0V507Z" fill="#FFC98C"/>
<path d="M0 543L26 540.3C52 537.7 104 532.3 156 525.5C208 518.7 260 510.3 312 508.7C364 507 416 512 467.8 517.7C519.7 523.3 571.3 529.7 623.2 532C675 534.3 727 532.7 779 532.7C831 532.7 883 534.3 935 531.3C987 528.3 1039 520.7 1065 516.8L1091 513V615H1065C1039 615 987 615 935 615C883 615 831 615 779 615C727 615 675 615 623.2 615C571.3 615 519.7 615 467.8 615C416 615 364 615 312 615C260 615 208 615 156 615C104 615 52 615 26 615H0V543Z" fill="#FFC37A"/>
<path d="M0 531L26 532.2C52 533.3 104 535.7 156 540.3C208 545 260 552 312 556C364 560 416 561 467.8 559C519.7 557 571.3 552 623.2 548.2C675 544.3 727 541.7 779 541C831 540.3 883 541.7 935 544.8C987 548 1039 553 1065 555.5L1091 558V615H1065C1039 615 987 615 935 615C883 615 831 615 779 615C727 615 675 615 623.2 615C571.3 615 519.7 615 467.8 615C416 615 364 615 312 615C260 615 208 615 156 615C104 615 52 615 26 615H0V531Z" fill="#FFBC68"/>
<path d="M0 549L26 552.2C52 555.3 104 561.7 156 565.3C208 569 260 570 312 570.7C364 571.3 416 571.7 467.8 569.3C519.7 567 571.3 562 623.2 562C675 562 727 567 779 568.3C831 569.7 883 567.3 935 564.2C987 561 1039 557 1065 555L1091 553V615H1065C1039 615 987 615 935 615C883 615 831 615 779 615C727 615 675 615 623.2 615C571.3 615 519.7 615 467.8 615C416 615 364 615 312 615C260 615 208 615 156 615C104 615 52 615 26 615H0V549Z" fill="#FFB556"/>
<path d="M0 593L26 591C52 589 104 585 156 583.8C208 582.7 260 584.3 312 586.5C364 588.7 416 591.3 467.8 592.3C519.7 593.3 571.3 592.7 623.2 591.5C675 590.3 727 588.7 779 589.3C831 590 883 593 935 591C987 589 1039 582 1065 578.5L1091 575V615H1065C1039 615 987 615 935 615C883 615 831 615 779 615C727 615 675 615 623.2 615C571.3 615 519.7 615 467.8 615C416 615 364 615 312 615C260 615 208 615 156 615C104 615 52 615 26 615H0V593Z" fill="#FFAE42"/>
</g>
<defs>
<clipPath id="clip0_20_716">
<rect width="1091" height="614" fill="white"/>
</clipPath>
</defs>
</svg>
