<svg width="1110" height="671" viewBox="0 0 1110 671" fill="none" xmlns="http://www.w3.org/2000/svg">
<g clip-path="url(#clip0_20_742)">
<path d="M19.9629 460.001L45.9629 454.801C71.9629 449.701 123.963 439.301 175.963 440.501C227.963 441.701 279.963 454.301 331.963 451.301C383.963 448.301 435.963 429.701 487.763 426.801C539.663 424.001 591.263 437.001 643.163 447.501C694.963 458.001 746.963 466.001 798.963 464.201C850.963 462.301 902.963 450.701 954.963 442.701C1006.96 434.701 1058.96 430.301 1084.96 428.201L1110.96 426.001V615.001H1084.96C1058.96 615.001 1006.96 615.001 954.963 615.001C902.963 615.001 850.963 615.001 798.963 615.001C746.963 615.001 694.963 615.001 643.163 615.001C591.263 615.001 539.663 615.001 487.763 615.001C435.963 615.001 383.963 615.001 331.963 615.001C279.963 615.001 227.963 615.001 175.963 615.001C123.963 615.001 71.9629 615.001 45.9629 615.001H19.9629L19.9629 460.001Z" fill="#FFDEBF"/>
<path d="M19.9629 460.001L45.9629 465.701C71.9629 471.301 123.963 482.701 175.963 482.301C227.963 482.001 279.963 470.001 331.963 469.001C383.963 468.001 435.963 478.001 487.763 483.501C539.663 489.001 591.263 490.001 643.163 487.801C694.963 485.701 746.963 480.301 798.963 479.001C850.963 477.701 902.963 480.301 954.963 473.801C1006.96 467.301 1058.96 451.701 1084.96 443.801L1110.96 436.001V615.001H1084.96C1058.96 615.001 1006.96 615.001 954.963 615.001C902.963 615.001 850.963 615.001 798.963 615.001C746.963 615.001 694.963 615.001 643.163 615.001C591.263 615.001 539.663 615.001 487.763 615.001C435.963 615.001 383.963 615.001 331.963 615.001C279.963 615.001 227.963 615.001 175.963 615.001C123.963 615.001 71.9629 615.001 45.9629 615.001H19.9629L19.9629 460.001Z" fill="#FED0AD"/>
<path d="M19.9629 464.001L45.9629 469.701C71.9629 475.301 123.963 486.701 175.963 486.501C227.963 486.301 279.963 474.701 331.963 477.201C383.963 479.701 435.963 496.301 487.763 502.701C539.663 509.001 591.263 505.001 643.163 502.501C694.963 500.001 746.963 499.001 798.963 496.801C850.963 494.701 902.963 491.301 954.963 493.201C1006.96 495.001 1058.96 502.001 1084.96 505.501L1110.96 509.001V615.001H1084.96C1058.96 615.001 1006.96 615.001 954.963 615.001C902.963 615.001 850.963 615.001 798.963 615.001C746.963 615.001 694.963 615.001 643.163 615.001C591.263 615.001 539.663 615.001 487.763 615.001C435.963 615.001 383.963 615.001 331.963 615.001C279.963 615.001 227.963 615.001 175.963 615.001C123.963 615.001 71.9629 615.001 45.9629 615.001H19.9629L19.9629 464.001Z" fill="#FEC29C"/>
<path d="M19.9629 507.001L45.9629 507.501C71.9629 508.001 123.963 509.001 175.963 506.201C227.963 503.301 279.963 496.701 331.963 493.301C383.963 490.001 435.963 490.001 487.763 490.301C539.663 490.701 591.263 491.301 643.163 493.501C694.963 495.701 746.963 499.301 798.963 504.501C850.963 509.701 902.963 516.301 954.963 516.501C1006.96 516.701 1058.96 510.301 1084.96 507.201L1110.96 504.001V615.001H1084.96C1058.96 615.001 1006.96 615.001 954.963 615.001C902.963 615.001 850.963 615.001 798.963 615.001C746.963 615.001 694.963 615.001 643.163 615.001C591.263 615.001 539.663 615.001 487.763 615.001C435.963 615.001 383.963 615.001 331.963 615.001C279.963 615.001 227.963 615.001 175.963 615.001C123.963 615.001 71.9629 615.001 45.9629 615.001H19.9629L19.9629 507.001Z" fill="#FDB48E"/>
<path d="M19.9629 543.001L45.9629 540.301C71.9629 537.701 123.963 532.301 175.963 525.501C227.963 518.701 279.963 510.301 331.963 508.701C383.963 507.001 435.963 512.001 487.763 517.701C539.663 523.301 591.263 529.701 643.163 532.001C694.963 534.301 746.963 532.701 798.963 532.701C850.963 532.701 902.963 534.301 954.963 531.301C1006.96 528.301 1058.96 520.701 1084.96 516.801L1110.96 513.001V615.001H1084.96C1058.96 615.001 1006.96 615.001 954.963 615.001C902.963 615.001 850.963 615.001 798.963 615.001C746.963 615.001 694.963 615.001 643.163 615.001C591.263 615.001 539.663 615.001 487.763 615.001C435.963 615.001 383.963 615.001 331.963 615.001C279.963 615.001 227.963 615.001 175.963 615.001C123.963 615.001 71.9629 615.001 45.9629 615.001H19.9629L19.9629 543.001Z" fill="#FDA481"/>
<path d="M19.9629 531.001L45.9629 532.201C71.9629 533.301 123.963 535.701 175.963 540.301C227.963 545.001 279.963 552.001 331.963 556.001C383.963 560.001 435.963 561.001 487.763 559.001C539.663 557.001 591.263 552.001 643.163 548.201C694.963 544.301 746.963 541.701 798.963 541.001C850.963 540.301 902.963 541.701 954.963 544.801C1006.96 548.001 1058.96 553.001 1084.96 555.501L1110.96 558.001V615.001H1084.96C1058.96 615.001 1006.96 615.001 954.963 615.001C902.963 615.001 850.963 615.001 798.963 615.001C746.963 615.001 694.963 615.001 643.163 615.001C591.263 615.001 539.663 615.001 487.763 615.001C435.963 615.001 383.963 615.001 331.963 615.001C279.963 615.001 227.963 615.001 175.963 615.001C123.963 615.001 71.9629 615.001 45.9629 615.001H19.9629L19.9629 531.001Z" fill="#FC9576"/>
<path d="M19.9629 549.001L45.9629 552.201C71.9629 555.301 123.963 561.701 175.963 565.301C227.963 569.001 279.963 570.001 331.963 570.701C383.963 571.301 435.963 571.701 487.763 569.301C539.663 567.001 591.263 562.001 643.163 562.001C694.963 562.001 746.963 567.001 798.963 568.301C850.963 569.701 902.963 567.301 954.963 564.201C1006.96 561.001 1058.96 557.001 1084.96 555.001L1110.96 553.001V615.001H1084.96C1058.96 615.001 1006.96 615.001 954.963 615.001C902.963 615.001 850.963 615.001 798.963 615.001C746.963 615.001 694.963 615.001 643.163 615.001C591.263 615.001 539.663 615.001 487.763 615.001C435.963 615.001 383.963 615.001 331.963 615.001C279.963 615.001 227.963 615.001 175.963 615.001C123.963 615.001 71.9629 615.001 45.9629 615.001H19.9629L19.9629 549.001Z" fill="#FB846E"/>
<path d="M19.9629 593.001L45.9629 591.001C71.9629 589.001 123.963 585.001 175.963 583.801C227.963 582.701 279.963 584.301 331.963 586.501C383.963 588.701 435.963 591.301 487.763 592.301C539.663 593.301 591.263 592.701 643.163 591.501C694.963 590.301 746.963 588.701 798.963 589.301C850.963 590.001 902.963 593.001 954.963 591.001C1006.96 589.001 1058.96 582.001 1084.96 578.501L1110.96 575.001V615.001H1084.96C1058.96 615.001 1006.96 615.001 954.963 615.001C902.963 615.001 850.963 615.001 798.963 615.001C746.963 615.001 694.963 615.001 643.163 615.001C591.263 615.001 539.663 615.001 487.763 615.001C435.963 615.001 383.963 615.001 331.963 615.001C279.963 615.001 227.963 615.001 175.963 615.001C123.963 615.001 71.9629 615.001 45.9629 615.001H19.9629L19.9629 593.001Z" fill="#FA7268"/>
</g>
<rect x="1126.96" y="823.001" width="1126" height="222" transform="rotate(-180 1126.96 823.001)" fill="#FA7268"/>
<defs>
<clipPath id="clip0_20_742">
<rect width="1091" height="614" fill="white" transform="translate(19.9629 0.00134277)"/>
</clipPath>
</defs>
</svg>
