<svg id="visual" viewBox="0 0 320 700" width="320" height="700" xmlns="http://www.w3.org/2000/svg" xmlns:xlink="http://www.w3.org/1999/xlink" version="1.1"><path d="M0 50L17 50L17 50L34 50L34 43L51 43L51 43L67 43L67 50L84 50L84 57L101 57L101 43L118 43L118 50L135 50L135 64L152 64L152 50L168 50L168 57L185 57L185 50L202 50L202 50L219 50L219 43L236 43L236 64L253 64L253 64L269 64L269 64L286 64L286 43L303 43L303 64L320 64L320 57L320 0L320 0L303 0L303 0L286 0L286 0L269 0L269 0L253 0L253 0L236 0L236 0L219 0L219 0L202 0L202 0L185 0L185 0L168 0L168 0L152 0L152 0L135 0L135 0L118 0L118 0L101 0L101 0L84 0L84 0L67 0L67 0L51 0L51 0L34 0L34 0L17 0L17 0L0 0Z" fill="#fa7268"></path><path d="M0 148L17 148L17 134L34 134L34 134L51 134L51 141L67 141L67 155L84 155L84 169L101 169L101 162L118 162L118 155L135 155L135 148L152 148L152 141L168 141L168 162L185 162L185 127L202 127L202 169L219 169L219 141L236 141L236 155L253 155L253 148L269 148L269 183L286 183L286 134L303 134L303 148L320 148L320 162L320 55L320 62L303 62L303 41L286 41L286 62L269 62L269 62L253 62L253 62L236 62L236 41L219 41L219 48L202 48L202 48L185 48L185 55L168 55L168 48L152 48L152 62L135 62L135 48L118 48L118 41L101 41L101 55L84 55L84 48L67 48L67 41L51 41L51 41L34 41L34 48L17 48L17 48L0 48Z" fill="#fd7962"></path><path d="M0 281L17 281L17 344L34 344L34 316L51 316L51 281L67 281L67 337L84 337L84 337L101 337L101 309L118 309L118 330L135 330L135 323L152 323L152 330L168 330L168 302L185 302L185 295L202 295L202 309L219 309L219 274L236 274L236 309L253 309L253 309L269 309L269 358L286 358L286 288L303 288L303 316L320 316L320 323L320 160L320 146L303 146L303 132L286 132L286 181L269 181L269 146L253 146L253 153L236 153L236 139L219 139L219 167L202 167L202 125L185 125L185 160L168 160L168 139L152 139L152 146L135 146L135 153L118 153L118 160L101 160L101 167L84 167L84 153L67 153L67 139L51 139L51 132L34 132L34 132L17 132L17 146L0 146Z" fill="#fe815c"></path><path d="M0 463L17 463L17 477L34 477L34 463L51 463L51 456L67 456L67 463L84 463L84 470L101 470L101 470L118 470L118 449L135 449L135 491L152 491L152 470L168 470L168 456L185 456L185 456L202 456L202 491L219 491L219 456L236 456L236 477L253 477L253 463L269 463L269 484L286 484L286 477L303 477L303 470L320 470L320 498L320 321L320 314L303 314L303 286L286 286L286 356L269 356L269 307L253 307L253 307L236 307L236 272L219 272L219 307L202 307L202 293L185 293L185 300L168 300L168 328L152 328L152 321L135 321L135 328L118 328L118 307L101 307L101 335L84 335L84 335L67 335L67 279L51 279L51 314L34 314L34 342L17 342L17 279L0 279Z" fill="#ff8a56"></path><path d="M0 505L17 505L17 526L34 526L34 505L51 505L51 512L67 512L67 519L84 519L84 512L101 512L101 519L118 519L118 505L135 505L135 533L152 533L152 526L168 526L168 505L185 505L185 498L202 498L202 540L219 540L219 512L236 512L236 526L253 526L253 505L269 505L269 526L286 526L286 533L303 533L303 512L320 512L320 554L320 496L320 468L303 468L303 475L286 475L286 482L269 482L269 461L253 461L253 475L236 475L236 454L219 454L219 489L202 489L202 454L185 454L185 454L168 454L168 468L152 468L152 489L135 489L135 447L118 447L118 468L101 468L101 468L84 468L84 461L67 461L67 454L51 454L51 461L34 461L34 475L17 475L17 461L0 461Z" fill="#ff9250"></path><path d="M0 582L17 582L17 589L34 589L34 575L51 575L51 582L67 582L67 582L84 582L84 589L101 589L101 575L118 575L118 582L135 582L135 589L152 589L152 603L168 603L168 575L185 575L185 575L202 575L202 603L219 603L219 589L236 589L236 575L253 575L253 568L269 568L269 582L286 582L286 596L303 596L303 561L320 561L320 603L320 552L320 510L303 510L303 531L286 531L286 524L269 524L269 503L253 503L253 524L236 524L236 510L219 510L219 538L202 538L202 496L185 496L185 503L168 503L168 524L152 524L152 531L135 531L135 503L118 503L118 517L101 517L101 510L84 510L84 517L67 517L67 510L51 510L51 503L34 503L34 524L17 524L17 503L0 503Z" fill="#ff9b4b"></path><path d="M0 624L17 624L17 624L34 624L34 624L51 624L51 624L67 624L67 631L84 631L84 631L101 631L101 617L118 617L118 617L135 617L135 631L152 631L152 638L168 638L168 624L185 624L185 610L202 610L202 638L219 638L219 624L236 624L236 610L253 610L253 617L269 617L269 617L286 617L286 638L303 638L303 610L320 610L320 638L320 601L320 559L303 559L303 594L286 594L286 580L269 580L269 566L253 566L253 573L236 573L236 587L219 587L219 601L202 601L202 573L185 573L185 573L168 573L168 601L152 601L152 587L135 587L135 580L118 580L118 573L101 573L101 587L84 587L84 580L67 580L67 580L51 580L51 573L34 573L34 587L17 587L17 580L0 580Z" fill="#ffa546"></path><path d="M0 701L17 701L17 701L34 701L34 701L51 701L51 701L67 701L67 701L84 701L84 701L101 701L101 701L118 701L118 701L135 701L135 701L152 701L152 701L168 701L168 701L185 701L185 701L202 701L202 701L219 701L219 701L236 701L236 701L253 701L253 701L269 701L269 701L286 701L286 701L303 701L303 701L320 701L320 701L320 636L320 608L303 608L303 636L286 636L286 615L269 615L269 615L253 615L253 608L236 608L236 622L219 622L219 636L202 636L202 608L185 608L185 622L168 622L168 636L152 636L152 629L135 629L135 615L118 615L118 615L101 615L101 629L84 629L84 629L67 629L67 622L51 622L51 622L34 622L34 622L17 622L17 622L0 622Z" fill="#ffae42"></path></svg>