<svg width="49" height="49" viewBox="0 0 49 49" fill="none" xmlns="http://www.w3.org/2000/svg">
<path d="M24.5 9.93125C16.5484 9.93125 10.0844 16.3953 10.0734 24.3469C10.0734 27.0703 10.8391 29.7281 12.2828 32.0141L12.6219 32.5609L11.1672 37.8766L16.625 36.4438L17.15 36.7609C19.3594 38.0734 21.8969 38.7734 24.4891 38.7734H24.5C32.4406 38.7734 39.0797 32.3094 39.0797 24.3578C39.0797 20.5078 37.4172 16.8875 34.6938 14.1641C31.9594 11.4297 28.35 9.93125 24.5 9.93125ZM32.9766 30.5375C32.6156 31.5547 30.8875 32.4734 30.0562 32.5938C28.6781 32.8016 27.6063 32.6922 24.8609 31.5109C20.5188 29.6297 17.675 25.2547 17.4563 24.9703C17.2375 24.6859 15.6844 22.6188 15.6844 20.4859C15.6844 18.3531 16.8 17.3031 17.2047 16.8656C17.5984 16.4281 18.0687 16.3187 18.3641 16.3187C18.6484 16.3187 18.9438 16.3188 19.1953 16.3297C19.4578 16.3406 19.8187 16.2313 20.1687 17.0734C20.5297 17.9375 21.3938 20.0703 21.5031 20.2891C21.6125 20.5078 21.6891 20.7594 21.5359 21.0437C20.7047 22.7062 19.8188 22.6406 20.2672 23.4062C21.9406 26.2828 23.6141 27.2781 26.1625 28.5578C26.6 28.7766 26.8516 28.7438 27.1031 28.4484C27.3547 28.1641 28.1859 27.1797 28.4703 26.7531C28.7547 26.3156 29.05 26.3922 29.4438 26.5344C29.8375 26.6766 31.9703 27.7266 32.4078 27.9453C32.8453 28.1641 33.1297 28.2734 33.2391 28.4484C33.3375 28.6563 33.3375 29.5313 32.9766 30.5375V30.5375ZM43.75 0H5.25C2.35156 0 0 2.35156 0 5.25V43.75C0 46.6484 2.35156 49 5.25 49H43.75C46.6484 49 49 46.6484 49 43.75V5.25C49 2.35156 46.6484 0 43.75 0ZM24.4891 41.6938C21.5797 41.6938 18.725 40.9609 16.1984 39.5828L7 42L9.46094 33.0094C7.94063 30.3844 7.14219 27.3984 7.14219 24.3359C7.15313 14.7766 14.9297 7 24.4891 7C29.1266 7 33.4797 8.80469 36.7609 12.0859C40.0313 15.3672 42 19.7203 42 24.3578C42 33.9172 34.0484 41.6938 24.4891 41.6938Z" fill="white"/>
</svg>
