<svg width="49" height="35" viewBox="0 0 49 35" fill="none" xmlns="http://www.w3.org/2000/svg">
<path d="M24.6577 0H24.9303C27.4478 0.00934247 40.204 0.102768 43.6434 1.04324C44.6831 1.33027 45.6306 1.88974 46.3911 2.66574C47.1516 3.44175 47.6984 4.4071 47.9771 5.46534C48.2864 6.64872 48.5038 8.21514 48.6509 9.83139L48.6815 10.1553L48.7489 10.9649L48.7734 11.2888C48.9724 14.1352 48.9969 16.8009 49 17.3832V17.6168C48.9969 18.2209 48.9694 21.0673 48.7489 24.0319L48.7244 24.3589L48.6968 24.6828C48.5437 26.4641 48.317 28.2329 47.9771 29.5347C47.6993 30.5933 47.1527 31.5591 46.3921 32.3353C45.6315 33.1114 44.6835 33.6706 43.6434 33.9568C40.0906 34.9284 26.5872 34.9969 24.7159 35H24.281C23.3346 35 19.4205 34.9813 15.3165 34.8381L14.7959 34.8194L14.5294 34.8069L14.0057 34.7851L13.482 34.7633C10.0824 34.6107 6.84512 34.3647 5.35358 33.9536C4.31377 33.6677 3.3661 33.109 2.60551 32.3335C1.84491 31.5579 1.29811 30.5927 1.01988 29.5347C0.679918 28.2361 0.453278 26.4641 0.300144 24.6828L0.275642 24.3558L0.251141 24.0319C0.0999895 21.9218 0.0162319 19.8072 0 17.6915L0 17.3085C0.00612538 16.6389 0.0306269 14.3251 0.196012 11.7715L0.217451 11.4508L0.226639 11.2888L0.251141 10.9649L0.31852 10.1553L0.349147 9.83139C0.496156 8.21514 0.713607 6.64561 1.02294 5.46534C1.30071 4.40668 1.8473 3.44086 2.60792 2.66473C3.36854 1.88859 4.31646 1.32941 5.35665 1.04324C6.84818 0.638402 10.0854 0.389269 13.485 0.233561L14.0057 0.211762L14.5325 0.193078L14.7959 0.183736L15.3196 0.161937C18.2344 0.0665642 21.1504 0.0136178 24.0666 0.0031143H24.6577V0ZM19.6012 9.99644V25.0004L32.3328 17.5016L19.6012 9.99644Z" fill="white"/>
</svg>
